BioRhyme-Light Extended.ufo
<glyph name="exclam" format="1">
  <advance width="287"/>
  <unicode hex="0021"/>
  <outline>
    <contour>
      <point x="152" y="314" type="line"/>
      <point x="157" y="437" type="line" smooth="yes"/>
      <point x="161" y="589"/>
      <point x="175" y="691"/>
      <point x="175" y="708" type="curve"/>
      <point x="175" y="726"/>
      <point x="166" y="740"/>
      <point x="144" y="740" type="curve"/>
      <point x="122" y="740"/>
      <point x="114" y="726"/>
      <point x="114" y="708" type="curve"/>
      <point x="114" y="691"/>
      <point x="126" y="590"/>
      <point x="131" y="437" type="curve" smooth="yes"/>
      <point x="135" y="314" type="line"/>
    </contour>
    <contour>
      <point x="112" y="219"/>
      <point x="94" y="206"/>
      <point x="94" y="187" type="curve"/>
      <point x="94" y="169"/>
      <point x="112" y="155"/>
      <point x="144" y="155" type="curve"/>
      <point x="176" y="155"/>
      <point x="192" y="169"/>
      <point x="192" y="187" type="curve"/>
      <point x="192" y="206"/>
      <point x="176" y="219"/>
      <point x="144" y="219" type="curve"/>
    </contour>
  </outline>
</glyph>
<glyph name="quotedbl" format="1">
  <advance width="372"/>
  <unicode hex="0022"/>
  <outline>
    <contour>
      <point x="85" y="526" type="line"/>
      <point x="101" y="524" type="line"/>
      <point x="147" y="722" type="line"/>
      <point x="111" y="728" type="line"/>
    </contour>
    <contour>
      <point x="236" y="526" type="line"/>
      <point x="252" y="524" type="line"/>
      <point x="297" y="722" type="line"/>
      <point x="261" y="728" type="line"/>
    </contour>
  </outline>
</glyph>
<glyph name="numbersign" format="1">
  <advance width="1041"/>
  <unicode hex="0023"/>
  <outline>
    <contour>
      <point x="847" y="647" type="line"/>
      <point x="814" y="647" type="line"/>
      <point x="580" y="0" type="line"/>
      <point x="612" y="0" type="line"/>
    </contour>
    <contour>
      <point x="460" y="647" type="line"/>
      <point x="427" y="647" type="line"/>
      <point x="191" y="0" type="line"/>
      <point x="223" y="0" type="line"/>
    </contour>
    <contour>
      <point x="91" y="438" type="line"/>
      <point x="1014" y="438" type="line"/>
      <point x="1014" y="469" type="line"/>
      <point x="91" y="469" type="line"/>
    </contour>
    <contour>
      <point x="26" y="200" type="line"/>
      <point x="949" y="200" type="line"/>
      <point x="949" y="231" type="line"/>
      <point x="26" y="231" type="line"/>
    </contour>
  </outline>
</glyph>
<glyph name="dollar" format="1">
  <advance width="821"/>
  <unicode hex="0024"/>
  <outline>
    <contour>
      <point x="659" y="173"/>
      <point x="753" y="212"/>
      <point x="753" y="286" type="curve" smooth="yes"/>
      <point x="753" y="367"/>
      <point x="655" y="395"/>
      <point x="426" y="412" type="curve" smooth="yes"/>
      <point x="211" y="430"/>
      <point x="136" y="459"/>
      <point x="136" y="516" type="curve" smooth="yes"/>
      <point x="136" y="577"/>
      <point x="217" y="606"/>
      <point x="327" y="606" type="curve" smooth="yes"/>
      <point x="485" y="606"/>
      <point x="621" y="548"/>
      <point x="718" y="455" type="curve"/>
      <point x="718" y="455" type="line"/>
      <point x="718" y="630" type="line"/>
      <point x="695" y="630" type="line"/>
      <point x="695" y="491" type="line"/>
      <point x="709" y="491" type="line"/>
      <point x="637" y="557"/>
      <point x="503" y="630"/>
      <point x="329" y="630" type="curve" smooth="yes"/>
      <point x="197" y="630"/>
      <point x="111" y="589"/>
      <point x="111" y="516" type="curve" smooth="yes"/>
      <point x="111" y="447"/>
      <point x="189" y="406"/>
      <point x="425" y="389" type="curve" smooth="yes"/>
      <point x="641" y="371"/>
      <point x="729" y="350"/>
      <point x="729" y="286" type="curve" smooth="yes"/>
      <point x="729" y="225"/>
      <point x="643" y="196"/>
      <point x="538" y="194" type="curve" smooth="yes"/>
      <point x="410" y="190"/>
      <point x="206" y="251"/>
      <point x="109" y="356" type="curve"/>
      <point x="109" y="356" type="line"/>
      <point x="109" y="173" type="line"/>
      <point x="132" y="173" type="line"/>
      <point x="132" y="318" type="line"/>
      <point x="117" y="318" type="line"/>
      <point x="191" y="243"/>
      <point x="385" y="168"/>
      <point x="537" y="171" type="curve" smooth="yes"/>
    </contour>
    <contour>
      <point x="436" y="54" type="line"/>
      <point x="436" y="190" type="line"/>
      <point x="436" y="199" type="line"/>
      <point x="436" y="608" type="line"/>
      <point x="436" y="616" type="line"/>
      <point x="436" y="747" type="line"/>
      <point x="413" y="747" type="line"/>
      <point x="413" y="618" type="line"/>
      <point x="413" y="610" type="line"/>
      <point x="413" y="200" type="line"/>
      <point x="413" y="193" type="line"/>
      <point x="413" y="54" type="line"/>
    </contour>
  </outline>
</glyph>
<glyph name="percent" format="1">
  <advance width="1247"/>
  <unicode hex="0025"/>
  <outline>
    <contour>
      <point x="1029" y="634" type="line"/>
      <point x="1008" y="653" type="line"/>
      <point x="217" y="-13" type="line"/>
      <point x="238" y="-33" type="line"/>
    </contour>
    <contour>
      <point x="403" y="305"/>
      <point x="491" y="369"/>
      <point x="491" y="470" type="curve" smooth="yes"/>
      <point x="491" y="568"/>
      <point x="403" y="636"/>
      <point x="285" y="636" type="curve" smooth="yes"/>
      <point x="167" y="636"/>
      <point x="79" y="573"/>
      <point x="79" y="471" type="curve" smooth="yes"/>
      <point x="79" y="374"/>
      <point x="167" y="305"/>
      <point x="285" y="305" type="curve" smooth="yes"/>
    </contour>
    <contour>
      <point x="183" y="334"/>
      <point x="110" y="392"/>
      <point x="110" y="471" type="curve" smooth="yes"/>
      <point x="110" y="553"/>
      <point x="183" y="607"/>
      <point x="285" y="607" type="curve" smooth="yes"/>
      <point x="388" y="607"/>
      <point x="461" y="549"/>
      <point x="461" y="470" type="curve" smooth="yes"/>
      <point x="461" y="388"/>
      <point x="388" y="334"/>
      <point x="285" y="334" type="curve" smooth="yes"/>
    </contour>
    <contour>
      <point x="1080" y="-15"/>
      <point x="1168" y="47"/>
      <point x="1168" y="150" type="curve" smooth="yes"/>
      <point x="1168" y="246"/>
      <point x="1080" y="316"/>
      <point x="963" y="316" type="curve" smooth="yes"/>
      <point x="845" y="316"/>
      <point x="757" y="252"/>
      <point x="757" y="151" type="curve" smooth="yes"/>
      <point x="757" y="53"/>
      <point x="845" y="-15"/>
      <point x="963" y="-15" type="curve" smooth="yes"/>
    </contour>
    <contour>
      <point x="859" y="13"/>
      <point x="787" y="72"/>
      <point x="787" y="151" type="curve" smooth="yes"/>
      <point x="787" y="232"/>
      <point x="859" y="286"/>
      <point x="963" y="286" type="curve" smooth="yes"/>
      <point x="1065" y="286"/>
      <point x="1137" y="229"/>
      <point x="1137" y="150" type="curve" smooth="yes"/>
      <point x="1137" y="67"/>
      <point x="1065" y="13"/>
      <point x="963" y="13" type="curve" smooth="yes"/>
    </contour>
  </outline>
</glyph>
<glyph name="ampersand" format="1">
  <advance width="736"/>
  <unicode hex="0026"/>
  <outline>
    <contour>
      <point x="491" y="154"/>
      <point x="642" y="270"/>
      <point x="642" y="374" type="curve" smooth="yes"/>
      <point x="642" y="437"/>
      <point x="610" y="470"/>
      <point x="585" y="491" type="curve"/>
      <point x="568" y="474" type="line"/>
      <point x="593" y="450"/>
      <point x="617" y="427"/>
      <point x="617" y="375" type="curve" smooth="yes"/>
      <point x="617" y="284"/>
      <point x="482" y="175"/>
      <point x="264" y="175" type="curve" smooth="yes"/>
      <point x="114" y="175"/>
      <point x="65" y="231"/>
      <point x="65" y="289" type="curve" smooth="yes"/>
      <point x="65" y="368"/>
      <point x="150" y="395"/>
      <point x="287" y="432" type="curve" smooth="yes"/>
      <point x="435" y="472"/>
      <point x="502" y="522"/>
      <point x="502" y="596" type="curve" smooth="yes"/>
      <point x="502" y="646"/>
      <point x="461" y="694"/>
      <point x="390" y="694" type="curve" smooth="yes"/>
      <point x="307" y="694"/>
      <point x="233" y="627"/>
      <point x="233" y="526" type="curve" smooth="yes"/>
      <point x="233" y="304"/>
      <point x="442" y="155"/>
      <point x="594" y="155" type="curve" smooth="yes"/>
      <point x="643" y="155"/>
      <point x="676" y="164"/>
      <point x="716" y="186" type="curve"/>
      <point x="707" y="206" type="line"/>
      <point x="672" y="186"/>
      <point x="641" y="178"/>
      <point x="594" y="178" type="curve" smooth="yes"/>
      <point x="451" y="178"/>
      <point x="258" y="320"/>
      <point x="258" y="526" type="curve" smooth="yes"/>
      <point x="258" y="627"/>
      <point x="331" y="672"/>
      <point x="390" y="672" type="curve" smooth="yes"/>
      <point x="443" y="672"/>
      <point x="477" y="637"/>
      <point x="477" y="591" type="curve" smooth="yes"/>
      <point x="477" y="539"/>
      <point x="417" y="494"/>
      <point x="284" y="455" type="curve" smooth="yes"/>
      <point x="131" y="410"/>
      <point x="40" y="381"/>
      <point x="40" y="289" type="curve" smooth="yes"/>
      <point x="40" y="211"/>
      <point x="109" y="151"/>
      <point x="264" y="153" type="curve" smooth="yes"/>
    </contour>
  </outline>
</glyph>
<glyph name="quotesingle" format="1">
  <advance width="292"/>
  <unicode hex="0027"/>
  <outline>
    <contour>
      <point x="112" y="475" type="line"/>
      <point x="133" y="473" type="line"/>
      <point x="193" y="734" type="line"/>
      <point x="146" y="741" type="line"/>
    </contour>
  </outline>
</glyph>
<glyph name="parenleft" format="1">
  <advance width="464"/>
  <unicode hex="0028"/>
  <outline>
    <contour>
      <point x="444" y="-92" type="line"/>
      <point x="349" y="-34"/>
      <point x="158" y="101"/>
      <point x="158" y="350" type="curve"/>
      <point x="158" y="598"/>
      <point x="349" y="734"/>
      <point x="444" y="792" type="curve"/>
      <point x="435" y="817" type="line"/>
      <point x="323" y="758"/>
      <point x="125" y="608"/>
      <point x="125" y="350" type="curve"/>
      <point x="125" y="91"/>
      <point x="323" y="-58"/>
      <point x="435" y="-118" type="curve"/>
    </contour>
  </outline>
</glyph>
<glyph name="parenright" format="1">
  <advance width="464"/>
  <unicode hex="0029"/>
  <outline>
    <contour>
      <point x="141" y="-58"/>
      <point x="339" y="91"/>
      <point x="339" y="350" type="curve"/>
      <point x="339" y="608"/>
      <point x="141" y="758"/>
      <point x="31" y="817" type="curve"/>
      <point x="20" y="792" type="line"/>
      <point x="117" y="734"/>
      <point x="306" y="598"/>
      <point x="306" y="350" type="curve"/>
      <point x="306" y="101"/>
      <point x="117" y="-34"/>
      <point x="20" y="-92" type="curve"/>
      <point x="31" y="-118" type="line"/>
    </contour>
  </outline>
</glyph>
<glyph name="asterisk" format="1">
  <advance width="443"/>
  <unicode hex="002A"/>
  <outline>
    <contour>
      <point x="332" y="476"/>
      <point x="340" y="480"/>
      <point x="345" y="485" type="curve" smooth="yes"/>
      <point x="350" y="489"/>
      <point x="352" y="495"/>
      <point x="352" y="501" type="curve" smooth="yes"/>
      <point x="352" y="527"/>
      <point x="302" y="542"/>
      <point x="271" y="573" type="curve" smooth="yes"/>
      <point x="252" y="591" type="line"/>
      <point x="242" y="584" type="line"/>
      <point x="258" y="563" type="line" smooth="yes"/>
      <point x="290" y="521"/>
      <point x="287" y="476"/>
      <point x="323" y="476" type="curve" smooth="yes"/>
    </contour>
    <contour>
      <point x="156" y="476"/>
      <point x="154" y="521"/>
      <point x="185" y="563" type="curve" smooth="yes"/>
      <point x="201" y="584" type="line"/>
      <point x="192" y="591" type="line"/>
      <point x="172" y="573" type="line" smooth="yes"/>
      <point x="141" y="542"/>
      <point x="91" y="527"/>
      <point x="91" y="501" type="curve" smooth="yes"/>
      <point x="91" y="494"/>
      <point x="94" y="488"/>
      <point x="100" y="484" type="curve" smooth="yes"/>
      <point x="106" y="479"/>
      <point x="112" y="476"/>
      <point x="120" y="476" type="curve" smooth="yes"/>
    </contour>
    <contour>
      <point x="185" y="632" type="line"/>
      <point x="160" y="641" type="line" smooth="yes"/>
      <point x="122" y="655"/>
      <point x="91" y="688"/>
      <point x="65" y="688" type="curve" smooth="yes"/>
      <point x="49" y="688"/>
      <point x="36" y="676"/>
      <point x="36" y="661" type="curve" smooth="yes"/>
      <point x="36" y="641"/>
      <point x="53" y="636"/>
      <point x="77" y="634" type="curve" smooth="yes"/>
      <point x="99" y="632"/>
      <point x="126" y="633"/>
      <point x="154" y="627" type="curve" smooth="yes"/>
      <point x="182" y="621" type="line"/>
    </contour>
    <contour>
      <point x="229" y="657" type="line"/>
      <point x="231" y="681" type="line" smooth="yes"/>
      <point x="234" y="710"/>
      <point x="252" y="750"/>
      <point x="252" y="765" type="curve" smooth="yes"/>
      <point x="252" y="777"/>
      <point x="242" y="790"/>
      <point x="223" y="791" type="curve"/>
      <point x="201" y="790"/>
      <point x="194" y="777"/>
      <point x="194" y="765" type="curve" smooth="yes"/>
      <point x="194" y="750"/>
      <point x="210" y="711"/>
      <point x="212" y="681" type="curve" smooth="yes"/>
      <point x="215" y="657" type="line"/>
    </contour>
    <contour>
      <point x="290" y="627" type="line" smooth="yes"/>
      <point x="320" y="633"/>
      <point x="350" y="632"/>
      <point x="372" y="635" type="curve" smooth="yes"/>
      <point x="392" y="637"/>
      <point x="407" y="643"/>
      <point x="407" y="661" type="curve" smooth="yes"/>
      <point x="407" y="676"/>
      <point x="395" y="688"/>
      <point x="378" y="688" type="curve" smooth="yes"/>
      <point x="352" y="688"/>
      <point x="322" y="655"/>
      <point x="284" y="641" type="curve" smooth="yes"/>
      <point x="259" y="632" type="line"/>
      <point x="262" y="621" type="line"/>
    </contour>
  </outline>
</glyph>
<glyph name="plus" format="1">
  <advance width="840"/>
  <unicode hex="002B"/>
  <outline>
    <contour>
      <point x="437" y="57" type="line"/>
      <point x="437" y="563" type="line"/>
      <point x="404" y="563" type="line"/>
      <point x="404" y="57" type="line"/>
    </contour>
    <contour>
      <point x="748" y="296" type="line"/>
      <point x="748" y="326" type="line"/>
      <point x="92" y="326" type="line"/>
      <point x="92" y="296" type="line"/>
    </contour>
  </outline>
</glyph>
<glyph name="comma" format="1">
  <advance width="352"/>
  <unicode hex="002C"/>
  <outline>
    <contour>
      <point x="255" y="46"/>
      <point x="230" y="73"/>
      <point x="184" y="73" type="curve" smooth="yes"/>
      <point x="143" y="73"/>
      <point x="118" y="53"/>
      <point x="118" y="28" type="curve" smooth="yes"/>
      <point x="118" y="2"/>
      <point x="141" y="-13"/>
      <point x="174" y="-13" type="curve" smooth="yes"/>
      <point x="194" y="-13"/>
      <point x="211" y="-11"/>
      <point x="227" y="-7" type="curve"/>
      <point x="218" y="-65"/>
      <point x="164" y="-123"/>
      <point x="98" y="-183" type="curve"/>
      <point x="112" y="-198" type="line"/>
      <point x="193" y="-134"/>
      <point x="255" y="-53"/>
      <point x="255" y="4" type="curve" smooth="yes"/>
    </contour>
  </outline>
</glyph>
<glyph name="hyphen" format="1">
  <advance width="327"/>
  <unicode hex="002D"/>
  <outline>
    <contour>
      <point x="28" y="356" type="line"/>
      <point x="28" y="332" type="line"/>
      <point x="299" y="332" type="line"/>
      <point x="299" y="356" type="line"/>
    </contour>
  </outline>
</glyph>
<glyph name="period" format="1">
  <advance width="247"/>
  <unicode hex="002E"/>
  <outline>
    <contour>
      <point x="156" y="155"/>
      <point x="173" y="169"/>
      <point x="173" y="187" type="curve"/>
      <point x="173" y="206"/>
      <point x="156" y="219"/>
      <point x="124" y="219" type="curve"/>
      <point x="92" y="219"/>
      <point x="74" y="206"/>
      <point x="74" y="187" type="curve"/>
      <point x="74" y="169"/>
      <point x="92" y="155"/>
      <point x="124" y="155" type="curve"/>
    </contour>
  </outline>
</glyph>
<glyph name="slash" format="1">
  <advance width="550"/>
  <unicode hex="002F"/>
  <outline>
    <contour>
      <point x="504" y="740" type="line"/>
      <point x="468" y="740" type="line"/>
      <point x="28" y="-105" type="line"/>
      <point x="65" y="-105" type="line"/>
    </contour>
  </outline>
</glyph>
<glyph name="zero" format="1">
  <advance width="774"/>
  <unicode hex="0030"/>
  <outline>
    <contour>
      <point x="561" y="155"/>
      <point x="714" y="240"/>
      <point x="714" y="400" type="curve"/>
      <point x="714" y="555"/>
      <point x="561" y="646"/>
      <point x="387" y="646" type="curve"/>
      <point x="213" y="646"/>
      <point x="60" y="555"/>
      <point x="60" y="400" type="curve"/>
      <point x="60" y="240"/>
      <point x="213" y="155"/>
      <point x="387" y="155" type="curve"/>
    </contour>
    <contour>
      <point x="225" y="178"/>
      <point x="86" y="257"/>
      <point x="86" y="400" type="curve"/>
      <point x="86" y="537"/>
      <point x="225" y="623"/>
      <point x="387" y="623" type="curve"/>
      <point x="550" y="623"/>
      <point x="689" y="537"/>
      <point x="689" y="400" type="curve"/>
      <point x="689" y="257"/>
      <point x="550" y="178"/>
      <point x="387" y="178" type="curve"/>
    </contour>
  </outline>
</glyph>
<glyph name="one" format="1">
  <advance width="478"/>
  <unicode hex="0031"/>
  <outline>
    <contour>
      <point x="169" y="517"/>
      <point x="255" y="551"/>
      <point x="282" y="641" type="curve"/>
      <point x="262" y="646" type="line"/>
      <point x="236" y="570"/>
      <point x="154" y="537"/>
      <point x="70" y="526" type="curve"/>
      <point x="74" y="501" type="line"/>
    </contour>
    <contour>
      <point x="448" y="165" type="line"/>
      <point x="448" y="188" type="line"/>
      <point x="70" y="188" type="line"/>
      <point x="70" y="165" type="line"/>
    </contour>
    <contour>
      <point x="287" y="165" type="line"/>
      <point x="287" y="646" type="line"/>
      <point x="262" y="646" type="line"/>
      <point x="262" y="165" type="line"/>
    </contour>
  </outline>
</glyph>
<glyph name="two" format="1">
  <advance width="736"/>
  <unicode hex="0032"/>
  <outline>
    <contour>
      <point x="655" y="165" type="line"/>
      <point x="655" y="349" type="line"/>
      <point x="632" y="349" type="line"/>
      <point x="632" y="188" type="line"/>
      <point x="60" y="188" type="line"/>
      <point x="60" y="165" type="line"/>
    </contour>
    <contour>
      <point x="638" y="602"/>
      <point x="512" y="647"/>
      <point x="391" y="647" type="curve" smooth="yes"/>
      <point x="254" y="647"/>
      <point x="147" y="602"/>
      <point x="66" y="532" type="curve"/>
      <point x="82" y="514" type="line"/>
      <point x="163" y="580"/>
      <point x="265" y="624"/>
      <point x="391" y="624" type="curve" smooth="yes"/>
      <point x="508" y="624"/>
      <point x="612" y="582"/>
      <point x="613" y="509" type="curve" smooth="yes"/>
      <point x="613" y="427"/>
      <point x="518" y="414"/>
      <point x="346" y="381" type="curve" smooth="yes"/>
      <point x="147" y="345"/>
      <point x="60" y="298"/>
      <point x="60" y="181" type="curve"/>
      <point x="85" y="181" type="line"/>
      <point x="85" y="283"/>
      <point x="159" y="323"/>
      <point x="356" y="359" type="curve" smooth="yes"/>
      <point x="531" y="391"/>
      <point x="638" y="412"/>
      <point x="638" y="507" type="curve" smooth="yes"/>
    </contour>
  </outline>
</glyph>
<glyph name="three" format="1">
  <advance width="704"/>
  <unicode hex="0033"/>
  <outline>
    <contour>
      <point x="528" y="154"/>
      <point x="638" y="208"/>
      <point x="638" y="280" type="curve" smooth="yes"/>
      <point x="638" y="374"/>
      <point x="510" y="399"/>
      <point x="343" y="399" type="curve"/>
      <point x="343" y="389" type="line"/>
      <point x="511" y="389"/>
      <point x="611" y="445"/>
      <point x="611" y="517" type="curve" smooth="yes"/>
      <point x="611" y="602"/>
      <point x="506" y="647"/>
      <point x="368" y="647" type="curve" smooth="yes"/>
      <point x="247" y="647"/>
      <point x="139" y="618"/>
      <point x="56" y="576" type="curve"/>
      <point x="65" y="555" type="line"/>
      <point x="145" y="596"/>
      <point x="247" y="624"/>
      <point x="368" y="624" type="curve" smooth="yes"/>
      <point x="502" y="624"/>
      <point x="586" y="582"/>
      <point x="586" y="517" type="curve" smooth="yes"/>
      <point x="586" y="457"/>
      <point x="508" y="406"/>
      <point x="337" y="406" type="curve" smooth="yes"/>
      <point x="176" y="406" type="line"/>
      <point x="176" y="384" type="line"/>
      <point x="337" y="384" type="line" smooth="yes"/>
      <point x="534" y="384"/>
      <point x="613" y="349"/>
      <point x="613" y="280" type="curve" smooth="yes"/>
      <point x="613" y="219"/>
      <point x="508" y="176"/>
      <point x="358" y="176" type="curve" smooth="yes"/>
      <point x="201" y="176"/>
      <point x="100" y="226"/>
      <point x="55" y="260" type="curve"/>
      <point x="40" y="241" type="line"/>
      <point x="87" y="208"/>
      <point x="192" y="154"/>
      <point x="356" y="154" type="curve" smooth="yes"/>
    </contour>
  </outline>
</glyph>
<glyph name="four" format="1">
  <advance width="687"/>
  <unicode hex="0034"/>
  <outline>
    <contour>
      <point x="511" y="646" type="line"/>
      <point x="473" y="646" type="line"/>
      <point x="25" y="314" type="line"/>
      <point x="55" y="305" type="line"/>
    </contour>
    <contour>
      <point x="672" y="290" type="line"/>
      <point x="672" y="314" type="line"/>
      <point x="25" y="314" type="line"/>
      <point x="25" y="290" type="line"/>
    </contour>
    <contour>
      <point x="486" y="155" type="line"/>
      <point x="511" y="155" type="line"/>
      <point x="511" y="646" type="line"/>
      <point x="486" y="646" type="line"/>
    </contour>
  </outline>
</glyph>
<glyph name="five" format="1">
  <advance width="695"/>
  <unicode hex="0035"/>
  <outline>
    <contour>
      <point x="97" y="613" type="line"/>
      <point x="610" y="613" type="line"/>
      <point x="610" y="636" type="line"/>
      <point x="97" y="636" type="line"/>
    </contour>
    <contour>
      <point x="629" y="397"/>
      <point x="533" y="439"/>
      <point x="377" y="441" type="curve" smooth="yes"/>
      <point x="262" y="442"/>
      <point x="177" y="425"/>
      <point x="97" y="409" type="curve"/>
      <point x="97" y="385" type="line"/>
      <point x="176" y="402"/>
      <point x="256" y="418"/>
      <point x="367" y="417" type="curve" smooth="yes"/>
      <point x="533" y="416"/>
      <point x="605" y="376"/>
      <point x="603" y="301" type="curve" smooth="yes"/>
      <point x="603" y="225"/>
      <point x="492" y="178"/>
      <point x="373" y="178" type="curve" smooth="yes"/>
      <point x="226" y="178"/>
      <point x="125" y="228"/>
      <point x="80" y="261" type="curve"/>
      <point x="65" y="241" type="line"/>
      <point x="112" y="209"/>
      <point x="217" y="155"/>
      <point x="371" y="155" type="curve" smooth="yes"/>
      <point x="513" y="155"/>
      <point x="629" y="215"/>
      <point x="629" y="301" type="curve" smooth="yes"/>
    </contour>
    <contour>
      <point x="97" y="385" type="line"/>
      <point x="120" y="401" type="line"/>
      <point x="120" y="636" type="line"/>
      <point x="97" y="636" type="line"/>
    </contour>
  </outline>
</glyph>
<glyph name="six" format="1">
  <advance width="711"/>
  <unicode hex="0036"/>
  <outline>
    <contour>
      <point x="523" y="155"/>
      <point x="657" y="212"/>
      <point x="657" y="306" type="curve" smooth="yes"/>
      <point x="657" y="402"/>
      <point x="550" y="439"/>
      <point x="404" y="441" type="curve" smooth="yes"/>
      <point x="270" y="442"/>
      <point x="160" y="412"/>
      <point x="84" y="380" type="curve"/>
      <point x="84" y="355" type="line"/>
      <point x="159" y="390"/>
      <point x="262" y="418"/>
      <point x="394" y="417" type="curve" smooth="yes"/>
      <point x="550" y="416"/>
      <point x="632" y="381"/>
      <point x="630" y="305" type="curve" smooth="yes"/>
      <point x="628" y="232"/>
      <point x="518" y="179"/>
      <point x="369" y="179" type="curve" smooth="yes"/>
      <point x="205" y="179"/>
      <point x="90" y="244"/>
      <point x="90" y="374" type="curve" smooth="yes"/>
      <point x="90" y="526"/>
      <point x="222" y="621"/>
      <point x="394" y="621" type="curve" smooth="yes"/>
      <point x="491" y="621"/>
      <point x="555" y="605"/>
      <point x="610" y="590" type="curve"/>
      <point x="616" y="613" type="line"/>
      <point x="559" y="630"/>
      <point x="498" y="646"/>
      <point x="394" y="646" type="curve" smooth="yes"/>
      <point x="212" y="646"/>
      <point x="65" y="542"/>
      <point x="65" y="377" type="curve" smooth="yes"/>
      <point x="65" y="226"/>
      <point x="182" y="155"/>
      <point x="369" y="155" type="curve" smooth="yes"/>
    </contour>
  </outline>
</glyph>
<glyph name="seven" format="1">
  <advance width="935"/>
  <unicode hex="0037"/>
  <outline>
    <contour>
      <point x="278" y="6" type="line"/>
      <point x="299" y="-13" type="line"/>
      <point x="882" y="586" type="line"/>
      <point x="847" y="594" type="line"/>
    </contour>
    <contour>
      <point x="86" y="616" type="line"/>
      <point x="86" y="375" type="line"/>
      <point x="118" y="375" type="line"/>
      <point x="118" y="586" type="line"/>
      <point x="882" y="586" type="line"/>
      <point x="882" y="616" type="line"/>
    </contour>
  </outline>
</glyph>
<glyph name="eight" format="1">
  <advance width="782"/>
  <unicode hex="0038"/>
  <outline>
    <contour>
      <point x="611" y="155"/>
      <point x="711" y="216"/>
      <point x="711" y="287" type="curve" smooth="yes"/>
      <point x="711" y="343"/>
      <point x="652" y="406"/>
      <point x="391" y="412" type="curve" smooth="yes"/>
      <point x="179" y="417"/>
      <point x="116" y="455"/>
      <point x="116" y="514" type="curve" smooth="yes"/>
      <point x="116" y="574"/>
      <point x="211" y="623"/>
      <point x="382" y="623" type="curve" smooth="yes"/>
      <point x="571" y="623"/>
      <point x="667" y="564"/>
      <point x="667" y="500" type="curve" smooth="yes"/>
      <point x="667" y="435"/>
      <point x="600" y="412"/>
      <point x="534" y="384" type="curve"/>
      <point x="562" y="377" type="line"/>
      <point x="627" y="405"/>
      <point x="692" y="434"/>
      <point x="692" y="500" type="curve" smooth="yes"/>
      <point x="692" y="575"/>
      <point x="591" y="646"/>
      <point x="383" y="646" type="curve" smooth="yes"/>
      <point x="191" y="646"/>
      <point x="90" y="585"/>
      <point x="90" y="514" type="curve" smooth="yes"/>
      <point x="90" y="449"/>
      <point x="151" y="392"/>
      <point x="390" y="389" type="curve" smooth="yes"/>
      <point x="622" y="384"/>
      <point x="686" y="339"/>
      <point x="686" y="287" type="curve" smooth="yes"/>
      <point x="686" y="226"/>
      <point x="591" y="178"/>
      <point x="401" y="178" type="curve" smooth="yes"/>
      <point x="191" y="178"/>
      <point x="95" y="237"/>
      <point x="95" y="301" type="curve" smooth="yes"/>
      <point x="95" y="355"/>
      <point x="151" y="390"/>
      <point x="227" y="416" type="curve"/>
      <point x="200" y="424" type="line"/>
      <point x="125" y="396"/>
      <point x="70" y="356"/>
      <point x="70" y="301" type="curve" smooth="yes"/>
      <point x="70" y="225"/>
      <point x="172" y="155"/>
      <point x="398" y="155" type="curve" smooth="yes"/>
    </contour>
  </outline>
</glyph>
<glyph name="nine" format="1">
  <advance width="711"/>
  <unicode hex="0039"/>
  <outline>
    <contour>
      <point x="499" y="155"/>
      <point x="646" y="257"/>
      <point x="646" y="422" type="curve" smooth="yes"/>
      <point x="646" y="573"/>
      <point x="528" y="646"/>
      <point x="342" y="646" type="curve" smooth="yes"/>
      <point x="189" y="646"/>
      <point x="55" y="588"/>
      <point x="55" y="494" type="curve" smooth="yes"/>
      <point x="55" y="397"/>
      <point x="161" y="361"/>
      <point x="307" y="359" type="curve" smooth="yes"/>
      <point x="442" y="357"/>
      <point x="551" y="387"/>
      <point x="628" y="421" type="curve"/>
      <point x="628" y="445" type="line"/>
      <point x="553" y="410"/>
      <point x="448" y="381"/>
      <point x="317" y="382" type="curve" smooth="yes"/>
      <point x="161" y="384"/>
      <point x="80" y="418"/>
      <point x="81" y="495" type="curve" smooth="yes"/>
      <point x="84" y="567"/>
      <point x="192" y="621"/>
      <point x="342" y="621" type="curve" smooth="yes"/>
      <point x="507" y="621"/>
      <point x="622" y="556"/>
      <point x="622" y="425" type="curve" smooth="yes"/>
      <point x="622" y="273"/>
      <point x="490" y="179"/>
      <point x="317" y="179" type="curve" smooth="yes"/>
      <point x="220" y="179"/>
      <point x="157" y="195"/>
      <point x="101" y="209" type="curve"/>
      <point x="95" y="187" type="line"/>
      <point x="152" y="171"/>
      <point x="214" y="155"/>
      <point x="317" y="155" type="curve" smooth="yes"/>
    </contour>
  </outline>
</glyph>
<glyph name="colon" format="1">
  <advance width="275"/>
  <unicode hex="003A"/>
  <outline>
    <contour>
      <point x="169" y="467"/>
      <point x="186" y="482"/>
      <point x="186" y="500" type="curve"/>
      <point x="186" y="519"/>
      <point x="169" y="532"/>
      <point x="137" y="532" type="curve"/>
      <point x="106" y="532"/>
      <point x="89" y="519"/>
      <point x="89" y="500" type="curve"/>
      <point x="89" y="482"/>
      <point x="106" y="467"/>
      <point x="137" y="467" type="curve"/>
    </contour>
    <contour>
      <point x="169" y="155"/>
      <point x="186" y="169"/>
      <point x="186" y="187" type="curve"/>
      <point x="186" y="206"/>
      <point x="169" y="219"/>
      <point x="137" y="219" type="curve"/>
      <point x="106" y="219"/>
      <point x="89" y="206"/>
      <point x="89" y="187" type="curve"/>
      <point x="89" y="169"/>
      <point x="106" y="155"/>
      <point x="137" y="155" type="curve"/>
    </contour>
  </outline>
</glyph>
<glyph name="semicolon" format="1">
  <advance width="296"/>
  <unicode hex="003B"/>
  <outline>
    <contour>
      <point x="160" y="53"/>
      <point x="207" y="114"/>
      <point x="207" y="158" type="curve" smooth="yes"/>
      <point x="207" y="190"/>
      <point x="189" y="209"/>
      <point x="154" y="209" type="curve" smooth="yes"/>
      <point x="122" y="209"/>
      <point x="103" y="195"/>
      <point x="103" y="175" type="curve" smooth="yes"/>
      <point x="103" y="156"/>
      <point x="122" y="145"/>
      <point x="147" y="145" type="curve" smooth="yes"/>
      <point x="161" y="145"/>
      <point x="175" y="146"/>
      <point x="186" y="149" type="curve"/>
      <point x="180" y="105"/>
      <point x="139" y="61"/>
      <point x="89" y="16" type="curve"/>
      <point x="100" y="4" type="line"/>
    </contour>
    <contour>
      <point x="185" y="466"/>
      <point x="201" y="481"/>
      <point x="201" y="499" type="curve"/>
      <point x="201" y="517"/>
      <point x="185" y="531"/>
      <point x="152" y="531" type="curve"/>
      <point x="122" y="531"/>
      <point x="103" y="517"/>
      <point x="103" y="499" type="curve"/>
      <point x="103" y="481"/>
      <point x="122" y="466"/>
      <point x="152" y="466" type="curve"/>
    </contour>
  </outline>
</glyph>
<glyph name="less" format="1">
  <advance width="758"/>
  <unicode hex="003C"/>
  <outline>
    <contour>
      <point x="652" y="527" type="line"/>
      <point x="652" y="560" type="line"/>
      <point x="53" y="312" type="line"/>
      <point x="53" y="309" type="line"/>
      <point x="88" y="299" type="line"/>
    </contour>
    <contour>
      <point x="652" y="97" type="line"/>
      <point x="88" y="322" type="line"/>
      <point x="53" y="312" type="line"/>
      <point x="53" y="309" type="line"/>
      <point x="652" y="64" type="line"/>
    </contour>
  </outline>
</glyph>
<glyph name="equal" format="1">
  <advance width="840"/>
  <unicode hex="003D"/>
  <outline>
    <contour>
      <point x="92" y="458" type="line"/>
      <point x="92" y="428" type="line"/>
      <point x="748" y="428" type="line"/>
      <point x="748" y="458" type="line"/>
    </contour>
    <contour>
      <point x="92" y="193" type="line"/>
      <point x="92" y="163" type="line"/>
      <point x="748" y="163" type="line"/>
      <point x="748" y="193" type="line"/>
    </contour>
  </outline>
</glyph>
<glyph name="greater" format="1">
  <advance width="576"/>
  <unicode hex="003E"/>
  <outline>
    <contour>
      <point x="536" y="402" type="line"/>
      <point x="508" y="409" type="line"/>
      <point x="81" y="237" type="line"/>
      <point x="81" y="212" type="line"/>
      <point x="536" y="399" type="line"/>
    </contour>
    <contour>
      <point x="536" y="402" type="line"/>
      <point x="81" y="589" type="line"/>
      <point x="81" y="564" type="line"/>
      <point x="508" y="392" type="line"/>
      <point x="536" y="399" type="line"/>
    </contour>
  </outline>
</glyph>
<glyph name="question" format="1">
  <advance width="625"/>
  <unicode hex="003F"/>
  <outline>
    <contour>
      <point x="286" y="-13"/>
      <point x="308" y="6"/>
      <point x="308" y="29" type="curve"/>
      <point x="308" y="54"/>
      <point x="286" y="72"/>
      <point x="243" y="72" type="curve"/>
      <point x="202" y="72"/>
      <point x="178" y="54"/>
      <point x="178" y="29" type="curve"/>
      <point x="178" y="6"/>
      <point x="202" y="-13"/>
      <point x="243" y="-13" type="curve"/>
    </contour>
    <contour>
      <point x="75" y="622" type="line"/>
      <point x="141" y="649"/>
      <point x="207" y="668"/>
      <point x="298" y="668" type="curve" smooth="yes"/>
      <point x="415" y="668"/>
      <point x="507" y="618"/>
      <point x="507" y="540" type="curve" smooth="yes"/>
      <point x="507" y="471"/>
      <point x="438" y="436"/>
      <point x="361" y="408" type="curve" smooth="yes"/>
      <point x="265" y="372"/>
      <point x="164" y="349"/>
      <point x="164" y="285" type="curve" smooth="yes"/>
      <point x="164" y="249"/>
      <point x="184" y="213"/>
      <point x="213" y="171" type="curve"/>
      <point x="230" y="177" type="line"/>
      <point x="211" y="213"/>
      <point x="194" y="240"/>
      <point x="194" y="277" type="curve" smooth="yes"/>
      <point x="194" y="328"/>
      <point x="279" y="349"/>
      <point x="370" y="381" type="curve" smooth="yes"/>
      <point x="455" y="410"/>
      <point x="540" y="451"/>
      <point x="540" y="539" type="curve" smooth="yes"/>
      <point x="540" y="645"/>
      <point x="424" y="699"/>
      <point x="298" y="699" type="curve" smooth="yes"/>
      <point x="206" y="699"/>
      <point x="138" y="680"/>
      <point x="66" y="652" type="curve"/>
    </contour>
  </outline>
</glyph>
<glyph name="at" format="1">
  <advance width="929"/>
  <unicode hex="0040"/>
  <outline>
    <contour>
      <point x="533" y="26"/>
      <point x="613" y="66"/>
      <point x="662" y="93" type="curve"/>
      <point x="652" y="114" type="line"/>
      <point x="603" y="88"/>
      <point x="530" y="50"/>
      <point x="400" y="50" type="curve" smooth="yes"/>
      <point x="241" y="50"/>
      <point x="85" y="138"/>
      <point x="85" y="330" type="curve" smooth="yes"/>
      <point x="85" y="505"/>
      <point x="245" y="648"/>
      <point x="478" y="648" type="curve" smooth="yes"/>
      <point x="704" y="648"/>
      <point x="844" y="517"/>
      <point x="844" y="366" type="curve" smooth="yes"/>
      <point x="844" y="270"/>
      <point x="789" y="209"/>
      <point x="732" y="209" type="curve" smooth="yes"/>
      <point x="680" y="209"/>
      <point x="655" y="244"/>
      <point x="655" y="286" type="curve" smooth="yes"/>
      <point x="655" y="364" type="line" smooth="yes"/>
      <point x="655" y="441"/>
      <point x="603" y="491"/>
      <point x="485" y="491" type="curve" smooth="yes"/>
      <point x="411" y="491"/>
      <point x="337" y="475"/>
      <point x="264" y="451" type="curve"/>
      <point x="264" y="426" type="line"/>
      <point x="337" y="450"/>
      <point x="410" y="469"/>
      <point x="485" y="469" type="curve" smooth="yes"/>
      <point x="586" y="469"/>
      <point x="633" y="422"/>
      <point x="633" y="364" type="curve" smooth="yes"/>
      <point x="633" y="286" type="line" smooth="yes"/>
      <point x="633" y="232"/>
      <point x="663" y="186"/>
      <point x="732" y="186" type="curve" smooth="yes"/>
      <point x="796" y="186"/>
      <point x="869" y="254"/>
      <point x="869" y="366" type="curve" smooth="yes"/>
      <point x="869" y="538"/>
      <point x="716" y="672"/>
      <point x="478" y="672" type="curve" smooth="yes"/>
      <point x="234" y="672"/>
      <point x="60" y="523"/>
      <point x="60" y="330" type="curve" smooth="yes"/>
      <point x="60" y="124"/>
      <point x="231" y="26"/>
      <point x="400" y="26" type="curve" smooth="yes"/>
    </contour>
    <contour>
      <point x="478" y="186"/>
      <point x="563" y="208"/>
      <point x="643" y="248" type="curve"/>
      <point x="643" y="270" type="line"/>
      <point x="561" y="232"/>
      <point x="477" y="209"/>
      <point x="397" y="209" type="curve" smooth="yes"/>
      <point x="331" y="209"/>
      <point x="271" y="228"/>
      <point x="271" y="271" type="curve" smooth="yes"/>
      <point x="271" y="323"/>
      <point x="346" y="339"/>
      <point x="429" y="339" type="curve" smooth="yes"/>
      <point x="506" y="339"/>
      <point x="580" y="326"/>
      <point x="643" y="317" type="curve"/>
      <point x="643" y="340" type="line"/>
      <point x="580" y="350"/>
      <point x="507" y="361"/>
      <point x="432" y="361" type="curve" smooth="yes"/>
      <point x="322" y="361"/>
      <point x="247" y="335"/>
      <point x="247" y="271" type="curve" smooth="yes"/>
      <point x="247" y="215"/>
      <point x="310" y="186"/>
      <point x="397" y="186" type="curve" smooth="yes"/>
    </contour>
  </outline>
</glyph>
<glyph name="A" format="1">
  <advance width="1352"/>
  <unicode hex="0041"/>
  <outline>
    <contour>
      <point x="237" y="18" type="line"/>
      <point x="679" y="662" type="line"/>
      <point x="674" y="662" type="line"/>
      <point x="1117" y="18" type="line"/>
      <point x="1155" y="18" type="line"/>
      <point x="701" y="673" type="line" smooth="yes"/>
      <point x="651" y="673" type="line"/>
      <point x="198" y="18" type="line"/>
    </contour>
    <contour>
      <point x="441" y="0" type="line"/>
      <point x="441" y="31" type="line"/>
      <point x="-7" y="31" type="line"/>
      <point x="-7" y="0" type="line"/>
    </contour>
    <contour>
      <point x="965" y="263" type="line"/>
      <point x="943" y="293" type="line"/>
      <point x="407" y="293" type="line"/>
      <point x="383" y="263" type="line"/>
    </contour>
    <contour>
      <point x="1359" y="0" type="line"/>
      <point x="1359" y="31" type="line"/>
      <point x="912" y="31" type="line"/>
      <point x="912" y="0" type="line"/>
    </contour>
    <contour>
      <point x="924" y="656" type="line"/>
      <point x="924" y="686" type="line"/>
      <point x="428" y="686" type="line"/>
      <point x="428" y="656" type="line"/>
    </contour>
    <contour>
      <point x="796" y="772" type="move" name="hook"/>
    </contour>
    <contour>
      <point x="1359" y="0" type="move" name="ogonek"/>
    </contour>
    <contour>
      <point x="675" y="686" type="move" name="top"/>
    </contour>
    <contour>
      <point x="678" y="0" type="move" name="bottom"/>
    </contour>
  </outline>
</glyph>
<glyph name="B" format="1">
  <advance width="964"/>
  <unicode hex="0042"/>
  <outline>
    <contour>
      <point x="676" y="165" type="line" smooth="yes"/>
      <point x="793" y="165"/>
      <point x="864" y="209"/>
      <point x="864" y="301" type="curve" smooth="yes"/>
      <point x="864" y="396"/>
      <point x="784" y="435"/>
      <point x="667" y="435" type="curve"/>
      <point x="667" y="427" type="line"/>
      <point x="777" y="427"/>
      <point x="831" y="481"/>
      <point x="831" y="557" type="curve" smooth="yes"/>
      <point x="831" y="635"/>
      <point x="771" y="686"/>
      <point x="669" y="686" type="curve" smooth="yes"/>
      <point x="56" y="686" type="line"/>
      <point x="56" y="662" type="line"/>
      <point x="667" y="662" type="line" smooth="yes"/>
      <point x="746" y="662"/>
      <point x="806" y="631"/>
      <point x="806" y="557" type="curve" smooth="yes"/>
      <point x="806" y="482"/>
      <point x="747" y="444"/>
      <point x="663" y="444" type="curve" smooth="yes"/>
      <point x="255" y="444" type="line"/>
      <point x="255" y="420" type="line"/>
      <point x="658" y="419" type="line" smooth="yes"/>
      <point x="758" y="419"/>
      <point x="839" y="387"/>
      <point x="839" y="301" type="curve" smooth="yes"/>
      <point x="839" y="220"/>
      <point x="771" y="188"/>
      <point x="669" y="188" type="curve" smooth="yes"/>
      <point x="56" y="188" type="line"/>
      <point x="56" y="165" type="line"/>
    </contour>
    <contour>
      <point x="264" y="179" type="line"/>
      <point x="264" y="675" type="line"/>
      <point x="239" y="675" type="line"/>
      <point x="239" y="179" type="line"/>
    </contour>
    <contour>
      <point x="463" y="686" type="move" name="top"/>
    </contour>
    <contour>
      <point x="463" y="165" type="move" name="bottom"/>
    </contour>
  </outline>
</glyph>
<glyph name="D" format="1">
  <advance width="1273"/>
  <unicode hex="0044"/>
  <outline>
    <contour>
      <point x="719" y="0" type="line"/>
      <point x="990" y="0"/>
      <point x="1174" y="112"/>
      <point x="1174" y="343" type="curve"/>
      <point x="1174" y="574"/>
      <point x="990" y="686"/>
      <point x="719" y="686" type="curve"/>
      <point x="74" y="686" type="line"/>
      <point x="74" y="655" type="line"/>
      <point x="719" y="655" type="line"/>
      <point x="976" y="655"/>
      <point x="1141" y="552"/>
      <point x="1141" y="343" type="curve"/>
      <point x="1141" y="134"/>
      <point x="976" y="31"/>
      <point x="719" y="31" type="curve"/>
      <point x="74" y="31" type="line"/>
      <point x="74" y="0" type="line"/>
    </contour>
    <contour>
      <point x="348" y="18" type="line"/>
      <point x="348" y="669" type="line"/>
      <point x="315" y="669" type="line"/>
      <point x="315" y="18" type="line"/>
    </contour>
    <contour>
      <point x="634" y="323" type="move" name="center"/>
    </contour>
    <contour>
      <point x="634" y="0" type="move" name="bottom"/>
    </contour>
    <contour>
      <point x="634" y="686" type="move" name="top"/>
    </contour>
  </outline>
</glyph>
<glyph name="F" format="1">
  <advance width="889"/>
  <unicode hex="0046"/>
  <outline>
    <contour>
      <point x="814" y="502" type="line"/>
      <point x="814" y="686" type="line"/>
      <point x="56" y="686" type="line"/>
      <point x="56" y="662" type="line"/>
      <point x="790" y="662" type="line"/>
      <point x="790" y="502" type="line"/>
    </contour>
    <contour>
      <point x="457" y="165" type="line"/>
      <point x="457" y="188" type="line"/>
      <point x="56" y="188" type="line"/>
      <point x="56" y="165" type="line"/>
    </contour>
    <contour>
      <point x="264" y="178" type="line"/>
      <point x="264" y="673" type="line"/>
      <point x="239" y="673" type="line"/>
      <point x="239" y="178" type="line"/>
    </contour>
    <contour>
      <point x="555" y="406" type="line"/>
      <point x="555" y="429" type="line"/>
      <point x="261" y="429" type="line"/>
      <point x="261" y="406" type="line"/>
    </contour>
    <contour>
      <point x="568" y="297" type="line"/>
      <point x="568" y="537" type="line"/>
      <point x="543" y="537" type="line"/>
      <point x="543" y="297" type="line"/>
    </contour>
    <contour>
      <point x="451" y="656" type="move" name="top"/>
    </contour>
    <contour>
      <point x="451" y="165" type="move" name="bottom"/>
    </contour>
  </outline>
</glyph>
<glyph name="G" format="1">
  <advance width="906"/>
  <unicode hex="0047"/>
  <outline>
    <contour>
      <point x="579" y="155"/>
      <point x="709" y="198"/>
      <point x="803" y="269" type="curve"/>
      <point x="803" y="420" type="line"/>
      <point x="437" y="420" type="line"/>
      <point x="437" y="396" type="line"/>
      <point x="778" y="396" type="line"/>
      <point x="778" y="281" type="line"/>
      <point x="687" y="218"/>
      <point x="568" y="178"/>
      <point x="437" y="178" type="curve" smooth="yes"/>
      <point x="255" y="178"/>
      <point x="106" y="272"/>
      <point x="106" y="425" type="curve" smooth="yes"/>
      <point x="106" y="580"/>
      <point x="260" y="673"/>
      <point x="445" y="673" type="curve" smooth="yes"/>
      <point x="584" y="673"/>
      <point x="701" y="627"/>
      <point x="792" y="496" type="curve"/>
      <point x="803" y="497" type="line"/>
      <point x="803" y="686" type="line"/>
      <point x="780" y="686" type="line"/>
      <point x="780" y="526" type="line"/>
      <point x="792" y="526" type="line"/>
      <point x="722" y="627"/>
      <point x="607" y="697"/>
      <point x="445" y="697" type="curve" smooth="yes"/>
      <point x="252" y="697"/>
      <point x="81" y="597"/>
      <point x="81" y="425" type="curve" smooth="yes"/>
      <point x="81" y="254"/>
      <point x="245" y="155"/>
      <point x="437" y="155" type="curve" smooth="yes"/>
    </contour>
    <contour>
      <point x="441" y="697" type="move" name="top"/>
    </contour>
    <contour>
      <point x="441" y="155" type="move" name="bottom"/>
    </contour>
  </outline>
</glyph>
<glyph name="H" format="1">
  <advance width="1135"/>
  <unicode hex="0048"/>
  <outline>
    <contour>
      <point x="877" y="418" type="line"/>
      <point x="877" y="441" type="line"/>
      <point x="258" y="441" type="line"/>
      <point x="258" y="418" type="line"/>
    </contour>
    <contour>
      <point x="445" y="165" type="line"/>
      <point x="445" y="188" type="line"/>
      <point x="56" y="188" type="line"/>
      <point x="56" y="165" type="line"/>
    </contour>
    <contour>
      <point x="264" y="175" type="line"/>
      <point x="264" y="673" type="line"/>
      <point x="239" y="673" type="line"/>
      <point x="239" y="175" type="line"/>
    </contour>
    <contour>
      <point x="445" y="662" type="line"/>
      <point x="445" y="686" type="line"/>
      <point x="56" y="686" type="line"/>
      <point x="56" y="662" type="line"/>
    </contour>
    <contour>
      <point x="1078" y="165" type="line"/>
      <point x="1078" y="188" type="line"/>
      <point x="688" y="188" type="line"/>
      <point x="688" y="165" type="line"/>
    </contour>
    <contour>
      <point x="896" y="178" type="line"/>
      <point x="896" y="675" type="line"/>
      <point x="871" y="675" type="line"/>
      <point x="871" y="178" type="line"/>
    </contour>
    <contour>
      <point x="1078" y="662" type="line"/>
      <point x="1078" y="686" type="line"/>
      <point x="688" y="686" type="line"/>
      <point x="688" y="662" type="line"/>
    </contour>
    <contour>
      <point x="567" y="431" type="move" name="center"/>
    </contour>
    <contour>
      <point x="567" y="165" type="move" name="bottom"/>
    </contour>
    <contour>
      <point x="567" y="686" type="move" name="top"/>
    </contour>
  </outline>
</glyph>
<glyph name="I" format="1">
  <advance width="661"/>
  <unicode hex="0049"/>
  <outline>
    <contour>
      <point x="348" y="18" type="line" smooth="yes"/>
      <point x="348" y="669" type="line" smooth="yes"/>
      <point x="315" y="669" type="line" smooth="yes"/>
      <point x="315" y="18" type="line" smooth="yes"/>
    </contour>
    <contour>
      <point x="587" y="0" type="line" smooth="yes"/>
      <point x="587" y="31" type="line" smooth="yes"/>
      <point x="74" y="31" type="line" smooth="yes"/>
      <point x="74" y="0" type="line" smooth="yes"/>
    </contour>
    <contour>
      <point x="587" y="655" type="line" smooth="yes"/>
      <point x="587" y="686" type="line" smooth="yes"/>
      <point x="74" y="686" type="line" smooth="yes"/>
      <point x="74" y="655" type="line" smooth="yes"/>
    </contour>
    <contour>
      <point x="587" y="0" type="move" name="ogonek"/>
    </contour>
    <contour>
      <point x="331" y="0" type="move" name="bottom"/>
    </contour>
    <contour>
      <point x="331" y="686" type="move" name="top"/>
    </contour>
  </outline>
</glyph>
<glyph name="J" format="1">
  <advance width="862"/>
  <unicode hex="004A"/>
  <outline>
    <contour>
      <point x="503" y="-13"/>
      <point x="622" y="86"/>
      <point x="622" y="245" type="curve" smooth="yes"/>
      <point x="622" y="669" type="line"/>
      <point x="589" y="669" type="line"/>
      <point x="589" y="245" type="line" smooth="yes"/>
      <point x="589" y="90"/>
      <point x="469" y="18"/>
      <point x="329" y="18" type="curve" smooth="yes"/>
      <point x="196" y="18"/>
      <point x="101" y="95"/>
      <point x="48" y="167" type="curve"/>
      <point x="26" y="146" type="line"/>
      <point x="78" y="73"/>
      <point x="173" y="-13"/>
      <point x="329" y="-13" type="curve" smooth="yes"/>
    </contour>
    <contour>
      <point x="862" y="655" type="line"/>
      <point x="862" y="686" type="line"/>
      <point x="272" y="686" type="line"/>
      <point x="272" y="655" type="line"/>
    </contour>
    <contour>
      <point x="447" y="686" type="move" name="top"/>
    </contour>
    <contour>
      <point x="447" y="0" type="move" name="bottom"/>
    </contour>
  </outline>
</glyph>
<glyph name="K" format="1">
  <advance width="1000"/>
  <unicode hex="004B"/>
  <outline>
    <contour>
      <point x="827" y="673" type="line"/>
      <point x="787" y="673" type="line"/>
      <point x="251" y="321" type="line"/>
      <point x="251" y="295" type="line"/>
    </contour>
    <contour>
      <point x="446" y="165" type="line" smooth="yes"/>
      <point x="446" y="188" type="line" smooth="yes"/>
      <point x="56" y="188" type="line" smooth="yes"/>
      <point x="56" y="165" type="line" smooth="yes"/>
    </contour>
    <contour>
      <point x="264" y="178" type="line" smooth="yes"/>
      <point x="264" y="673" type="line" smooth="yes"/>
      <point x="239" y="673" type="line" smooth="yes"/>
      <point x="239" y="178" type="line" smooth="yes"/>
    </contour>
    <contour>
      <point x="964" y="165" type="line" smooth="yes"/>
      <point x="964" y="188" type="line" smooth="yes"/>
      <point x="612" y="188" type="line" smooth="yes"/>
      <point x="612" y="165" type="line" smooth="yes"/>
    </contour>
    <contour>
      <point x="833" y="175" type="line"/>
      <point x="483" y="460" type="line"/>
      <point x="467" y="444" type="line"/>
      <point x="797" y="175" type="line"/>
    </contour>
    <contour>
      <point x="446" y="662" type="line" smooth="yes"/>
      <point x="446" y="686" type="line" smooth="yes"/>
      <point x="56" y="686" type="line" smooth="yes"/>
      <point x="56" y="662" type="line" smooth="yes"/>
    </contour>
    <contour>
      <point x="955" y="662" type="line" smooth="yes"/>
      <point x="955" y="686" type="line" smooth="yes"/>
      <point x="602" y="686" type="line" smooth="yes"/>
      <point x="602" y="662" type="line" smooth="yes"/>
    </contour>
    <contour>
      <point x="527" y="686" type="move" name="top"/>
    </contour>
    <contour>
      <point x="527" y="165" type="move" name="bottom"/>
    </contour>
  </outline>
</glyph>
<glyph name="L" format="1">
  <advance width="839"/>
  <unicode hex="004C"/>
  <outline>
    <contour>
      <point x="789" y="0" type="line"/>
      <point x="789" y="183" type="line"/>
      <point x="764" y="183" type="line"/>
      <point x="764" y="23" type="line"/>
      <point x="56" y="23" type="line"/>
      <point x="56" y="0" type="line"/>
    </contour>
    <contour>
      <point x="263" y="13" type="line"/>
      <point x="263" y="507" type="line"/>
      <point x="238" y="507" type="line"/>
      <point x="238" y="13" type="line"/>
    </contour>
    <contour>
      <point x="445" y="497" type="line"/>
      <point x="445" y="520" type="line"/>
      <point x="56" y="520" type="line"/>
      <point x="56" y="497" type="line"/>
    </contour>
    <contour>
      <point x="449" y="0" type="move" name="bottom"/>
    </contour>
    <contour>
      <point x="237" y="520" type="move" name="top"/>
    </contour>
    <contour>
      <point x="448" y="338" type="move" name="topright"/>
    </contour>
    <contour>
      <point x="412" y="245" type="move" name="center"/>
    </contour>
  </outline>
</glyph>
<glyph name="M" format="1">
  <advance width="1241"/>
  <unicode hex="004D"/>
  <outline>
    <contour>
      <point x="623" y="154" type="line"/>
      <point x="632" y="179" type="line"/>
      <point x="264" y="686" type="line"/>
      <point x="233" y="686" type="line"/>
      <point x="618" y="154" type="line"/>
    </contour>
    <contour>
      <point x="415" y="165" type="line"/>
      <point x="415" y="188" type="line"/>
      <point x="56" y="188" type="line"/>
      <point x="56" y="165" type="line"/>
    </contour>
    <contour>
      <point x="264" y="176" type="line"/>
      <point x="264" y="619" type="line"/>
      <point x="264" y="641"/>
      <point x="264" y="665"/>
      <point x="264" y="686" type="curve"/>
      <point x="239" y="686" type="line"/>
      <point x="239" y="176" type="line"/>
    </contour>
    <contour>
      <point x="264" y="662" type="line"/>
      <point x="264" y="686" type="line"/>
      <point x="56" y="686" type="line"/>
      <point x="56" y="662" type="line"/>
    </contour>
    <contour>
      <point x="1185" y="165" type="line"/>
      <point x="1185" y="188" type="line"/>
      <point x="827" y="188" type="line"/>
      <point x="827" y="165" type="line"/>
    </contour>
    <contour>
      <point x="624" y="154" type="line"/>
      <point x="1009" y="686" type="line"/>
      <point x="977" y="686" type="line"/>
      <point x="613" y="179" type="line"/>
      <point x="619" y="154" type="line"/>
    </contour>
    <contour>
      <point x="1002" y="176" type="line"/>
      <point x="1002" y="686" type="line"/>
      <point x="977" y="686" type="line"/>
      <point x="977" y="665"/>
      <point x="977" y="641"/>
      <point x="977" y="619" type="curve"/>
      <point x="977" y="176" type="line"/>
    </contour>
    <contour>
      <point x="1185" y="662" type="line"/>
      <point x="1185" y="686" type="line"/>
      <point x="977" y="686" type="line"/>
      <point x="977" y="662" type="line"/>
    </contour>
    <contour>
      <point x="621" y="656" type="move" name="top"/>
    </contour>
    <contour>
      <point x="621" y="145" type="move" name="bottom"/>
    </contour>
  </outline>
</glyph>
<glyph name="N" format="1">
  <advance width="1461"/>
  <unicode hex="004E"/>
  <outline>
    <contour>
      <point x="1201" y="-7" type="line"/>
      <point x="1201" y="669" type="line"/>
      <point x="1168" y="669" type="line"/>
      <point x="1168" y="57" type="line"/>
      <point x="348" y="686" type="line"/>
      <point x="289" y="686" type="line"/>
      <point x="1195" y="-7" type="line"/>
    </contour>
    <contour>
      <point x="587" y="0" type="line"/>
      <point x="587" y="31" type="line"/>
      <point x="74" y="31" type="line"/>
      <point x="74" y="0" type="line"/>
    </contour>
    <contour>
      <point x="348" y="15" type="line"/>
      <point x="348" y="686" type="line"/>
      <point x="315" y="686" type="line"/>
      <point x="315" y="15" type="line"/>
    </contour>
    <contour>
      <point x="348" y="655" type="line"/>
      <point x="348" y="686" type="line"/>
      <point x="74" y="686" type="line"/>
      <point x="74" y="655" type="line"/>
    </contour>
    <contour>
      <point x="1441" y="655" type="line"/>
      <point x="1441" y="686" type="line"/>
      <point x="928" y="686" type="line"/>
      <point x="928" y="655" type="line"/>
    </contour>
    <contour>
      <point x="688" y="673" type="move" name="top"/>
    </contour>
    <contour>
      <point x="820" y="13" type="move" name="bottom"/>
    </contour>
  </outline>
</glyph>
<glyph name="O" format="1">
  <advance width="1209"/>
  <unicode hex="004F"/>
  <outline>
    <contour>
      <point x="890" y="-13"/>
      <point x="1110" y="117"/>
      <point x="1110" y="343" type="curve"/>
      <point x="1110" y="569"/>
      <point x="890" y="700"/>
      <point x="605" y="700" type="curve"/>
      <point x="319" y="700"/>
      <point x="99" y="569"/>
      <point x="99" y="343" type="curve"/>
      <point x="99" y="117"/>
      <point x="319" y="-13"/>
      <point x="605" y="-13" type="curve"/>
    </contour>
    <contour>
      <point x="332" y="18"/>
      <point x="132" y="140"/>
      <point x="132" y="343" type="curve"/>
      <point x="132" y="547"/>
      <point x="332" y="669"/>
      <point x="605" y="669" type="curve"/>
      <point x="876" y="669"/>
      <point x="1077" y="547"/>
      <point x="1077" y="343" type="curve"/>
      <point x="1077" y="140"/>
      <point x="876" y="18"/>
      <point x="605" y="18" type="curve"/>
    </contour>
    <contour>
      <point x="605" y="-13" type="move" name="bottom"/>
    </contour>
    <contour>
      <point x="607" y="-11" type="move" name="ogonek"/>
    </contour>
    <contour>
      <point x="605" y="700" type="move" name="top"/>
    </contour>
    <contour>
      <point x="1176" y="647" type="move" name="topright"/>
    </contour>
    <contour>
      <point x="605" y="323" type="move" name="center"/>
    </contour>
  </outline>
</glyph>
<glyph name="P" format="1">
  <advance width="937"/>
  <unicode hex="0050"/>
  <outline>
    <contour>
      <point x="696" y="379" type="line" smooth="yes"/>
      <point x="809" y="379"/>
      <point x="877" y="444"/>
      <point x="877" y="531" type="curve" smooth="yes"/>
      <point x="877" y="627"/>
      <point x="807" y="686"/>
      <point x="696" y="686" type="curve" smooth="yes"/>
      <point x="56" y="686" type="line"/>
      <point x="56" y="662" type="line"/>
      <point x="703" y="662" type="line" smooth="yes"/>
      <point x="793" y="662"/>
      <point x="852" y="611"/>
      <point x="852" y="531" type="curve" smooth="yes"/>
      <point x="852" y="452"/>
      <point x="789" y="403"/>
      <point x="703" y="403" type="curve" smooth="yes"/>
      <point x="252" y="403" type="line"/>
      <point x="252" y="379" type="line"/>
    </contour>
    <contour>
      <point x="457" y="165" type="line"/>
      <point x="457" y="188" type="line"/>
      <point x="56" y="188" type="line"/>
      <point x="56" y="165" type="line"/>
    </contour>
    <contour>
      <point x="264" y="178" type="line"/>
      <point x="264" y="673" type="line"/>
      <point x="239" y="673" type="line"/>
      <point x="239" y="178" type="line"/>
    </contour>
    <contour>
      <point x="463" y="686" type="move" name="top"/>
    </contour>
    <contour>
      <point x="463" y="165" type="move" name="bottom"/>
    </contour>
  </outline>
</glyph>
<glyph name="Q" format="1">
  <advance width="920"/>
  <unicode hex="0051"/>
  <outline>
    <contour>
      <point x="676" y="155"/>
      <point x="844" y="254"/>
      <point x="844" y="425" type="curve"/>
      <point x="844" y="597"/>
      <point x="676" y="697"/>
      <point x="460" y="697" type="curve"/>
      <point x="242" y="697"/>
      <point x="75" y="597"/>
      <point x="75" y="425" type="curve"/>
      <point x="75" y="254"/>
      <point x="242" y="155"/>
      <point x="460" y="155" type="curve"/>
    </contour>
    <contour>
      <point x="831" y="6"/>
      <point x="894" y="65"/>
      <point x="904" y="151" type="curve"/>
      <point x="882" y="156" type="line"/>
      <point x="872" y="78"/>
      <point x="816" y="29"/>
      <point x="738" y="29" type="curve" smooth="yes"/>
      <point x="660" y="29"/>
      <point x="603" y="84"/>
      <point x="535" y="166" type="curve" smooth="yes"/>
      <point x="517" y="188" type="line" smooth="yes"/>
      <point x="423" y="299"/>
      <point x="356" y="389"/>
      <point x="180" y="389" type="curve" smooth="yes"/>
      <point x="99" y="389" type="line"/>
      <point x="99" y="365" type="line"/>
      <point x="180" y="365" type="line" smooth="yes"/>
      <point x="342" y="365"/>
      <point x="410" y="279"/>
      <point x="492" y="181" type="curve" smooth="yes"/>
      <point x="505" y="165" type="line" smooth="yes"/>
      <point x="587" y="65"/>
      <point x="646" y="6"/>
      <point x="738" y="6" type="curve" smooth="yes"/>
    </contour>
    <contour>
      <point x="252" y="178"/>
      <point x="100" y="271"/>
      <point x="100" y="425" type="curve"/>
      <point x="100" y="580"/>
      <point x="252" y="673"/>
      <point x="460" y="673" type="curve"/>
      <point x="666" y="673"/>
      <point x="819" y="580"/>
      <point x="819" y="425" type="curve"/>
      <point x="819" y="271"/>
      <point x="666" y="178"/>
      <point x="460" y="178" type="curve"/>
    </contour>
    <contour>
      <point x="458" y="697" type="move" name="top"/>
    </contour>
    <contour>
      <point x="458" y="155" type="move" name="bottom"/>
    </contour>
  </outline>
</glyph>
<glyph name="S" format="1">
  <advance width="1144"/>
  <unicode hex="0053"/>
  <outline>
    <contour>
      <point x="889" y="-13"/>
      <point x="1025" y="45"/>
      <point x="1025" y="164" type="curve" smooth="yes"/>
      <point x="1025" y="288"/>
      <point x="897" y="329"/>
      <point x="581" y="354" type="curve" smooth="yes"/>
      <point x="286" y="377"/>
      <point x="187" y="417"/>
      <point x="187" y="509" type="curve" smooth="yes"/>
      <point x="187" y="618"/>
      <point x="308" y="669"/>
      <point x="491" y="669" type="curve" smooth="yes"/>
      <point x="712" y="669"/>
      <point x="858" y="586"/>
      <point x="971" y="454" type="curve"/>
      <point x="979" y="457" type="line"/>
      <point x="979" y="686" type="line"/>
      <point x="948" y="686" type="line"/>
      <point x="948" y="499" type="line"/>
      <point x="968" y="499" type="line"/>
      <point x="879" y="598"/>
      <point x="737" y="700"/>
      <point x="494" y="700" type="curve" smooth="yes"/>
      <point x="279" y="700"/>
      <point x="154" y="633"/>
      <point x="154" y="509" type="curve" smooth="yes"/>
      <point x="154" y="403"/>
      <point x="256" y="344"/>
      <point x="580" y="322" type="curve" smooth="yes"/>
      <point x="878" y="301"/>
      <point x="994" y="265"/>
      <point x="994" y="164" type="curve" smooth="yes"/>
      <point x="994" y="62"/>
      <point x="867" y="18"/>
      <point x="704" y="18" type="curve" smooth="yes"/>
      <point x="507" y="18"/>
      <point x="278" y="97"/>
      <point x="160" y="233" type="curve"/>
      <point x="152" y="231" type="line"/>
      <point x="152" y="0" type="line"/>
      <point x="183" y="0" type="line"/>
      <point x="183" y="185" type="line"/>
      <point x="163" y="185" type="line"/>
      <point x="259" y="86"/>
      <point x="475" y="-13"/>
      <point x="702" y="-13" type="curve" smooth="yes"/>
    </contour>
    <contour>
      <point x="594" y="700" type="move" name="top"/>
    </contour>
    <contour>
      <point x="620" y="-13" type="move" name="bottom"/>
    </contour>
  </outline>
</glyph>
<glyph name="T" format="1">
  <advance width="955"/>
  <unicode hex="0054"/>
  <outline>
    <contour>
      <point x="116" y="502" type="line"/>
      <point x="116" y="663" type="line"/>
      <point x="839" y="663" type="line"/>
      <point x="839" y="502" type="line"/>
      <point x="864" y="502" type="line"/>
      <point x="864" y="686" type="line"/>
      <point x="90" y="686" type="line"/>
      <point x="90" y="502" type="line"/>
    </contour>
    <contour>
      <point x="682" y="165" type="line"/>
      <point x="682" y="188" type="line"/>
      <point x="272" y="188" type="line"/>
      <point x="272" y="165" type="line"/>
    </contour>
    <contour>
      <point x="490" y="178" type="line"/>
      <point x="490" y="673" type="line"/>
      <point x="465" y="673" type="line"/>
      <point x="465" y="178" type="line"/>
    </contour>
    <contour>
      <point x="477" y="410" type="move" name="center"/>
    </contour>
    <contour>
      <point x="477" y="165" type="move" name="bottom"/>
    </contour>
    <contour>
      <point x="477" y="686" type="move" name="top"/>
    </contour>
  </outline>
</glyph>
<glyph name="U" format="1">
  <advance width="1321"/>
  <unicode hex="0055"/>
  <outline>
    <contour>
      <point x="916" y="-13"/>
      <point x="1081" y="105"/>
      <point x="1081" y="336" type="curve" smooth="yes"/>
      <point x="1081" y="669" type="line"/>
      <point x="1052" y="669" type="line"/>
      <point x="1048" y="319" type="line" smooth="yes"/>
      <point x="1045" y="118"/>
      <point x="891" y="18"/>
      <point x="661" y="18" type="curve"/>
      <point x="430" y="18"/>
      <point x="276" y="118"/>
      <point x="273" y="321" type="curve" smooth="yes"/>
      <point x="270" y="669" type="line"/>
      <point x="240" y="669" type="line"/>
      <point x="240" y="336" type="line" smooth="yes"/>
      <point x="240" y="105"/>
      <point x="407" y="-13"/>
      <point x="661" y="-13" type="curve"/>
    </contour>
    <contour>
      <point x="509" y="655" type="line"/>
      <point x="509" y="686" type="line"/>
      <point x="0" y="686" type="line"/>
      <point x="0" y="655" type="line"/>
    </contour>
    <contour>
      <point x="1321" y="655" type="line"/>
      <point x="1321" y="686" type="line"/>
      <point x="812" y="686" type="line"/>
      <point x="812" y="655" type="line"/>
    </contour>
    <contour>
      <point x="661" y="-13" type="move" name="ogonek"/>
    </contour>
    <contour>
      <point x="661" y="673" type="move" name="top"/>
    </contour>
    <contour>
      <point x="1309" y="647" type="move" name="topright"/>
    </contour>
    <contour>
      <point x="661" y="-13" type="move" name="bottom"/>
    </contour>
  </outline>
</glyph>
<glyph name="V" format="1">
  <advance width="939"/>
  <unicode hex="0056"/>
  <outline>
    <contour>
      <point x="-5" y="686" type="line"/>
      <point x="-5" y="662" type="line"/>
      <point x="333" y="662" type="line"/>
      <point x="333" y="686" type="line"/>
    </contour>
    <contour>
      <point x="606" y="686" type="line"/>
      <point x="606" y="662" type="line"/>
      <point x="944" y="662" type="line"/>
      <point x="944" y="686" type="line"/>
    </contour>
    <contour>
      <point x="473" y="155" type="line"/>
      <point x="789" y="673" type="line"/>
      <point x="761" y="673" type="line"/>
      <point x="470" y="195" type="line"/>
      <point x="182" y="673" type="line"/>
      <point x="150" y="673" type="line"/>
      <point x="467" y="155" type="line"/>
    </contour>
    <contour>
      <point x="470" y="656" type="move" name="top"/>
    </contour>
    <contour>
      <point x="470" y="155" type="move" name="bottom"/>
    </contour>
  </outline>
</glyph>
<glyph name="W" format="1">
  <advance width="1599"/>
  <unicode hex="0057"/>
  <outline>
    <contour>
      <point x="490" y="-13" type="line"/>
      <point x="501" y="28" type="line"/>
      <point x="238" y="669" type="line"/>
      <point x="199" y="669" type="line"/>
      <point x="482" y="-13" type="line"/>
    </contour>
    <contour>
      <point x="493" y="-13" type="line"/>
      <point x="816" y="634" type="line"/>
      <point x="801" y="669" type="line"/>
      <point x="796" y="669" type="line"/>
      <point x="477" y="25" type="line"/>
      <point x="487" y="-13" type="line"/>
    </contour>
    <contour>
      <point x="1110" y="-13" type="line"/>
      <point x="1121" y="28" type="line"/>
      <point x="806" y="669" type="line"/>
      <point x="799" y="669" type="line"/>
      <point x="785" y="634" type="line"/>
      <point x="1104" y="-13" type="line"/>
    </contour>
    <contour>
      <point x="1114" y="-13" type="line"/>
      <point x="1399" y="669" type="line"/>
      <point x="1361" y="669" type="line"/>
      <point x="1100" y="28" type="line"/>
      <point x="1109" y="-13" type="line"/>
    </contour>
    <contour>
      <point x="1162" y="686" type="line"/>
      <point x="1162" y="655" type="line"/>
      <point x="1606" y="655" type="line"/>
      <point x="1606" y="686" type="line"/>
    </contour>
    <contour>
      <point x="-7" y="655" type="line"/>
      <point x="438" y="655" type="line"/>
      <point x="438" y="686" type="line"/>
      <point x="-7" y="686" type="line"/>
    </contour>
    <contour>
      <point x="832" y="686" type="move" name="top"/>
    </contour>
    <contour>
      <point x="823" y="0" type="move" name="bottom"/>
    </contour>
  </outline>
</glyph>
<glyph name="X" format="1">
  <advance width="1254"/>
  <unicode hex="0058"/>
  <outline>
    <contour>
      <point x="1195" y="0" type="line"/>
      <point x="1195" y="31" type="line"/>
      <point x="971" y="31" type="line"/>
      <point x="955" y="31" type="line"/>
      <point x="751" y="31" type="line"/>
      <point x="751" y="0" type="line"/>
    </contour>
    <contour>
      <point x="503" y="0" type="line"/>
      <point x="503" y="31" type="line"/>
      <point x="304" y="31" type="line"/>
      <point x="284" y="31" type="line"/>
      <point x="59" y="31" type="line"/>
      <point x="59" y="0" type="line"/>
    </contour>
    <contour>
      <point x="1002" y="15" type="line"/>
      <point x="641" y="344" type="line"/>
      <point x="638" y="344" type="line"/>
      <point x="283" y="669" type="line"/>
      <point x="233" y="669" type="line"/>
      <point x="613" y="325" type="line"/>
      <point x="616" y="325" type="line"/>
      <point x="953" y="15" type="line"/>
    </contour>
    <contour>
      <point x="301" y="15" type="line"/>
      <point x="638" y="325" type="line"/>
      <point x="641" y="325" type="line"/>
      <point x="1021" y="669" type="line"/>
      <point x="975" y="669" type="line"/>
      <point x="619" y="344" type="line"/>
      <point x="615" y="344" type="line"/>
      <point x="255" y="15" type="line"/>
    </contour>
    <contour>
      <point x="262" y="655" type="line"/>
      <point x="278" y="655" type="line"/>
      <point x="504" y="655" type="line"/>
      <point x="504" y="686" type="line" smooth="yes"/>
      <point x="59" y="686" type="line"/>
      <point x="59" y="655" type="line"/>
    </contour>
    <contour>
      <point x="975" y="655" type="line"/>
      <point x="992" y="655" type="line"/>
      <point x="1195" y="655" type="line"/>
      <point x="1195" y="686" type="line"/>
      <point x="750" y="686" type="line" smooth="yes"/>
      <point x="750" y="655" type="line"/>
    </contour>
    <contour>
      <point x="627" y="647" type="move" name="top"/>
    </contour>
    <contour>
      <point x="627" y="0" type="move" name="bottom"/>
    </contour>
  </outline>
</glyph>
<glyph name="Y" format="1">
  <advance width="1214"/>
  <unicode hex="0059"/>
  <outline>
    <contour>
      <point x="619" y="235" type="line"/>
      <point x="1009" y="671" type="line"/>
      <point x="965" y="671" type="line"/>
      <point x="608" y="272" type="line"/>
      <point x="256" y="667" type="line"/>
      <point x="209" y="667" type="line"/>
      <point x="595" y="235" type="line"/>
    </contour>
    <contour>
      <point x="865" y="0" type="line"/>
      <point x="865" y="31" type="line"/>
      <point x="351" y="31" type="line"/>
      <point x="351" y="0" type="line"/>
    </contour>
    <contour>
      <point x="625" y="0" type="line"/>
      <point x="625" y="270" type="line"/>
      <point x="592" y="270" type="line"/>
      <point x="592" y="0" type="line"/>
    </contour>
    <contour>
      <point x="451" y="655" type="line"/>
      <point x="451" y="686" type="line"/>
      <point x="7" y="686" type="line"/>
      <point x="7" y="655" type="line"/>
    </contour>
    <contour>
      <point x="1208" y="655" type="line"/>
      <point x="1208" y="686" type="line"/>
      <point x="765" y="686" type="line"/>
      <point x="765" y="655" type="line"/>
    </contour>
    <contour>
      <point x="607" y="673" type="move" name="top"/>
    </contour>
    <contour>
      <point x="607" y="0" type="move" name="bottom"/>
    </contour>
  </outline>
</glyph>
<glyph name="Z" format="1">
  <advance width="1140"/>
  <unicode hex="005A"/>
  <outline>
    <contour>
      <point x="1008" y="0" type="line"/>
      <point x="1008" y="242" type="line"/>
      <point x="975" y="242" type="line"/>
      <point x="975" y="31" type="line"/>
      <point x="235" y="31" type="line" smooth="yes"/>
      <point x="218" y="31"/>
      <point x="204" y="26"/>
      <point x="197" y="25" type="curve"/>
      <point x="197" y="26" type="line"/>
      <point x="204" y="29"/>
      <point x="217" y="34"/>
      <point x="229" y="44" type="curve" smooth="yes"/>
      <point x="1002" y="669" type="line"/>
      <point x="1002" y="686" type="line"/>
      <point x="139" y="686" type="line"/>
      <point x="139" y="444" type="line"/>
      <point x="172" y="444" type="line"/>
      <point x="172" y="656" type="line"/>
      <point x="906" y="656" type="line" smooth="yes"/>
      <point x="928" y="656"/>
      <point x="945" y="660"/>
      <point x="950" y="661" type="curve"/>
      <point x="950" y="660" type="line"/>
      <point x="945" y="659"/>
      <point x="930" y="651"/>
      <point x="915" y="639" type="curve" smooth="yes"/>
      <point x="143" y="18" type="line"/>
      <point x="143" y="0" type="line"/>
    </contour>
    <contour>
      <point x="573" y="686" type="move" name="top"/>
    </contour>
    <contour>
      <point x="573" y="0" type="move" name="bottom"/>
    </contour>
  </outline>
</glyph>
<glyph name="bracketleft" format="1">
  <advance width="370"/>
  <unicode hex="005B"/>
  <outline>
    <contour>
      <point x="156" y="89" type="line"/>
      <point x="181" y="89" type="line"/>
      <point x="181" y="771" type="line"/>
      <point x="156" y="771" type="line"/>
    </contour>
    <contour>
      <point x="157" y="748" type="line"/>
      <point x="381" y="748" type="line"/>
      <point x="381" y="771" type="line"/>
      <point x="157" y="771" type="line"/>
    </contour>
    <contour>
      <point x="157" y="89" type="line"/>
      <point x="381" y="89" type="line"/>
      <point x="381" y="111" type="line"/>
      <point x="157" y="111" type="line"/>
    </contour>
  </outline>
</glyph>
<glyph name="backslash" format="1">
  <advance width="418"/>
  <unicode hex="005C"/>
  <outline>
    <contour>
      <point x="397" y="85" type="line"/>
      <point x="53" y="727" type="line"/>
      <point x="25" y="727" type="line"/>
      <point x="369" y="85" type="line"/>
    </contour>
  </outline>
</glyph>
<glyph name="bracketright" format="1">
  <advance width="370"/>
  <unicode hex="005D"/>
  <outline>
    <contour>
      <point x="215" y="89" type="line"/>
      <point x="215" y="771" type="line"/>
      <point x="190" y="771" type="line"/>
      <point x="190" y="89" type="line"/>
    </contour>
    <contour>
      <point x="212" y="89" type="line"/>
      <point x="212" y="111" type="line"/>
      <point x="-10" y="111" type="line"/>
      <point x="-10" y="89" type="line"/>
    </contour>
    <contour>
      <point x="212" y="748" type="line"/>
      <point x="212" y="771" type="line"/>
      <point x="-10" y="771" type="line"/>
      <point x="-10" y="748" type="line"/>
    </contour>
  </outline>
</glyph>
<glyph name="asciicircum" format="1">
  <advance width="458"/>
  <unicode hex="005E"/>
  <outline>
    <contour>
      <point x="233" y="783" type="line"/>
      <point x="226" y="760" type="line"/>
      <point x="382" y="491" type="line"/>
      <point x="408" y="491" type="line"/>
      <point x="236" y="783" type="line"/>
    </contour>
    <contour>
      <point x="233" y="783" type="line"/>
      <point x="50" y="491" type="line"/>
      <point x="77" y="491" type="line"/>
      <point x="242" y="760" type="line"/>
      <point x="236" y="783" type="line"/>
    </contour>
  </outline>
</glyph>
<glyph name="underscore" format="1">
  <advance width="401"/>
  <unicode hex="005F"/>
  <outline>
    <contour>
      <point x="-10" y="98" type="line"/>
      <point x="-10" y="73" type="line"/>
      <point x="411" y="73" type="line"/>
      <point x="411" y="98" type="line"/>
    </contour>
  </outline>
</glyph>
<glyph name="b" format="1">
  <advance width="1135"/>
  <unicode hex="0062"/>
  <outline>
    <contour>
      <point x="844" y="-13"/>
      <point x="1029" y="88"/>
      <point x="1029" y="257" type="curve"/>
      <point x="1029" y="400"/>
      <point x="903" y="484"/>
      <point x="714" y="484" type="curve"/>
      <point x="542" y="484"/>
      <point x="382" y="400"/>
      <point x="229" y="289" type="curve"/>
      <point x="229" y="258" type="line"/>
      <point x="394" y="374"/>
      <point x="563" y="453"/>
      <point x="714" y="453" type="curve"/>
      <point x="890" y="453"/>
      <point x="996" y="374"/>
      <point x="996" y="257" type="curve"/>
      <point x="996" y="112"/>
      <point x="829" y="15"/>
      <point x="628" y="18" type="curve"/>
      <point x="471" y="15"/>
      <point x="322" y="73"/>
      <point x="224" y="125" type="curve"/>
      <point x="224" y="97" type="line"/>
      <point x="319" y="42"/>
      <point x="458" y="-13"/>
      <point x="628" y="-13" type="curve"/>
    </contour>
    <contour>
      <point x="238" y="0" type="line"/>
      <point x="246" y="98" type="line"/>
      <point x="246" y="686" type="line"/>
      <point x="213" y="686" type="line"/>
      <point x="213" y="0" type="line"/>
    </contour>
    <contour>
      <point x="235" y="655" type="line"/>
      <point x="235" y="686" type="line"/>
      <point x="-26" y="686" type="line"/>
      <point x="-26" y="655" type="line"/>
    </contour>
    <contour>
      <point x="583" y="484" type="move" name="top"/>
    </contour>
    <contour>
      <point x="583" y="-13" type="move" name="bottom"/>
    </contour>
  </outline>
</glyph>
<glyph name="c" format="1">
  <advance width="1021"/>
  <unicode hex="0063"/>
  <outline>
    <contour>
      <point x="660" y="-12"/>
      <point x="791" y="44"/>
      <point x="895" y="127" type="curve"/>
      <point x="876" y="151" type="line"/>
      <point x="778" y="74"/>
      <point x="646" y="18"/>
      <point x="482" y="19" type="curve" smooth="yes"/>
      <point x="288" y="20"/>
      <point x="139" y="103"/>
      <point x="139" y="227" type="curve" smooth="yes"/>
      <point x="139" y="377"/>
      <point x="319" y="454"/>
      <point x="495" y="453" type="curve" smooth="yes"/>
      <point x="639" y="453"/>
      <point x="791" y="404"/>
      <point x="879" y="290" type="curve"/>
      <point x="887" y="292" type="line"/>
      <point x="887" y="471" type="line"/>
      <point x="856" y="471" type="line"/>
      <point x="856" y="339" type="line"/>
      <point x="872" y="332" type="line"/>
      <point x="805" y="416"/>
      <point x="661" y="484"/>
      <point x="497" y="484" type="curve" smooth="yes"/>
      <point x="306" y="486"/>
      <point x="106" y="400"/>
      <point x="106" y="227" type="curve" smooth="yes"/>
      <point x="106" y="77"/>
      <point x="275" y="-12"/>
      <point x="482" y="-12" type="curve" smooth="yes"/>
    </contour>
    <contour>
      <point x="497" y="484" type="move" name="top"/>
    </contour>
    <contour>
      <point x="483" y="-13" type="move" name="bottom"/>
    </contour>
  </outline>
</glyph>
<glyph name="e" format="1">
  <advance width="991"/>
  <unicode hex="0065"/>
  <outline>
    <contour>
      <point x="667" y="-13"/>
      <point x="779" y="29"/>
      <point x="879" y="91" type="curve"/>
      <point x="864" y="118" type="line"/>
      <point x="767" y="57"/>
      <point x="652" y="15"/>
      <point x="488" y="18" type="curve" smooth="yes"/>
      <point x="288" y="19"/>
      <point x="139" y="101"/>
      <point x="139" y="226" type="curve" smooth="yes"/>
      <point x="139" y="370"/>
      <point x="332" y="453"/>
      <point x="528" y="453" type="curve" smooth="yes"/>
      <point x="713" y="453"/>
      <point x="827" y="408"/>
      <point x="827" y="330" type="curve" smooth="yes"/>
      <point x="827" y="246"/>
      <point x="704" y="216"/>
      <point x="546" y="216" type="curve" smooth="yes"/>
      <point x="403" y="216"/>
      <point x="271" y="239"/>
      <point x="131" y="286" type="curve"/>
      <point x="132" y="259" type="line"/>
      <point x="271" y="211"/>
      <point x="403" y="185"/>
      <point x="546" y="185" type="curve" smooth="yes"/>
      <point x="724" y="185"/>
      <point x="860" y="227"/>
      <point x="860" y="330" type="curve" smooth="yes"/>
      <point x="860" y="427"/>
      <point x="727" y="484"/>
      <point x="528" y="484" type="curve" smooth="yes"/>
      <point x="317" y="484"/>
      <point x="106" y="392"/>
      <point x="106" y="226" type="curve" smooth="yes"/>
      <point x="106" y="75"/>
      <point x="275" y="-13"/>
      <point x="488" y="-13" type="curve" smooth="yes"/>
    </contour>
    <contour>
      <point x="879" y="91" type="move" name="ogonek"/>
    </contour>
    <contour>
      <point x="488" y="-13" type="move" name="bottom"/>
    </contour>
    <contour>
      <point x="496" y="484" type="move" name="top"/>
    </contour>
  </outline>
</glyph>
<glyph name="f" format="1">
  <advance width="556"/>
  <unicode hex="0066"/>
  <outline>
    <contour>
      <point x="236" y="165" type="line"/>
      <point x="236" y="555" type="line"/>
      <point x="236" y="651"/>
      <point x="277" y="698"/>
      <point x="375" y="698" type="curve" smooth="yes"/>
      <point x="432" y="698"/>
      <point x="498" y="683"/>
      <point x="548" y="663" type="curve"/>
      <point x="556" y="686" type="line"/>
      <point x="506" y="702"/>
      <point x="441" y="722"/>
      <point x="376" y="722" type="curve" smooth="yes"/>
      <point x="261" y="722"/>
      <point x="211" y="660"/>
      <point x="211" y="551" type="curve"/>
      <point x="211" y="165" type="line"/>
    </contour>
    <contour>
      <point x="443" y="165" type="line"/>
      <point x="443" y="188" type="line"/>
      <point x="50" y="188" type="line"/>
      <point x="50" y="165" type="line"/>
    </contour>
    <contour>
      <point x="461" y="499" type="line"/>
      <point x="461" y="523" type="line"/>
      <point x="50" y="523" type="line"/>
      <point x="50" y="499" type="line"/>
    </contour>
  </outline>
</glyph>
<glyph name="g" format="1">
  <advance width="997"/>
  <unicode hex="0067"/>
  <outline>
    <contour>
      <point x="717" y="-218"/>
      <point x="911" y="-160"/>
      <point x="911" y="-40" type="curve" smooth="yes"/>
      <point x="911" y="41"/>
      <point x="832" y="78"/>
      <point x="732" y="78" type="curve" smooth="yes"/>
      <point x="633" y="78"/>
      <point x="416" y="34"/>
      <point x="315" y="34" type="curve" smooth="yes"/>
      <point x="177" y="34"/>
      <point x="133" y="84"/>
      <point x="133" y="124" type="curve" smooth="yes"/>
      <point x="133" y="179"/>
      <point x="196" y="210"/>
      <point x="242" y="226" type="curve"/>
      <point x="217" y="238" type="line"/>
      <point x="171" y="224"/>
      <point x="103" y="186"/>
      <point x="103" y="120" type="curve" smooth="yes"/>
      <point x="103" y="74"/>
      <point x="143" y="6"/>
      <point x="311" y="6" type="curve" smooth="yes"/>
      <point x="417" y="6"/>
      <point x="627" y="47"/>
      <point x="732" y="47" type="curve" smooth="yes"/>
      <point x="818" y="47"/>
      <point x="878" y="22"/>
      <point x="878" y="-40" type="curve" smooth="yes"/>
      <point x="878" y="-141"/>
      <point x="697" y="-187"/>
      <point x="460" y="-187" type="curve" smooth="yes"/>
      <point x="219" y="-187"/>
      <point x="125" y="-132"/>
      <point x="125" y="-61" type="curve" smooth="yes"/>
      <point x="125" y="-19"/>
      <point x="160" y="19"/>
      <point x="204" y="33" type="curve"/>
      <point x="179" y="45" type="line"/>
      <point x="144" y="32"/>
      <point x="92" y="-9"/>
      <point x="92" y="-65" type="curve" smooth="yes"/>
      <point x="92" y="-152"/>
      <point x="200" y="-218"/>
      <point x="462" y="-218" type="curve" smooth="yes"/>
    </contour>
    <contour>
      <point x="675" y="143"/>
      <point x="831" y="197"/>
      <point x="831" y="315" type="curve"/>
      <point x="831" y="431"/>
      <point x="675" y="484"/>
      <point x="496" y="484" type="curve"/>
      <point x="318" y="484"/>
      <point x="164" y="431"/>
      <point x="164" y="315" type="curve"/>
      <point x="164" y="197"/>
      <point x="318" y="140"/>
      <point x="496" y="143" type="curve"/>
    </contour>
    <contour>
      <point x="334" y="174"/>
      <point x="197" y="222"/>
      <point x="197" y="315" type="curve"/>
      <point x="197" y="409"/>
      <point x="334" y="453"/>
      <point x="496" y="453" type="curve"/>
      <point x="661" y="453"/>
      <point x="798" y="409"/>
      <point x="798" y="315" type="curve"/>
      <point x="798" y="222"/>
      <point x="661" y="174"/>
      <point x="496" y="174" type="curve"/>
    </contour>
    <contour>
      <point x="772" y="515"/>
      <point x="833" y="552"/>
      <point x="909" y="556" type="curve"/>
      <point x="909" y="589" type="line"/>
      <point x="823" y="585"/>
      <point x="752" y="529"/>
      <point x="734" y="429" type="curve"/>
      <point x="748" y="408" type="line"/>
    </contour>
    <contour>
      <point x="496" y="497" type="move" name="top"/>
    </contour>
    <contour>
      <point x="484" y="-217" type="move" name="bottom"/>
    </contour>
  </outline>
</glyph>
<glyph name="h" format="1">
  <advance width="940"/>
  <unicode hex="0068"/>
  <outline>
    <contour>
      <point x="754" y="165" type="line"/>
      <point x="754" y="300" type="line"/>
      <point x="754" y="422"/>
      <point x="705" y="532"/>
      <point x="549" y="532" type="curve" smooth="yes"/>
      <point x="412" y="532"/>
      <point x="290" y="429"/>
      <point x="225" y="376" type="curve"/>
      <point x="225" y="353" type="line"/>
      <point x="290" y="404"/>
      <point x="412" y="509"/>
      <point x="549" y="509" type="curve" smooth="yes"/>
      <point x="695" y="509"/>
      <point x="729" y="402"/>
      <point x="729" y="300" type="curve"/>
      <point x="729" y="165" type="line"/>
    </contour>
    <contour>
      <point x="398" y="165" type="line"/>
      <point x="398" y="188" type="line"/>
      <point x="30" y="188" type="line"/>
      <point x="30" y="165" type="line"/>
    </contour>
    <contour>
      <point x="239" y="165" type="line"/>
      <point x="239" y="686" type="line"/>
      <point x="31" y="686" type="line"/>
      <point x="31" y="662" type="line"/>
      <point x="214" y="662" type="line"/>
      <point x="214" y="165" type="line"/>
    </contour>
    <contour>
      <point x="927" y="165" type="line"/>
      <point x="927" y="188" type="line"/>
      <point x="568" y="188" type="line"/>
      <point x="568" y="165" type="line"/>
    </contour>
    <contour>
      <point x="467" y="345" type="move" name="center"/>
    </contour>
    <contour>
      <point x="467" y="165" type="move" name="bottom"/>
    </contour>
    <contour>
      <point x="467" y="532" type="move" name="top"/>
    </contour>
  </outline>
</glyph>
<glyph name="i" format="1">
  <advance width="470"/>
  <unicode hex="0069"/>
  <outline>
    <contour>
      <point x="258" y="165" type="line"/>
      <point x="258" y="523" type="line"/>
      <point x="233" y="523" type="line"/>
      <point x="233" y="165" type="line"/>
    </contour>
    <contour>
      <point x="441" y="165" type="line"/>
      <point x="441" y="188" type="line"/>
      <point x="50" y="188" type="line"/>
      <point x="50" y="165" type="line"/>
    </contour>
    <contour>
      <point x="258" y="499" type="line"/>
      <point x="258" y="523" type="line"/>
      <point x="50" y="523" type="line"/>
      <point x="50" y="499" type="line"/>
    </contour>
    <contour>
      <point x="266" y="635"/>
      <point x="282" y="648"/>
      <point x="282" y="665" type="curve"/>
      <point x="282" y="683"/>
      <point x="266" y="697"/>
      <point x="235" y="697" type="curve"/>
      <point x="205" y="697"/>
      <point x="187" y="683"/>
      <point x="187" y="665" type="curve"/>
      <point x="187" y="648"/>
      <point x="205" y="635"/>
      <point x="235" y="635" type="curve"/>
    </contour>
    <contour>
      <point x="411" y="175" type="move" name="ogonek"/>
    </contour>
    <contour>
      <point x="217" y="165" type="move" name="bottom"/>
    </contour>
    <contour>
      <point x="227" y="523" type="move" name="top"/>
    </contour>
  </outline>
</glyph>
<glyph name="j" format="1">
  <advance width="445"/>
  <unicode hex="006A"/>
  <outline>
    <contour>
      <point x="220" y="-16"/>
      <point x="270" y="45"/>
      <point x="270" y="143" type="curve" smooth="yes"/>
      <point x="270" y="510" type="line"/>
      <point x="245" y="510" type="line"/>
      <point x="245" y="141" type="line" smooth="yes"/>
      <point x="245" y="54"/>
      <point x="202" y="7"/>
      <point x="126" y="7" type="curve" smooth="yes"/>
      <point x="80" y="7"/>
      <point x="34" y="18"/>
      <point x="-8" y="31" type="curve"/>
      <point x="-15" y="9" type="line"/>
      <point x="27" y="-4"/>
      <point x="74" y="-16"/>
      <point x="125" y="-16" type="curve" smooth="yes"/>
    </contour>
    <contour>
      <point x="270" y="499" type="line"/>
      <point x="270" y="523" type="line"/>
      <point x="62" y="523" type="line"/>
      <point x="62" y="499" type="line"/>
    </contour>
    <contour>
      <point x="279" y="635"/>
      <point x="295" y="648"/>
      <point x="295" y="665" type="curve"/>
      <point x="295" y="683"/>
      <point x="279" y="697"/>
      <point x="248" y="697" type="curve"/>
      <point x="217" y="697"/>
      <point x="200" y="683"/>
      <point x="200" y="665" type="curve"/>
      <point x="200" y="648"/>
      <point x="217" y="635"/>
      <point x="248" y="635" type="curve"/>
    </contour>
    <contour>
      <point x="211" y="523" type="move" name="top"/>
    </contour>
    <contour>
      <point x="211" y="165" type="move" name="bottom"/>
    </contour>
  </outline>
</glyph>
<glyph name="l" format="1">
  <advance width="592"/>
  <unicode hex="006C"/>
  <outline>
    <contour>
      <point x="312" y="0" type="line"/>
      <point x="312" y="686" type="line"/>
      <point x="279" y="686" type="line"/>
      <point x="279" y="0" type="line"/>
    </contour>
    <contour>
      <point x="553" y="0" type="line"/>
      <point x="553" y="31" type="line"/>
      <point x="40" y="31" type="line"/>
      <point x="40" y="0" type="line"/>
    </contour>
    <contour>
      <point x="312" y="655" type="line"/>
      <point x="312" y="686" type="line"/>
      <point x="40" y="686" type="line"/>
      <point x="40" y="655" type="line"/>
    </contour>
    <contour>
      <point x="279" y="0" type="move" name="bottom"/>
    </contour>
    <contour>
      <point x="279" y="686" type="move" name="top"/>
    </contour>
    <contour>
      <point x="370" y="444" type="move" name="topright"/>
    </contour>
    <contour>
      <point x="279" y="374" type="move" name="center"/>
    </contour>
  </outline>
</glyph>
<glyph name="m" format="1">
  <advance width="1662"/>
  <unicode hex="006D"/>
  <outline>
    <contour>
      <point x="339" y="440" type="line"/>
      <point x="339" y="471" type="line"/>
      <point x="66" y="471" type="line"/>
      <point x="66" y="440" type="line"/>
    </contour>
    <contour>
      <point x="339" y="0" type="line"/>
      <point x="339" y="471" type="line"/>
      <point x="306" y="471" type="line"/>
      <point x="306" y="0" type="line"/>
    </contour>
    <contour>
      <point x="517" y="0" type="line"/>
      <point x="517" y="31" type="line"/>
      <point x="66" y="31" type="line"/>
      <point x="66" y="0" type="line"/>
    </contour>
    <contour>
      <point x="871" y="0" type="line"/>
      <point x="871" y="206" type="line"/>
      <point x="871" y="367"/>
      <point x="820" y="484"/>
      <point x="651" y="484" type="curve" smooth="yes"/>
      <point x="508" y="484"/>
      <point x="395" y="383"/>
      <point x="322" y="278" type="curve"/>
      <point x="322" y="248" type="line"/>
      <point x="414" y="354"/>
      <point x="508" y="453"/>
      <point x="651" y="453" type="curve" smooth="yes"/>
      <point x="806" y="453"/>
      <point x="839" y="341"/>
      <point x="839" y="206" type="curve"/>
      <point x="839" y="0" type="line"/>
    </contour>
    <contour>
      <point x="1049" y="0" type="line"/>
      <point x="1049" y="31" type="line"/>
      <point x="661" y="31" type="line"/>
      <point x="661" y="0" type="line"/>
    </contour>
    <contour>
      <point x="1405" y="0" type="line"/>
      <point x="1405" y="206" type="line"/>
      <point x="1405" y="367"/>
      <point x="1352" y="484"/>
      <point x="1183" y="484" type="curve" smooth="yes"/>
      <point x="1041" y="484"/>
      <point x="926" y="383"/>
      <point x="854" y="278" type="curve"/>
      <point x="854" y="248" type="line"/>
      <point x="945" y="354"/>
      <point x="1041" y="453"/>
      <point x="1183" y="453" type="curve" smooth="yes"/>
      <point x="1340" y="453"/>
      <point x="1372" y="341"/>
      <point x="1372" y="206" type="curve"/>
      <point x="1372" y="0" type="line"/>
    </contour>
    <contour>
      <point x="1645" y="0" type="line"/>
      <point x="1645" y="31" type="line"/>
      <point x="1194" y="31" type="line"/>
      <point x="1194" y="0" type="line"/>
    </contour>
    <contour>
      <point x="851" y="484" type="move" name="top"/>
    </contour>
    <contour>
      <point x="851" y="0" type="move" name="bottom"/>
    </contour>
  </outline>
</glyph>
<glyph name="n" format="1">
  <advance width="960"/>
  <unicode hex="006E"/>
  <outline>
    <contour>
      <point x="774" y="165" type="line"/>
      <point x="774" y="300" type="line"/>
      <point x="774" y="422"/>
      <point x="726" y="532"/>
      <point x="568" y="532" type="curve" smooth="yes"/>
      <point x="432" y="532"/>
      <point x="309" y="429"/>
      <point x="245" y="376" type="curve"/>
      <point x="245" y="353" type="line"/>
      <point x="309" y="404"/>
      <point x="432" y="509"/>
      <point x="568" y="509" type="curve" smooth="yes"/>
      <point x="716" y="509"/>
      <point x="749" y="402"/>
      <point x="749" y="300" type="curve"/>
      <point x="749" y="165" type="line"/>
    </contour>
    <contour>
      <point x="418" y="165" type="line"/>
      <point x="418" y="188" type="line"/>
      <point x="50" y="188" type="line"/>
      <point x="50" y="165" type="line"/>
    </contour>
    <contour>
      <point x="258" y="165" type="line"/>
      <point x="258" y="523" type="line"/>
      <point x="233" y="523" type="line"/>
      <point x="233" y="165" type="line"/>
    </contour>
    <contour>
      <point x="258" y="499" type="line"/>
      <point x="258" y="523" type="line"/>
      <point x="50" y="523" type="line"/>
      <point x="50" y="499" type="line"/>
    </contour>
    <contour>
      <point x="947" y="165" type="line"/>
      <point x="947" y="188" type="line"/>
      <point x="588" y="188" type="line"/>
      <point x="588" y="165" type="line"/>
    </contour>
    <contour>
      <point x="521" y="532" type="move" name="top"/>
    </contour>
    <contour>
      <point x="511" y="165" type="move" name="bottom"/>
    </contour>
  </outline>
</glyph>
<glyph name="o" format="1">
  <advance width="1055"/>
  <unicode hex="006F"/>
  <outline>
    <contour>
      <point x="763" y="-13"/>
      <point x="949" y="79"/>
      <point x="949" y="237" type="curve"/>
      <point x="949" y="398"/>
      <point x="763" y="484"/>
      <point x="527" y="484" type="curve"/>
      <point x="292" y="483"/>
      <point x="106" y="398"/>
      <point x="106" y="237" type="curve"/>
      <point x="106" y="79"/>
      <point x="292" y="-13"/>
      <point x="527" y="-13" type="curve" smooth="yes"/>
    </contour>
    <contour>
      <point x="306" y="18"/>
      <point x="139" y="100"/>
      <point x="139" y="237" type="curve"/>
      <point x="139" y="376"/>
      <point x="306" y="452"/>
      <point x="527" y="453" type="curve"/>
      <point x="748" y="453"/>
      <point x="916" y="376"/>
      <point x="916" y="237" type="curve"/>
      <point x="916" y="100"/>
      <point x="748" y="18"/>
      <point x="527" y="18" type="curve" smooth="yes"/>
    </contour>
    <contour>
      <point x="527" y="-13" type="move" name="bottom"/>
    </contour>
    <contour>
      <point x="527" y="-13" type="move" name="ogonek"/>
    </contour>
    <contour>
      <point x="528" y="484" type="move" name="top"/>
    </contour>
    <contour>
      <point x="1015" y="471" type="move" name="topright"/>
    </contour>
    <contour>
      <point x="528" y="237" type="move" name="center"/>
    </contour>
  </outline>
</glyph>
<glyph name="p" format="1">
  <advance width="913"/>
  <unicode hex="0070"/>
  <outline>
    <contour>
      <point x="692" y="155"/>
      <point x="832" y="232"/>
      <point x="832" y="360" type="curve"/>
      <point x="832" y="469"/>
      <point x="736" y="532"/>
      <point x="593" y="532" type="curve"/>
      <point x="462" y="532"/>
      <point x="340" y="469"/>
      <point x="224" y="384" type="curve"/>
      <point x="224" y="361" type="line"/>
      <point x="350" y="449"/>
      <point x="478" y="509"/>
      <point x="593" y="509" type="curve"/>
      <point x="727" y="509"/>
      <point x="807" y="449"/>
      <point x="807" y="360" type="curve"/>
      <point x="807" y="250"/>
      <point x="680" y="176"/>
      <point x="527" y="178" type="curve"/>
      <point x="408" y="176"/>
      <point x="295" y="220"/>
      <point x="220" y="260" type="curve"/>
      <point x="220" y="238" type="line"/>
      <point x="293" y="197"/>
      <point x="398" y="155"/>
      <point x="527" y="155" type="curve"/>
    </contour>
    <contour>
      <point x="429" y="-1" type="line"/>
      <point x="429" y="23" type="line"/>
      <point x="30" y="23" type="line"/>
      <point x="30" y="-1" type="line"/>
    </contour>
    <contour>
      <point x="236" y="-1" type="line"/>
      <point x="236" y="523" type="line"/>
      <point x="211" y="523" type="line"/>
      <point x="211" y="-1" type="line"/>
    </contour>
    <contour>
      <point x="236" y="499" type="line"/>
      <point x="236" y="523" type="line"/>
      <point x="30" y="523" type="line"/>
      <point x="30" y="499" type="line"/>
    </contour>
    <contour>
      <point x="461" y="532" type="move" name="top"/>
    </contour>
    <contour>
      <point x="461" y="155" type="move" name="bottom"/>
    </contour>
  </outline>
</glyph>
<glyph name="q" format="1">
  <advance width="1195"/>
  <unicode hex="0071"/>
  <outline>
    <contour>
      <point x="592" y="-14"/>
      <point x="752" y="70"/>
      <point x="905" y="180" type="curve"/>
      <point x="905" y="213" type="line"/>
      <point x="740" y="97"/>
      <point x="570" y="17"/>
      <point x="420" y="17" type="curve"/>
      <point x="244" y="17"/>
      <point x="139" y="97"/>
      <point x="139" y="212" type="curve"/>
      <point x="139" y="358"/>
      <point x="305" y="453"/>
      <point x="506" y="452" type="curve" smooth="yes"/>
      <point x="694" y="453"/>
      <point x="925" y="375"/>
      <point x="1096" y="295" type="curve"/>
      <point x="1096" y="328" type="line"/>
      <point x="926" y="409"/>
      <point x="708" y="484"/>
      <point x="506" y="483" type="curve" smooth="yes"/>
      <point x="290" y="483"/>
      <point x="106" y="382"/>
      <point x="106" y="212" type="curve"/>
      <point x="106" y="70"/>
      <point x="231" y="-14"/>
      <point x="420" y="-14" type="curve"/>
    </contour>
    <contour>
      <point x="1162" y="-218" type="line"/>
      <point x="1162" y="-187" type="line"/>
      <point x="635" y="-187" type="line"/>
      <point x="635" y="-218" type="line"/>
    </contour>
    <contour>
      <point x="922" y="-218" type="line"/>
      <point x="922" y="486" type="line"/>
      <point x="905" y="486" type="line"/>
      <point x="889" y="397" type="line"/>
      <point x="889" y="-218" type="line"/>
    </contour>
    <contour>
      <point x="504" y="237" type="move" name="center"/>
    </contour>
    <contour>
      <point x="504" y="-13" type="move" name="bottom"/>
    </contour>
    <contour>
      <point x="504" y="484" type="move" name="top"/>
    </contour>
  </outline>
</glyph>
<glyph name="r" format="1">
  <advance width="957"/>
  <unicode hex="0072"/>
  <outline>
    <contour>
      <point x="496" y="377"/>
      <point x="657" y="453"/>
      <point x="825" y="453" type="curve"/>
      <point x="825" y="289" type="line"/>
      <point x="858" y="289" type="line"/>
      <point x="858" y="483" type="line"/>
      <point x="825" y="484" type="line"/>
      <point x="636" y="484"/>
      <point x="483" y="403"/>
      <point x="322" y="278" type="curve"/>
      <point x="322" y="248" type="line"/>
    </contour>
    <contour>
      <point x="580" y="0" type="line"/>
      <point x="580" y="31" type="line"/>
      <point x="66" y="31" type="line"/>
      <point x="66" y="0" type="line"/>
    </contour>
    <contour>
      <point x="339" y="0" type="line"/>
      <point x="339" y="471" type="line"/>
      <point x="306" y="471" type="line"/>
      <point x="306" y="0" type="line"/>
    </contour>
    <contour>
      <point x="339" y="440" type="line"/>
      <point x="339" y="471" type="line"/>
      <point x="66" y="471" type="line"/>
      <point x="66" y="440" type="line"/>
    </contour>
    <contour>
      <point x="469" y="471" type="move" name="top"/>
    </contour>
    <contour>
      <point x="469" y="0" type="move" name="bottom"/>
    </contour>
  </outline>
</glyph>
<glyph name="s" format="1">
  <advance width="746"/>
  <unicode hex="0073"/>
  <outline>
    <contour>
      <point x="553" y="155"/>
      <point x="641" y="184"/>
      <point x="641" y="251" type="curve" smooth="yes"/>
      <point x="641" y="323"/>
      <point x="555" y="342"/>
      <point x="365" y="354" type="curve" smooth="yes"/>
      <point x="190" y="364"/>
      <point x="126" y="387"/>
      <point x="126" y="434" type="curve" smooth="yes"/>
      <point x="126" y="484"/>
      <point x="198" y="510"/>
      <point x="315" y="510" type="curve" smooth="yes"/>
      <point x="441" y="510"/>
      <point x="551" y="472"/>
      <point x="624" y="385" type="curve"/>
      <point x="624" y="385" type="line"/>
      <point x="624" y="523" type="line"/>
      <point x="600" y="523" type="line"/>
      <point x="600" y="422" type="line"/>
      <point x="617" y="415" type="line"/>
      <point x="568" y="479"/>
      <point x="458" y="532"/>
      <point x="320" y="532" type="curve" smooth="yes"/>
      <point x="169" y="532"/>
      <point x="102" y="492"/>
      <point x="102" y="432" type="curve" smooth="yes"/>
      <point x="102" y="370"/>
      <point x="181" y="339"/>
      <point x="365" y="329" type="curve" smooth="yes"/>
      <point x="548" y="318"/>
      <point x="616" y="301"/>
      <point x="616" y="250" type="curve" smooth="yes"/>
      <point x="616" y="191"/>
      <point x="520" y="177"/>
      <point x="415" y="177" type="curve" smooth="yes"/>
      <point x="293" y="177"/>
      <point x="165" y="215"/>
      <point x="95" y="301" type="curve"/>
      <point x="95" y="301" type="line"/>
      <point x="95" y="165" type="line"/>
      <point x="119" y="165" type="line"/>
      <point x="119" y="264" type="line"/>
      <point x="101" y="271" type="line"/>
      <point x="149" y="208"/>
      <point x="271" y="155"/>
      <point x="410" y="155" type="curve" smooth="yes"/>
    </contour>
    <contour>
      <point x="371" y="532" type="move" name="top"/>
    </contour>
    <contour>
      <point x="411" y="155" type="move" name="bottom"/>
    </contour>
  </outline>
</glyph>
<glyph name="t" format="1">
  <advance width="525"/>
  <unicode hex="0074"/>
  <outline>
    <contour>
      <point x="357" y="155"/>
      <point x="421" y="179"/>
      <point x="465" y="200" type="curve"/>
      <point x="454" y="221" type="line"/>
      <point x="413" y="200"/>
      <point x="354" y="178"/>
      <point x="285" y="178" type="curve" smooth="yes"/>
      <point x="223" y="178"/>
      <point x="181" y="206"/>
      <point x="181" y="289" type="curve"/>
      <point x="181" y="622" type="line"/>
      <point x="156" y="622" type="line"/>
      <point x="156" y="289" type="line"/>
      <point x="156" y="191"/>
      <point x="206" y="155"/>
      <point x="287" y="155" type="curve" smooth="yes"/>
    </contour>
    <contour>
      <point x="420" y="499" type="line"/>
      <point x="420" y="523" type="line"/>
      <point x="25" y="523" type="line"/>
      <point x="25" y="499" type="line"/>
    </contour>
    <contour>
      <point x="261" y="155" type="move" name="bottom"/>
    </contour>
    <contour>
      <point x="261" y="622" type="move" name="top"/>
    </contour>
    <contour>
      <point x="229" y="618" type="move" name="topright"/>
    </contour>
    <contour>
      <point x="261" y="345" type="move" name="center"/>
    </contour>
  </outline>
</glyph>
<glyph name="u" format="1">
  <advance width="1201"/>
  <unicode hex="0075"/>
  <outline>
    <contour>
      <point x="653" y="-13"/>
      <point x="779" y="53"/>
      <point x="911" y="117" type="curve"/>
      <point x="911" y="147" type="line"/>
      <point x="779" y="81"/>
      <point x="634" y="18"/>
      <point x="503" y="18" type="curve"/>
      <point x="358" y="19"/>
      <point x="277" y="79"/>
      <point x="277" y="218" type="curve"/>
      <point x="277" y="471" type="line"/>
      <point x="244" y="471" type="line"/>
      <point x="244" y="218" type="line"/>
      <point x="244" y="52"/>
      <point x="344" y="-13"/>
      <point x="503" y="-13" type="curve"/>
    </contour>
    <contour>
      <point x="260" y="440" type="line"/>
      <point x="260" y="471" type="line"/>
      <point x="18" y="471" type="line"/>
      <point x="18" y="440" type="line"/>
    </contour>
    <contour>
      <point x="1055" y="-13"/>
      <point x="1089" y="2"/>
      <point x="1122" y="25" type="curve"/>
      <point x="1109" y="52" type="line"/>
      <point x="1078" y="29"/>
      <point x="1049" y="18"/>
      <point x="1014" y="18" type="curve" smooth="yes"/>
      <point x="971" y="18"/>
      <point x="930" y="51"/>
      <point x="930" y="124" type="curve"/>
      <point x="930" y="471" type="line"/>
      <point x="897" y="471" type="line"/>
      <point x="897" y="124" type="line"/>
      <point x="897" y="37"/>
      <point x="946" y="-13"/>
      <point x="1012" y="-13" type="curve" smooth="yes"/>
    </contour>
    <contour>
      <point x="920" y="440" type="line"/>
      <point x="920" y="471" type="line"/>
      <point x="685" y="471" type="line"/>
      <point x="685" y="440" type="line"/>
    </contour>
    <contour>
      <point x="1122" y="25" type="move" name="ogonek"/>
    </contour>
    <contour>
      <point x="560" y="458" type="move" name="top"/>
    </contour>
    <contour>
      <point x="1089" y="471" type="move" name="topright"/>
    </contour>
    <contour>
      <point x="503" y="-13" type="move" name="bottom"/>
    </contour>
  </outline>
</glyph>
<glyph name="v" format="1">
  <advance width="994"/>
  <unicode hex="0076"/>
  <outline>
    <contour>
      <point x="497" y="-13" type="line"/>
      <point x="838" y="460" type="line"/>
      <point x="803" y="460" type="line"/>
      <point x="495" y="31" type="line"/>
      <point x="187" y="460" type="line"/>
      <point x="147" y="460" type="line"/>
      <point x="490" y="-13" type="line"/>
    </contour>
    <contour>
      <point x="361" y="440" type="line"/>
      <point x="361" y="471" type="line"/>
      <point x="0" y="471" type="line"/>
      <point x="0" y="440" type="line"/>
    </contour>
    <contour>
      <point x="994" y="440" type="line"/>
      <point x="994" y="471" type="line"/>
      <point x="633" y="471" type="line"/>
      <point x="633" y="440" type="line"/>
    </contour>
    <contour>
      <point x="497" y="458" type="move" name="top"/>
    </contour>
    <contour>
      <point x="495" y="0" type="move" name="bottom"/>
    </contour>
  </outline>
</glyph>
<glyph name="w" format="1">
  <advance width="1288"/>
  <unicode hex="0077"/>
  <outline>
    <contour>
      <point x="178" y="440" type="line"/>
      <point x="190" y="440" type="line"/>
      <point x="367" y="440" type="line"/>
      <point x="367" y="471" type="line"/>
      <point x="7" y="471" type="line"/>
      <point x="7" y="440" type="line"/>
    </contour>
    <contour>
      <point x="397" y="-13" type="line"/>
      <point x="410" y="12" type="line"/>
      <point x="197" y="460" type="line"/>
      <point x="161" y="460" type="line"/>
      <point x="389" y="-13" type="line"/>
    </contour>
    <contour>
      <point x="397" y="-13" type="line"/>
      <point x="651" y="429" type="line"/>
      <point x="641" y="460" type="line"/>
      <point x="638" y="460" type="line"/>
      <point x="383" y="12" type="line"/>
      <point x="389" y="-13" type="line"/>
    </contour>
    <contour>
      <point x="892" y="-13" type="line"/>
      <point x="902" y="12" type="line"/>
      <point x="646" y="460" type="line"/>
      <point x="638" y="460" type="line"/>
      <point x="629" y="429" type="line"/>
      <point x="884" y="-13" type="line"/>
    </contour>
    <contour>
      <point x="892" y="-13" type="line"/>
      <point x="1121" y="460" type="line"/>
      <point x="1088" y="460" type="line"/>
      <point x="877" y="12" type="line"/>
      <point x="886" y="-13" type="line"/>
    </contour>
    <contour>
      <point x="1090" y="440" type="line"/>
      <point x="1101" y="440" type="line"/>
      <point x="1282" y="440" type="line"/>
      <point x="1282" y="471" type="line"/>
      <point x="920" y="471" type="line"/>
      <point x="920" y="440" type="line"/>
    </contour>
    <contour>
      <point x="641" y="471" type="move" name="top"/>
    </contour>
    <contour>
      <point x="641" y="0" type="move" name="bottom"/>
    </contour>
  </outline>
</glyph>
<glyph name="x" format="1">
  <advance width="842"/>
  <unicode hex="0078"/>
  <outline>
    <contour>
      <point x="180" y="174" type="line"/>
      <point x="428" y="339" type="line"/>
      <point x="432" y="339" type="line"/>
      <point x="697" y="514" type="line"/>
      <point x="662" y="514" type="line"/>
      <point x="413" y="350" type="line"/>
      <point x="410" y="350" type="line"/>
      <point x="144" y="174" type="line"/>
    </contour>
    <contour>
      <point x="365" y="165" type="line"/>
      <point x="365" y="188" type="line"/>
      <point x="187" y="188" type="line"/>
      <point x="176" y="188" type="line"/>
      <point x="55" y="188" type="line"/>
      <point x="55" y="165" type="line"/>
    </contour>
    <contour>
      <point x="787" y="165" type="line"/>
      <point x="787" y="188" type="line"/>
      <point x="663" y="188" type="line"/>
      <point x="653" y="188" type="line"/>
      <point x="477" y="188" type="line"/>
      <point x="477" y="165" type="line"/>
    </contour>
    <contour>
      <point x="179" y="499" type="line"/>
      <point x="190" y="499" type="line"/>
      <point x="365" y="499" type="line"/>
      <point x="365" y="523" type="line"/>
      <point x="55" y="523" type="line"/>
      <point x="55" y="499" type="line"/>
    </contour>
    <contour>
      <point x="657" y="499" type="line"/>
      <point x="667" y="499" type="line"/>
      <point x="787" y="499" type="line"/>
      <point x="787" y="523" type="line"/>
      <point x="477" y="523" type="line"/>
      <point x="477" y="499" type="line"/>
    </contour>
    <contour>
      <point x="699" y="174" type="line"/>
      <point x="432" y="350" type="line"/>
      <point x="432" y="350" type="line"/>
      <point x="184" y="514" type="line"/>
      <point x="142" y="514" type="line"/>
      <point x="410" y="339" type="line"/>
      <point x="410" y="339" type="line"/>
      <point x="658" y="174" type="line"/>
    </contour>
    <contour>
      <point x="425" y="523" type="move" name="top"/>
    </contour>
    <contour>
      <point x="425" y="165" type="move" name="bottom"/>
    </contour>
  </outline>
</glyph>
<glyph name="y" format="1">
  <advance width="1005"/>
  <unicode hex="0079"/>
  <outline>
    <contour>
      <point x="365" y="-238"/>
      <point x="440" y="-163"/>
      <point x="503" y="-64" type="curve" smooth="yes"/>
      <point x="833" y="453" type="line"/>
      <point x="796" y="453" type="line"/>
      <point x="466" y="-65" type="line" smooth="yes"/>
      <point x="408" y="-154"/>
      <point x="344" y="-207"/>
      <point x="252" y="-207" type="curve" smooth="yes"/>
      <point x="178" y="-207"/>
      <point x="123" y="-185"/>
      <point x="57" y="-153" type="curve"/>
      <point x="46" y="-183" type="line"/>
      <point x="114" y="-211"/>
      <point x="166" y="-238"/>
      <point x="251" y="-238" type="curve" smooth="yes"/>
    </contour>
    <contour>
      <point x="510" y="-13" type="line"/>
      <point x="193" y="460" type="line"/>
      <point x="156" y="460" type="line"/>
      <point x="491" y="-45" type="line"/>
    </contour>
    <contour>
      <point x="367" y="440" type="line"/>
      <point x="367" y="471" type="line"/>
      <point x="7" y="471" type="line"/>
      <point x="7" y="440" type="line"/>
    </contour>
    <contour>
      <point x="992" y="440" type="line"/>
      <point x="992" y="471" type="line"/>
      <point x="633" y="471" type="line"/>
      <point x="633" y="440" type="line"/>
    </contour>
    <contour>
      <point x="503" y="471" type="move" name="top"/>
    </contour>
    <contour>
      <point x="503" y="0" type="move" name="bottom"/>
    </contour>
  </outline>
</glyph>
<glyph name="braceleft" format="1">
  <advance width="481"/>
  <unicode hex="007B"/>
  <outline>
    <contour>
      <point x="367" y="45"/>
      <point x="426" y="55"/>
      <point x="470" y="70" type="curve"/>
      <point x="463" y="91" type="line"/>
      <point x="425" y="80"/>
      <point x="373" y="68"/>
      <point x="315" y="68" type="curve" smooth="yes"/>
      <point x="237" y="68"/>
      <point x="139" y="92"/>
      <point x="139" y="165" type="curve" smooth="yes"/>
      <point x="139" y="266"/>
      <point x="341" y="256"/>
      <point x="341" y="356" type="curve" smooth="yes"/>
      <point x="341" y="405"/>
      <point x="275" y="435"/>
      <point x="186" y="435" type="curve"/>
      <point x="186" y="425" type="line"/>
      <point x="275" y="425"/>
      <point x="341" y="456"/>
      <point x="341" y="505" type="curve" smooth="yes"/>
      <point x="341" y="605"/>
      <point x="139" y="596"/>
      <point x="139" y="696" type="curve" smooth="yes"/>
      <point x="139" y="768"/>
      <point x="237" y="792"/>
      <point x="315" y="792" type="curve" smooth="yes"/>
      <point x="373" y="792"/>
      <point x="425" y="782"/>
      <point x="463" y="770" type="curve"/>
      <point x="470" y="792" type="line"/>
      <point x="426" y="806"/>
      <point x="367" y="817"/>
      <point x="306" y="817" type="curve" smooth="yes"/>
      <point x="215" y="817"/>
      <point x="114" y="783"/>
      <point x="114" y="698" type="curve" smooth="yes"/>
      <point x="114" y="576"/>
      <point x="317" y="584"/>
      <point x="317" y="506" type="curve" smooth="yes"/>
      <point x="317" y="467"/>
      <point x="271" y="441"/>
      <point x="173" y="441" type="curve" smooth="yes"/>
      <point x="110" y="441" type="line"/>
      <point x="110" y="420" type="line"/>
      <point x="173" y="420" type="line" smooth="yes"/>
      <point x="271" y="420"/>
      <point x="317" y="393"/>
      <point x="317" y="355" type="curve" smooth="yes"/>
      <point x="317" y="282"/>
      <point x="114" y="280"/>
      <point x="114" y="163" type="curve" smooth="yes"/>
      <point x="114" y="78"/>
      <point x="215" y="45"/>
      <point x="306" y="45" type="curve" smooth="yes"/>
    </contour>
  </outline>
</glyph>
<glyph name="bar" format="1">
  <advance width="363"/>
  <unicode hex="007C"/>
  <outline>
    <contour>
      <point x="165" y="-193" type="line"/>
      <point x="198" y="-193" type="line"/>
      <point x="198" y="837" type="line"/>
      <point x="165" y="837" type="line"/>
    </contour>
  </outline>
</glyph>
<glyph name="braceright" format="1">
  <advance width="481"/>
  <unicode hex="007D"/>
  <outline>
    <contour>
      <point x="266" y="45"/>
      <point x="367" y="78"/>
      <point x="367" y="163" type="curve" smooth="yes"/>
      <point x="367" y="280"/>
      <point x="164" y="282"/>
      <point x="164" y="355" type="curve" smooth="yes"/>
      <point x="164" y="393"/>
      <point x="210" y="420"/>
      <point x="308" y="420" type="curve" smooth="yes"/>
      <point x="370" y="420" type="line"/>
      <point x="370" y="441" type="line"/>
      <point x="308" y="441" type="line" smooth="yes"/>
      <point x="210" y="441"/>
      <point x="164" y="467"/>
      <point x="164" y="506" type="curve" smooth="yes"/>
      <point x="164" y="584"/>
      <point x="367" y="576"/>
      <point x="367" y="698" type="curve" smooth="yes"/>
      <point x="367" y="783"/>
      <point x="266" y="817"/>
      <point x="175" y="817" type="curve" smooth="yes"/>
      <point x="114" y="817"/>
      <point x="55" y="806"/>
      <point x="10" y="792" type="curve"/>
      <point x="17" y="770" type="line"/>
      <point x="56" y="782"/>
      <point x="107" y="792"/>
      <point x="166" y="792" type="curve" smooth="yes"/>
      <point x="242" y="792"/>
      <point x="342" y="768"/>
      <point x="342" y="696" type="curve" smooth="yes"/>
      <point x="342" y="596"/>
      <point x="140" y="605"/>
      <point x="140" y="505" type="curve" smooth="yes"/>
      <point x="140" y="456"/>
      <point x="206" y="425"/>
      <point x="294" y="425" type="curve"/>
      <point x="294" y="435" type="line"/>
      <point x="206" y="435"/>
      <point x="140" y="405"/>
      <point x="140" y="356" type="curve" smooth="yes"/>
      <point x="140" y="256"/>
      <point x="342" y="266"/>
      <point x="342" y="165" type="curve" smooth="yes"/>
      <point x="342" y="92"/>
      <point x="242" y="68"/>
      <point x="166" y="68" type="curve" smooth="yes"/>
      <point x="107" y="68"/>
      <point x="56" y="80"/>
      <point x="17" y="91" type="curve"/>
      <point x="10" y="70" type="line"/>
      <point x="55" y="55"/>
      <point x="114" y="45"/>
      <point x="175" y="45" type="curve" smooth="yes"/>
    </contour>
  </outline>
</glyph>
<glyph name="asciitilde" format="1">
  <advance width="730"/>
  <unicode hex="007E"/>
  <outline>
    <contour>
      <point x="619" y="301"/>
      <point x="657" y="395"/>
      <point x="660" y="491" type="curve"/>
      <point x="636" y="494" type="line"/>
      <point x="633" y="397"/>
      <point x="601" y="325"/>
      <point x="520" y="325" type="curve" smooth="yes"/>
      <point x="462" y="325"/>
      <point x="415" y="374"/>
      <point x="375" y="415" type="curve" smooth="yes"/>
      <point x="323" y="466"/>
      <point x="277" y="509"/>
      <point x="212" y="509" type="curve" smooth="yes"/>
      <point x="116" y="509"/>
      <point x="74" y="416"/>
      <point x="70" y="320" type="curve"/>
      <point x="94" y="317" type="line"/>
      <point x="97" y="414"/>
      <point x="135" y="485"/>
      <point x="211" y="485" type="curve" smooth="yes"/>
      <point x="273" y="485"/>
      <point x="316" y="437"/>
      <point x="356" y="396" type="curve" smooth="yes"/>
      <point x="407" y="345"/>
      <point x="458" y="301"/>
      <point x="518" y="301" type="curve" smooth="yes"/>
    </contour>
  </outline>
</glyph>
<glyph name="exclamdown" format="1">
  <advance width="287"/>
  <unicode hex="00A1"/>
  <outline>
    <contour>
      <point x="135" y="548" type="line"/>
      <point x="130" y="424" type="line" smooth="yes"/>
      <point x="125" y="272"/>
      <point x="112" y="171"/>
      <point x="112" y="153" type="curve"/>
      <point x="112" y="136"/>
      <point x="121" y="121"/>
      <point x="142" y="121" type="curve"/>
      <point x="164" y="121"/>
      <point x="173" y="136"/>
      <point x="173" y="153" type="curve"/>
      <point x="173" y="171"/>
      <point x="160" y="271"/>
      <point x="155" y="424" type="curve" smooth="yes"/>
      <point x="151" y="548" type="line"/>
    </contour>
    <contour>
      <point x="175" y="642"/>
      <point x="192" y="656"/>
      <point x="192" y="675" type="curve"/>
      <point x="192" y="692"/>
      <point x="175" y="707"/>
      <point x="143" y="707" type="curve"/>
      <point x="111" y="707"/>
      <point x="94" y="692"/>
      <point x="94" y="675" type="curve"/>
      <point x="94" y="656"/>
      <point x="111" y="642"/>
      <point x="143" y="642" type="curve"/>
    </contour>
  </outline>
</glyph>
<glyph name="cent" format="1">
  <advance width="950"/>
  <unicode hex="00A2"/>
  <outline>
    <contour>
      <point x="627" y="75"/>
      <point x="751" y="124"/>
      <point x="845" y="194" type="curve"/>
      <point x="829" y="218" type="line"/>
      <point x="738" y="154"/>
      <point x="613" y="105"/>
      <point x="455" y="106" type="curve" smooth="yes"/>
      <point x="282" y="107"/>
      <point x="139" y="177"/>
      <point x="139" y="301" type="curve" smooth="yes"/>
      <point x="139" y="451"/>
      <point x="312" y="516"/>
      <point x="469" y="515" type="curve" smooth="yes"/>
      <point x="606" y="514"/>
      <point x="737" y="464"/>
      <point x="833" y="351" type="curve"/>
      <point x="840" y="352" type="line"/>
      <point x="840" y="532" type="line"/>
      <point x="811" y="532" type="line"/>
      <point x="811" y="400" type="line"/>
      <point x="831" y="394" type="line"/>
      <point x="763" y="476"/>
      <point x="628" y="543"/>
      <point x="471" y="546" type="curve" smooth="yes"/>
      <point x="299" y="547"/>
      <point x="106" y="474"/>
      <point x="106" y="301" type="curve" smooth="yes"/>
      <point x="106" y="151"/>
      <point x="268" y="75"/>
      <point x="455" y="75" type="curve" smooth="yes"/>
    </contour>
    <contour>
      <point x="488" y="-13" type="line"/>
      <point x="488" y="88" type="line"/>
      <point x="488" y="99" type="line"/>
      <point x="488" y="529" type="line"/>
      <point x="488" y="536" type="line"/>
      <point x="488" y="634" type="line"/>
      <point x="458" y="634" type="line"/>
      <point x="458" y="537" type="line"/>
      <point x="458" y="529" type="line"/>
      <point x="458" y="95" type="line"/>
      <point x="458" y="88" type="line"/>
      <point x="458" y="-13" type="line"/>
    </contour>
  </outline>
</glyph>
<glyph name="sterling" format="1">
  <advance width="768"/>
  <unicode hex="00A3"/>
  <outline>
    <contour>
      <point x="87" y="155" type="line" smooth="yes"/>
      <point x="197" y="155"/>
      <point x="271" y="208"/>
      <point x="271" y="283" type="curve" smooth="yes"/>
      <point x="271" y="370"/>
      <point x="189" y="421"/>
      <point x="189" y="501" type="curve" smooth="yes"/>
      <point x="189" y="577"/>
      <point x="269" y="623"/>
      <point x="375" y="623" type="curve" smooth="yes"/>
      <point x="492" y="623"/>
      <point x="592" y="590"/>
      <point x="689" y="491" type="curve"/>
      <point x="695" y="495" type="line"/>
      <point x="695" y="646" type="line"/>
      <point x="672" y="646" type="line"/>
      <point x="672" y="526" type="line"/>
      <point x="686" y="524" type="line"/>
      <point x="613" y="596"/>
      <point x="511" y="646"/>
      <point x="376" y="646" type="curve" smooth="yes"/>
      <point x="248" y="646"/>
      <point x="164" y="588"/>
      <point x="164" y="501" type="curve" smooth="yes"/>
      <point x="164" y="415"/>
      <point x="247" y="358"/>
      <point x="247" y="284" type="curve" smooth="yes"/>
      <point x="247" y="216"/>
      <point x="176" y="176"/>
      <point x="87" y="176" type="curve" smooth="yes"/>
      <point x="60" y="176" type="line"/>
      <point x="60" y="155" type="line"/>
    </contour>
    <contour>
      <point x="583" y="331" type="line"/>
      <point x="583" y="354" type="line"/>
      <point x="60" y="354" type="line"/>
      <point x="60" y="331" type="line"/>
    </contour>
    <contour>
      <point x="657" y="155"/>
      <point x="714" y="206"/>
      <point x="727" y="286" type="curve"/>
      <point x="704" y="290" type="line"/>
      <point x="692" y="212"/>
      <point x="626" y="178"/>
      <point x="553" y="178" type="curve" smooth="yes"/>
      <point x="475" y="178"/>
      <point x="347" y="232"/>
      <point x="261" y="280" type="curve"/>
      <point x="252" y="261" type="line"/>
      <point x="337" y="211"/>
      <point x="465" y="155"/>
      <point x="553" y="155" type="curve" smooth="yes"/>
    </contour>
    <contour>
      <point x="585" y="456" type="line"/>
      <point x="585" y="479" type="line"/>
      <point x="62" y="479" type="line"/>
      <point x="62" y="456" type="line"/>
    </contour>
  </outline>
</glyph>
<glyph name="currency" format="1">
  <advance width="573"/>
  <unicode hex="00A4"/>
  <outline>
    <contour>
      <point x="377" y="292"/>
      <point x="435" y="341"/>
      <point x="435" y="412" type="curve"/>
      <point x="435" y="485"/>
      <point x="377" y="534"/>
      <point x="286" y="534" type="curve"/>
      <point x="198" y="534"/>
      <point x="137" y="485"/>
      <point x="137" y="412" type="curve"/>
      <point x="137" y="341"/>
      <point x="198" y="292"/>
      <point x="286" y="292" type="curve"/>
    </contour>
    <contour>
      <point x="200" y="320" type="line"/>
      <point x="182" y="335" type="line"/>
      <point x="90" y="229" type="line"/>
      <point x="109" y="214" type="line"/>
    </contour>
    <contour>
      <point x="483" y="229" type="line"/>
      <point x="391" y="335" type="line"/>
      <point x="373" y="320" type="line"/>
      <point x="463" y="214" type="line"/>
    </contour>
    <contour>
      <point x="200" y="506" type="line"/>
      <point x="109" y="612" type="line"/>
      <point x="90" y="597" type="line"/>
      <point x="182" y="491" type="line"/>
    </contour>
    <contour>
      <point x="483" y="597" type="line"/>
      <point x="463" y="612" type="line"/>
      <point x="373" y="506" type="line"/>
      <point x="391" y="491" type="line"/>
    </contour>
    <contour>
      <point x="211" y="315"/>
      <point x="162" y="355"/>
      <point x="162" y="414" type="curve"/>
      <point x="162" y="472"/>
      <point x="211" y="510"/>
      <point x="286" y="510" type="curve"/>
      <point x="363" y="510"/>
      <point x="410" y="472"/>
      <point x="410" y="414" type="curve"/>
      <point x="410" y="355"/>
      <point x="363" y="315"/>
      <point x="286" y="315" type="curve"/>
    </contour>
  </outline>
</glyph>
<glyph name="yen" format="1">
  <advance width="903"/>
  <unicode hex="00A5"/>
  <outline>
    <contour>
      <point x="353" y="613" type="line"/>
      <point x="353" y="636" type="line"/>
      <point x="15" y="636" type="line"/>
      <point x="15" y="613" type="line"/>
    </contour>
    <contour>
      <point x="888" y="613" type="line"/>
      <point x="888" y="636" type="line"/>
      <point x="551" y="636" type="line"/>
      <point x="551" y="613" type="line"/>
    </contour>
    <contour>
      <point x="460" y="316" type="line"/>
      <point x="733" y="625" type="line"/>
      <point x="704" y="625" type="line"/>
      <point x="445" y="331" type="line"/>
      <point x="460" y="331" type="line"/>
      <point x="201" y="623" type="line"/>
      <point x="170" y="623" type="line"/>
      <point x="443" y="316" type="line"/>
    </contour>
    <contour>
      <point x="587" y="466" type="line"/>
      <point x="587" y="488" type="line"/>
      <point x="91" y="488" type="line"/>
      <point x="91" y="466" type="line"/>
    </contour>
    <contour>
      <point x="814" y="466" type="line"/>
      <point x="814" y="488" type="line"/>
      <point x="316" y="488" type="line"/>
      <point x="316" y="466" type="line"/>
    </contour>
    <contour>
      <point x="814" y="315" type="line"/>
      <point x="814" y="337" type="line"/>
      <point x="91" y="337" type="line"/>
      <point x="91" y="315" type="line"/>
    </contour>
    <contour>
      <point x="465" y="165" type="line"/>
      <point x="465" y="326" type="line"/>
      <point x="440" y="326" type="line"/>
      <point x="440" y="165" type="line"/>
    </contour>
    <contour>
      <point x="647" y="165" type="line"/>
      <point x="647" y="188" type="line"/>
      <point x="257" y="188" type="line"/>
      <point x="257" y="165" type="line"/>
    </contour>
  </outline>
</glyph>
<glyph name="brokenbar" format="1">
  <advance width="363"/>
  <unicode hex="00A6"/>
  <outline>
    <contour>
      <point x="165" y="402" type="line"/>
      <point x="198" y="402" type="line"/>
      <point x="198" y="837" type="line"/>
      <point x="165" y="837" type="line"/>
    </contour>
    <contour>
      <point x="165" y="-193" type="line"/>
      <point x="198" y="-193" type="line"/>
      <point x="198" y="243" type="line"/>
      <point x="165" y="243" type="line"/>
    </contour>
  </outline>
</glyph>
<glyph name="section" format="1">
  <advance width="812"/>
  <unicode hex="00A7"/>
  <outline>
    <contour>
      <point x="603" y="155"/>
      <point x="736" y="193"/>
      <point x="736" y="292" type="curve" smooth="yes"/>
      <point x="736" y="372"/>
      <point x="658" y="425"/>
      <point x="442" y="442" type="curve" smooth="yes"/>
      <point x="216" y="460"/>
      <point x="144" y="490"/>
      <point x="144" y="565" type="curve" smooth="yes"/>
      <point x="144" y="638"/>
      <point x="229" y="673"/>
      <point x="328" y="673" type="curve" smooth="yes"/>
      <point x="477" y="673"/>
      <point x="611" y="612"/>
      <point x="682" y="510" type="curve"/>
      <point x="687" y="513" type="line"/>
      <point x="687" y="686" type="line"/>
      <point x="663" y="686" type="line"/>
      <point x="663" y="546" type="line"/>
      <point x="679" y="546" type="line"/>
      <point x="626" y="621"/>
      <point x="502" y="697"/>
      <point x="329" y="697" type="curve" smooth="yes"/>
      <point x="212" y="697"/>
      <point x="119" y="650"/>
      <point x="119" y="565" type="curve" smooth="yes"/>
      <point x="119" y="471"/>
      <point x="201" y="441"/>
      <point x="442" y="418" type="curve" smooth="yes"/>
      <point x="635" y="400"/>
      <point x="711" y="359"/>
      <point x="711" y="290" type="curve" smooth="yes"/>
      <point x="711" y="205"/>
      <point x="570" y="174"/>
      <point x="427" y="186" type="curve"/>
      <point x="446" y="170" type="line"/>
    </contour>
    <contour>
      <point x="600" y="-85"/>
      <point x="699" y="-35"/>
      <point x="699" y="49" type="curve" smooth="yes"/>
      <point x="699" y="143"/>
      <point x="611" y="171"/>
      <point x="371" y="194" type="curve" smooth="yes"/>
      <point x="177" y="212"/>
      <point x="102" y="254"/>
      <point x="102" y="322" type="curve" smooth="yes"/>
      <point x="102" y="407"/>
      <point x="242" y="439"/>
      <point x="385" y="426" type="curve"/>
      <point x="366" y="442" type="line"/>
      <point x="209" y="457"/>
      <point x="77" y="420"/>
      <point x="77" y="320" type="curve" smooth="yes"/>
      <point x="77" y="240"/>
      <point x="155" y="187"/>
      <point x="370" y="170" type="curve" smooth="yes"/>
      <point x="597" y="151"/>
      <point x="674" y="124"/>
      <point x="674" y="49" type="curve" smooth="yes"/>
      <point x="674" y="-25"/>
      <point x="584" y="-61"/>
      <point x="485" y="-61" type="curve" smooth="yes"/>
      <point x="335" y="-61"/>
      <point x="201" y="-0"/>
      <point x="131" y="101" type="curve"/>
      <point x="125" y="99" type="line"/>
      <point x="125" y="-76" type="line"/>
      <point x="149" y="-76" type="line"/>
      <point x="149" y="66" type="line"/>
      <point x="134" y="66" type="line"/>
      <point x="186" y="-9"/>
      <point x="311" y="-85"/>
      <point x="483" y="-85" type="curve" smooth="yes"/>
    </contour>
  </outline>
</glyph>
<glyph name="copyright" format="1">
  <advance width="1260"/>
  <unicode hex="00A9"/>
  <outline>
    <contour>
      <point x="952" y="-218"/>
      <point x="1180" y="-26"/>
      <point x="1180" y="233" type="curve"/>
      <point x="1180" y="494"/>
      <point x="952" y="685"/>
      <point x="629" y="685" type="curve"/>
      <point x="308" y="685"/>
      <point x="79" y="494"/>
      <point x="79" y="233" type="curve"/>
      <point x="79" y="-26"/>
      <point x="308" y="-218"/>
      <point x="629" y="-218" type="curve"/>
    </contour>
    <contour>
      <point x="768" y="18"/>
      <point x="865" y="79"/>
      <point x="922" y="152" type="curve"/>
      <point x="899" y="172" type="line"/>
      <point x="846" y="105"/>
      <point x="744" y="46"/>
      <point x="605" y="47" type="curve" smooth="yes"/>
      <point x="453" y="48"/>
      <point x="355" y="121"/>
      <point x="355" y="227" type="curve" smooth="yes"/>
      <point x="355" y="337"/>
      <point x="474" y="410"/>
      <point x="608" y="410" type="curve" smooth="yes"/>
      <point x="728" y="410"/>
      <point x="834" y="367"/>
      <point x="915" y="265" type="curve"/>
      <point x="923" y="268" type="line"/>
      <point x="923" y="441" type="line"/>
      <point x="892" y="441" type="line"/>
      <point x="892" y="317" type="line"/>
      <point x="910" y="310" type="line"/>
      <point x="854" y="376"/>
      <point x="748" y="441"/>
      <point x="612" y="441" type="curve" smooth="yes"/>
      <point x="453" y="441"/>
      <point x="322" y="359"/>
      <point x="322" y="227" type="curve" smooth="yes"/>
      <point x="322" y="94"/>
      <point x="438" y="18"/>
      <point x="605" y="18" type="curve" smooth="yes"/>
    </contour>
    <contour>
      <point x="322" y="-187"/>
      <point x="112" y="-2"/>
      <point x="112" y="233" type="curve"/>
      <point x="112" y="470"/>
      <point x="322" y="655"/>
      <point x="629" y="655" type="curve"/>
      <point x="937" y="655"/>
      <point x="1147" y="470"/>
      <point x="1147" y="233" type="curve"/>
      <point x="1147" y="-2"/>
      <point x="937" y="-187"/>
      <point x="629" y="-187" type="curve"/>
    </contour>
  </outline>
</glyph>
<glyph name="ordfeminine" format="1">
  <advance width="506"/>
  <unicode hex="00AA"/>
  <outline>
    <contour>
      <point x="468" y="476"/>
      <point x="486" y="507"/>
      <point x="486" y="537" type="curve" smooth="yes"/>
      <point x="486" y="549" type="line"/>
      <point x="465" y="549" type="line"/>
      <point x="465" y="537" type="line" smooth="yes"/>
      <point x="465" y="513"/>
      <point x="452" y="496"/>
      <point x="432" y="496" type="curve" smooth="yes"/>
      <point x="407" y="496"/>
      <point x="395" y="517"/>
      <point x="395" y="547" type="curve"/>
      <point x="395" y="596" type="line" smooth="yes"/>
      <point x="395" y="656"/>
      <point x="350" y="697"/>
      <point x="257" y="697" type="curve" smooth="yes"/>
      <point x="199" y="697"/>
      <point x="139" y="684"/>
      <point x="74" y="662" type="curve"/>
      <point x="78" y="642" type="line"/>
      <point x="139" y="661"/>
      <point x="195" y="675"/>
      <point x="257" y="675" type="curve" smooth="yes"/>
      <point x="342" y="675"/>
      <point x="373" y="640"/>
      <point x="373" y="596" type="curve" smooth="yes"/>
      <point x="373" y="547" type="line"/>
      <point x="373" y="506"/>
      <point x="392" y="476"/>
      <point x="432" y="476" type="curve" smooth="yes"/>
    </contour>
    <contour>
      <point x="247" y="474"/>
      <point x="321" y="491"/>
      <point x="386" y="525" type="curve"/>
      <point x="386" y="544" type="line"/>
      <point x="319" y="512"/>
      <point x="245" y="494"/>
      <point x="182" y="494" type="curve" smooth="yes"/>
      <point x="126" y="494"/>
      <point x="87" y="504"/>
      <point x="87" y="536" type="curve"/>
      <point x="87" y="570"/>
      <point x="135" y="582"/>
      <point x="207" y="582" type="curve" smooth="yes"/>
      <point x="269" y="582"/>
      <point x="334" y="573"/>
      <point x="386" y="564" type="curve"/>
      <point x="386" y="584" type="line"/>
      <point x="334" y="592"/>
      <point x="270" y="601"/>
      <point x="199" y="601" type="curve" smooth="yes"/>
      <point x="124" y="601"/>
      <point x="65" y="583"/>
      <point x="65" y="536" type="curve"/>
      <point x="65" y="491"/>
      <point x="110" y="474"/>
      <point x="182" y="474" type="curve" smooth="yes"/>
    </contour>
    <contour>
      <point x="55" y="377" type="line"/>
      <point x="454" y="377" type="line"/>
      <point x="454" y="399" type="line"/>
      <point x="55" y="399" type="line"/>
    </contour>
  </outline>
</glyph>
<glyph name="guillemetleft" format="1">
  <advance width="702"/>
  <unicode hex="00AB"/>
  <outline>
    <contour>
      <point x="632" y="160" type="line"/>
      <point x="596" y="255"/>
      <point x="486" y="354"/>
      <point x="368" y="354" type="curve"/>
      <point x="368" y="346" type="line"/>
      <point x="486" y="346"/>
      <point x="596" y="445"/>
      <point x="632" y="539" type="curve"/>
      <point x="612" y="548" type="line"/>
      <point x="578" y="459"/>
      <point x="475" y="361"/>
      <point x="344" y="361" type="curve" smooth="yes"/>
      <point x="342" y="361" type="line"/>
      <point x="342" y="339" type="line"/>
      <point x="344" y="339" type="line" smooth="yes"/>
      <point x="475" y="339"/>
      <point x="578" y="241"/>
      <point x="612" y="151" type="curve"/>
    </contour>
    <contour>
      <point x="360" y="160" type="line"/>
      <point x="319" y="260"/>
      <point x="215" y="354"/>
      <point x="66" y="354" type="curve"/>
      <point x="66" y="346" type="line"/>
      <point x="215" y="346"/>
      <point x="319" y="440"/>
      <point x="360" y="539" type="curve"/>
      <point x="340" y="548" type="line"/>
      <point x="301" y="454"/>
      <point x="202" y="361"/>
      <point x="42" y="361" type="curve" smooth="yes"/>
      <point x="30" y="361" type="line"/>
      <point x="30" y="339" type="line"/>
      <point x="42" y="339" type="line" smooth="yes"/>
      <point x="202" y="339"/>
      <point x="301" y="246"/>
      <point x="340" y="151" type="curve"/>
    </contour>
  </outline>
</glyph>
<glyph name="logicalnot" format="1">
  <advance width="840"/>
  <unicode hex="00AC"/>
  <outline>
    <contour>
      <point x="715" y="363" type="line"/>
      <point x="715" y="394" type="line"/>
      <point x="59" y="394" type="line"/>
      <point x="59" y="363" type="line"/>
    </contour>
    <contour>
      <point x="715" y="77" type="line"/>
      <point x="715" y="394" type="line"/>
      <point x="682" y="394" type="line"/>
      <point x="682" y="77" type="line"/>
    </contour>
  </outline>
</glyph>
<glyph name="softhyphen" format="1">
  <advance width="328"/>
  <unicode hex="00AD"/>
  <outline>
    <contour>
      <point x="28" y="356" type="line"/>
      <point x="28" y="332" type="line"/>
      <point x="299" y="332" type="line"/>
      <point x="299" y="356" type="line"/>
    </contour>
  </outline>
</glyph>
<glyph name="registered" format="1">
  <advance width="958"/>
  <unicode hex="00AE"/>
  <outline>
    <contour>
      <point x="724" y="-11"/>
      <point x="897" y="138"/>
      <point x="897" y="335" type="curve"/>
      <point x="897" y="532"/>
      <point x="724" y="681"/>
      <point x="478" y="681" type="curve"/>
      <point x="234" y="681"/>
      <point x="60" y="532"/>
      <point x="60" y="335" type="curve"/>
      <point x="60" y="138"/>
      <point x="234" y="-11"/>
      <point x="478" y="-11" type="curve"/>
    </contour>
    <contour>
      <point x="440" y="193" type="line"/>
      <point x="440" y="216" type="line"/>
      <point x="215" y="215" type="line"/>
      <point x="215" y="191" type="line"/>
    </contour>
    <contour>
      <point x="336" y="200" type="line"/>
      <point x="336" y="462" type="line"/>
      <point x="312" y="462" type="line"/>
      <point x="312" y="200" type="line"/>
    </contour>
    <contour>
      <point x="716" y="171"/>
      <point x="755" y="213"/>
      <point x="755" y="276" type="curve" smooth="yes"/>
      <point x="755" y="287" type="line"/>
      <point x="730" y="287" type="line"/>
      <point x="730" y="276" type="line" smooth="yes"/>
      <point x="730" y="224"/>
      <point x="698" y="194"/>
      <point x="658" y="194" type="curve" smooth="yes"/>
      <point x="557" y="194"/>
      <point x="560" y="323"/>
      <point x="436" y="323" type="curve" smooth="yes"/>
      <point x="329" y="323" type="line"/>
      <point x="329" y="310" type="line"/>
      <point x="438" y="310" type="line" smooth="yes"/>
      <point x="536" y="310"/>
      <point x="546" y="171"/>
      <point x="658" y="171" type="curve" smooth="yes"/>
    </contour>
    <contour>
      <point x="245" y="13"/>
      <point x="85" y="156"/>
      <point x="85" y="335" type="curve"/>
      <point x="85" y="515"/>
      <point x="245" y="658"/>
      <point x="478" y="658" type="curve"/>
      <point x="712" y="658"/>
      <point x="872" y="515"/>
      <point x="872" y="335" type="curve"/>
      <point x="872" y="156"/>
      <point x="712" y="13"/>
      <point x="478" y="13" type="curve"/>
    </contour>
    <contour>
      <point x="588" y="311" type="line" smooth="yes"/>
      <point x="659" y="311"/>
      <point x="692" y="349"/>
      <point x="692" y="389" type="curve" smooth="yes"/>
      <point x="692" y="434"/>
      <point x="658" y="470"/>
      <point x="588" y="470" type="curve" smooth="yes"/>
      <point x="215" y="470" type="line"/>
      <point x="215" y="447" type="line"/>
      <point x="588" y="447" type="line" smooth="yes"/>
      <point x="638" y="447"/>
      <point x="667" y="424"/>
      <point x="667" y="389" type="curve" smooth="yes"/>
      <point x="667" y="355"/>
      <point x="638" y="333"/>
      <point x="588" y="333" type="curve" smooth="yes"/>
      <point x="329" y="333" type="line"/>
      <point x="329" y="311" type="line"/>
    </contour>
  </outline>
</glyph>
<glyph name="degree" format="1">
  <advance width="372"/>
  <unicode hex="00B0"/>
  <outline>
    <contour>
      <point x="270" y="529"/>
      <point x="332" y="581"/>
      <point x="332" y="656" type="curve"/>
      <point x="332" y="732"/>
      <point x="270" y="781"/>
      <point x="186" y="781" type="curve"/>
      <point x="107" y="781"/>
      <point x="40" y="732"/>
      <point x="40" y="656" type="curve"/>
      <point x="40" y="581"/>
      <point x="107" y="529"/>
      <point x="186" y="529" type="curve"/>
    </contour>
    <contour>
      <point x="119" y="551"/>
      <point x="64" y="596"/>
      <point x="64" y="656" type="curve"/>
      <point x="64" y="717"/>
      <point x="119" y="758"/>
      <point x="186" y="758" type="curve"/>
      <point x="258" y="758"/>
      <point x="309" y="717"/>
      <point x="309" y="656" type="curve"/>
      <point x="309" y="596"/>
      <point x="258" y="551"/>
      <point x="186" y="551" type="curve"/>
    </contour>
  </outline>
</glyph>
<glyph name="plusminus" format="1">
  <advance width="840"/>
  <unicode hex="00B1"/>
  <outline>
    <contour>
      <point x="404" y="163" type="line"/>
      <point x="437" y="163" type="line"/>
      <point x="437" y="590" type="line"/>
      <point x="404" y="590" type="line"/>
    </contour>
    <contour>
      <point x="92" y="392" type="line"/>
      <point x="92" y="362" type="line"/>
      <point x="748" y="362" type="line"/>
      <point x="748" y="392" type="line"/>
    </contour>
    <contour>
      <point x="92" y="80" type="line"/>
      <point x="92" y="51" type="line"/>
      <point x="748" y="51" type="line"/>
      <point x="748" y="80" type="line"/>
    </contour>
  </outline>
</glyph>
<glyph name="twosuperior" format="1">
  <advance width="440"/>
  <unicode hex="00B2"/>
  <outline>
    <contour>
      <point x="364" y="506" type="line"/>
      <point x="60" y="506" type="line"/>
      <point x="60" y="551"/>
      <point x="111" y="577"/>
      <point x="211" y="594" type="curve" smooth="yes"/>
      <point x="312" y="612"/>
      <point x="375" y="631"/>
      <point x="375" y="687" type="curve" smooth="yes"/>
      <point x="375" y="740"/>
      <point x="315" y="767"/>
      <point x="230" y="767" type="curve" smooth="yes"/>
      <point x="157" y="767"/>
      <point x="91" y="743"/>
      <point x="43" y="709" type="curve"/>
      <point x="55" y="691" type="line"/>
      <point x="93" y="719"/>
      <point x="168" y="747"/>
      <point x="230" y="747" type="curve" smooth="yes"/>
      <point x="302" y="747"/>
      <point x="352" y="726"/>
      <point x="353" y="687" type="curve" smooth="yes"/>
      <point x="353" y="647"/>
      <point x="303" y="633"/>
      <point x="204" y="615" type="curve" smooth="yes"/>
      <point x="91" y="593"/>
      <point x="37" y="563"/>
      <point x="37" y="503" type="curve" smooth="yes"/>
      <point x="37" y="484" type="line"/>
      <point x="386" y="484" type="line"/>
      <point x="386" y="592" type="line"/>
      <point x="364" y="592" type="line"/>
    </contour>
  </outline>
</glyph>
<glyph name="threesuperior" format="1">
  <advance width="452"/>
  <unicode hex="00B3"/>
  <outline>
    <contour>
      <point x="337" y="477"/>
      <point x="402" y="507"/>
      <point x="402" y="556" type="curve" smooth="yes"/>
      <point x="402" y="607"/>
      <point x="334" y="622"/>
      <point x="239" y="622" type="curve"/>
      <point x="239" y="615" type="line"/>
      <point x="327" y="615"/>
      <point x="386" y="635"/>
      <point x="386" y="688" type="curve" smooth="yes"/>
      <point x="386" y="738"/>
      <point x="322" y="767"/>
      <point x="240" y="767" type="curve" smooth="yes"/>
      <point x="169" y="767"/>
      <point x="109" y="751"/>
      <point x="59" y="726" type="curve"/>
      <point x="69" y="707" type="line"/>
      <point x="114" y="730"/>
      <point x="169" y="747"/>
      <point x="240" y="747" type="curve" smooth="yes"/>
      <point x="313" y="747"/>
      <point x="365" y="726"/>
      <point x="365" y="688" type="curve" smooth="yes"/>
      <point x="365" y="648"/>
      <point x="319" y="627"/>
      <point x="226" y="627" type="curve" smooth="yes"/>
      <point x="130" y="627" type="line"/>
      <point x="130" y="609" type="line"/>
      <point x="226" y="609" type="line" smooth="yes"/>
      <point x="340" y="609"/>
      <point x="381" y="593"/>
      <point x="381" y="556" type="curve" smooth="yes"/>
      <point x="381" y="517"/>
      <point x="318" y="498"/>
      <point x="236" y="498" type="curve" smooth="yes"/>
      <point x="144" y="498"/>
      <point x="86" y="527"/>
      <point x="62" y="547" type="curve"/>
      <point x="50" y="529" type="line"/>
      <point x="78" y="509"/>
      <point x="140" y="477"/>
      <point x="236" y="477" type="curve" smooth="yes"/>
    </contour>
  </outline>
</glyph>
<glyph name="micro" format="1">
  <advance width="909"/>
  <unicode hex="00B5"/>
  <outline>
    <contour>
      <point x="492" y="145"/>
      <point x="587" y="195"/>
      <point x="688" y="243" type="curve"/>
      <point x="688" y="266" type="line"/>
      <point x="587" y="216"/>
      <point x="477" y="168"/>
      <point x="388" y="168" type="curve"/>
      <point x="287" y="169"/>
      <point x="226" y="215"/>
      <point x="226" y="320" type="curve"/>
      <point x="226" y="523" type="line"/>
      <point x="210" y="523" type="line"/>
      <point x="210" y="320" type="line"/>
      <point x="210" y="194"/>
      <point x="277" y="145"/>
      <point x="388" y="145" type="curve"/>
    </contour>
    <contour>
      <point x="226" y="-1" type="line"/>
      <point x="226" y="165" type="line" smooth="yes"/>
      <point x="226" y="197"/>
      <point x="220" y="230"/>
      <point x="217" y="262" type="curve"/>
      <point x="217" y="523" type="line"/>
      <point x="202" y="523" type="line"/>
      <point x="202" y="-1" type="line"/>
    </contour>
    <contour>
      <point x="226" y="500" type="line"/>
      <point x="226" y="523" type="line"/>
      <point x="30" y="523" type="line"/>
      <point x="30" y="500" type="line"/>
    </contour>
    <contour>
      <point x="797" y="145"/>
      <point x="824" y="156"/>
      <point x="849" y="174" type="curve"/>
      <point x="838" y="194" type="line"/>
      <point x="816" y="176"/>
      <point x="793" y="168"/>
      <point x="767" y="168" type="curve" smooth="yes"/>
      <point x="734" y="168"/>
      <point x="702" y="193"/>
      <point x="702" y="249" type="curve"/>
      <point x="702" y="523" type="line"/>
      <point x="677" y="523" type="line"/>
      <point x="677" y="249" type="line"/>
      <point x="677" y="183"/>
      <point x="716" y="145"/>
      <point x="766" y="145" type="curve" smooth="yes"/>
    </contour>
  </outline>
</glyph>
<glyph name="paragraph" format="1">
  <advance width="920"/>
  <unicode hex="00B6"/>
  <outline>
    <contour>
      <point x="651" y="-11"/>
      <point x="739" y="54"/>
      <point x="739" y="188" type="curve" smooth="yes"/>
      <point x="739" y="686" type="line"/>
      <point x="714" y="686" type="line"/>
      <point x="714" y="187" type="line" smooth="yes"/>
      <point x="714" y="68"/>
      <point x="633" y="13"/>
      <point x="534" y="13" type="curve" smooth="yes"/>
      <point x="461" y="13"/>
      <point x="391" y="38"/>
      <point x="341" y="59" type="curve"/>
      <point x="334" y="36" type="line"/>
      <point x="383" y="14"/>
      <point x="451" y="-11"/>
      <point x="533" y="-11" type="curve" smooth="yes"/>
    </contour>
    <contour>
      <point x="597" y="13" type="line"/>
      <point x="597" y="616" type="line"/>
      <point x="573" y="626" type="line"/>
      <point x="573" y="8" type="line"/>
    </contour>
    <contour>
      <point x="423" y="350"/>
      <point x="521" y="400"/>
      <point x="587" y="447" type="curve"/>
      <point x="587" y="472" type="line"/>
      <point x="512" y="418"/>
      <point x="408" y="374"/>
      <point x="294" y="374" type="curve" smooth="yes"/>
      <point x="181" y="374"/>
      <point x="95" y="425"/>
      <point x="95" y="515" type="curve" smooth="yes"/>
      <point x="95" y="607"/>
      <point x="195" y="675"/>
      <point x="329" y="673" type="curve" smooth="yes"/>
      <point x="473" y="672"/>
      <point x="617" y="613"/>
      <point x="730" y="520" type="curve"/>
      <point x="730" y="544" type="line"/>
      <point x="621" y="633"/>
      <point x="478" y="697"/>
      <point x="329" y="697" type="curve" smooth="yes"/>
      <point x="184" y="697"/>
      <point x="70" y="621"/>
      <point x="70" y="515" type="curve" smooth="yes"/>
      <point x="70" y="409"/>
      <point x="170" y="350"/>
      <point x="294" y="350" type="curve" smooth="yes"/>
    </contour>
  </outline>
</glyph>
<glyph name="periodcentered" format="1">
  <advance width="325"/>
  <unicode hex="00B7"/>
  <outline>
    <contour>
      <point x="205" y="288"/>
      <point x="227" y="305"/>
      <point x="227" y="329" type="curve"/>
      <point x="227" y="354"/>
      <point x="205" y="372"/>
      <point x="163" y="372" type="curve"/>
      <point x="121" y="372"/>
      <point x="98" y="354"/>
      <point x="98" y="329" type="curve"/>
      <point x="98" y="305"/>
      <point x="121" y="288"/>
      <point x="163" y="288" type="curve"/>
    </contour>
  </outline>
</glyph>
<glyph name="onesuperior" format="1">
  <advance width="420"/>
  <unicode hex="00B9"/>
  <outline>
    <contour>
      <point x="153" y="675"/>
      <point x="226" y="713"/>
      <point x="252" y="781" type="curve"/>
      <point x="226" y="792" type="line"/>
      <point x="206" y="733"/>
      <point x="141" y="707"/>
      <point x="74" y="700" type="curve"/>
      <point x="77" y="669" type="line"/>
    </contour>
    <contour>
      <point x="381" y="420" type="line"/>
      <point x="381" y="448" type="line"/>
      <point x="73" y="448" type="line"/>
      <point x="73" y="420" type="line"/>
    </contour>
    <contour>
      <point x="256" y="420" type="line"/>
      <point x="256" y="792" type="line"/>
      <point x="226" y="792" type="line"/>
      <point x="226" y="420" type="line"/>
    </contour>
  </outline>
</glyph>
<glyph name="ordmasculine" format="1">
  <advance width="460"/>
  <unicode hex="00BA"/>
  <outline>
    <contour>
      <point x="335" y="474"/>
      <point x="418" y="515"/>
      <point x="418" y="585" type="curve"/>
      <point x="418" y="658"/>
      <point x="335" y="697"/>
      <point x="230" y="697" type="curve"/>
      <point x="125" y="696"/>
      <point x="41" y="658"/>
      <point x="41" y="585" type="curve"/>
      <point x="41" y="515"/>
      <point x="125" y="474"/>
      <point x="230" y="474" type="curve" smooth="yes"/>
    </contour>
    <contour>
      <point x="131" y="495"/>
      <point x="65" y="530"/>
      <point x="65" y="585" type="curve"/>
      <point x="65" y="643"/>
      <point x="131" y="675"/>
      <point x="230" y="675" type="curve"/>
      <point x="329" y="675"/>
      <point x="395" y="643"/>
      <point x="395" y="585" type="curve"/>
      <point x="395" y="530"/>
      <point x="329" y="495"/>
      <point x="230" y="495" type="curve" smooth="yes"/>
    </contour>
    <contour>
      <point x="61" y="377" type="line"/>
      <point x="408" y="377" type="line"/>
      <point x="408" y="399" type="line"/>
      <point x="61" y="399" type="line"/>
    </contour>
  </outline>
</glyph>
<glyph name="guillemetright" format="1">
  <advance width="702"/>
  <unicode hex="00BB"/>
  <outline>
    <contour>
      <point x="401" y="247"/>
      <point x="500" y="339"/>
      <point x="660" y="339" type="curve" smooth="yes"/>
      <point x="672" y="339" type="line"/>
      <point x="672" y="362" type="line"/>
      <point x="660" y="362" type="line" smooth="yes"/>
      <point x="500" y="362"/>
      <point x="401" y="455"/>
      <point x="362" y="549" type="curve"/>
      <point x="342" y="540" type="line"/>
      <point x="383" y="441"/>
      <point x="487" y="347"/>
      <point x="636" y="347" type="curve"/>
      <point x="636" y="355" type="line"/>
      <point x="487" y="355"/>
      <point x="383" y="261"/>
      <point x="342" y="162" type="curve"/>
      <point x="362" y="153" type="line"/>
    </contour>
    <contour>
      <point x="125" y="241"/>
      <point x="227" y="339"/>
      <point x="358" y="339" type="curve" smooth="yes"/>
      <point x="360" y="339" type="line"/>
      <point x="360" y="362" type="line"/>
      <point x="358" y="362" type="line" smooth="yes"/>
      <point x="227" y="362"/>
      <point x="125" y="460"/>
      <point x="90" y="549" type="curve"/>
      <point x="70" y="540" type="line"/>
      <point x="106" y="446"/>
      <point x="216" y="347"/>
      <point x="334" y="347" type="curve"/>
      <point x="334" y="355" type="line"/>
      <point x="216" y="355"/>
      <point x="106" y="256"/>
      <point x="70" y="162" type="curve"/>
      <point x="90" y="153" type="line"/>
    </contour>
  </outline>
</glyph>
<glyph name="onequarter" format="1">
  <advance width="893"/>
  <unicode hex="00BC"/>
  <outline>
    <contour>
      <point x="116" y="558"/>
      <point x="172" y="586"/>
      <point x="192" y="638" type="curve"/>
      <point x="172" y="646" type="line"/>
      <point x="157" y="601"/>
      <point x="107" y="582"/>
      <point x="56" y="576" type="curve"/>
      <point x="59" y="552" type="line"/>
    </contour>
    <contour>
      <point x="290" y="364" type="line"/>
      <point x="290" y="384" type="line"/>
      <point x="55" y="384" type="line"/>
      <point x="55" y="364" type="line"/>
    </contour>
    <contour>
      <point x="195" y="364" type="line"/>
      <point x="195" y="646" type="line"/>
      <point x="172" y="646" type="line"/>
      <point x="172" y="364" type="line"/>
    </contour>
    <contour>
      <point x="255" y="110" type="line"/>
      <point x="280" y="95" type="line"/>
      <point x="461" y="405" type="line"/>
      <point x="651" y="710" type="line"/>
      <point x="625" y="725" type="line"/>
      <point x="444" y="415" type="line"/>
    </contour>
    <contour>
      <point x="790" y="444" type="line"/>
      <point x="759" y="444" type="line"/>
      <point x="515" y="254" type="line"/>
      <point x="541" y="248" type="line"/>
    </contour>
    <contour>
      <point x="883" y="232" type="line"/>
      <point x="883" y="254" type="line"/>
      <point x="515" y="254" type="line"/>
      <point x="515" y="232" type="line"/>
    </contour>
    <contour>
      <point x="767" y="155" type="line"/>
      <point x="790" y="155" type="line"/>
      <point x="790" y="444" type="line"/>
      <point x="767" y="444" type="line"/>
    </contour>
  </outline>
</glyph>
<glyph name="onehalf" format="1">
  <advance width="975"/>
  <unicode hex="00BD"/>
  <outline>
    <contour>
      <point x="116" y="558"/>
      <point x="172" y="586"/>
      <point x="192" y="638" type="curve"/>
      <point x="172" y="646" type="line"/>
      <point x="157" y="601"/>
      <point x="107" y="582"/>
      <point x="56" y="576" type="curve"/>
      <point x="59" y="552" type="line"/>
    </contour>
    <contour>
      <point x="290" y="364" type="line"/>
      <point x="290" y="384" type="line"/>
      <point x="55" y="384" type="line"/>
      <point x="55" y="364" type="line"/>
    </contour>
    <contour>
      <point x="195" y="364" type="line"/>
      <point x="195" y="646" type="line"/>
      <point x="172" y="646" type="line"/>
      <point x="172" y="364" type="line"/>
    </contour>
    <contour>
      <point x="255" y="110" type="line"/>
      <point x="280" y="95" type="line"/>
      <point x="461" y="405" type="line"/>
      <point x="651" y="710" type="line"/>
      <point x="625" y="725" type="line"/>
      <point x="444" y="415" type="line"/>
    </contour>
    <contour>
      <point x="898" y="187" type="line"/>
      <point x="594" y="187" type="line"/>
      <point x="594" y="232"/>
      <point x="644" y="257"/>
      <point x="745" y="275" type="curve" smooth="yes"/>
      <point x="845" y="292"/>
      <point x="909" y="312"/>
      <point x="909" y="368" type="curve" smooth="yes"/>
      <point x="909" y="421"/>
      <point x="849" y="448"/>
      <point x="764" y="448" type="curve" smooth="yes"/>
      <point x="691" y="448"/>
      <point x="625" y="424"/>
      <point x="576" y="390" type="curve"/>
      <point x="589" y="371" type="line"/>
      <point x="626" y="400"/>
      <point x="701" y="428"/>
      <point x="764" y="428" type="curve" smooth="yes"/>
      <point x="836" y="428"/>
      <point x="885" y="406"/>
      <point x="886" y="368" type="curve" smooth="yes"/>
      <point x="887" y="328"/>
      <point x="837" y="314"/>
      <point x="738" y="295" type="curve" smooth="yes"/>
      <point x="625" y="274"/>
      <point x="571" y="244"/>
      <point x="571" y="184" type="curve" smooth="yes"/>
      <point x="571" y="165" type="line"/>
      <point x="920" y="165" type="line"/>
      <point x="920" y="273" type="line"/>
      <point x="898" y="273" type="line"/>
    </contour>
  </outline>
</glyph>
<glyph name="threequarters" format="1">
  <advance width="996"/>
  <unicode hex="00BE"/>
  <outline>
    <contour>
      <point x="337" y="357"/>
      <point x="402" y="387"/>
      <point x="402" y="432" type="curve" smooth="yes"/>
      <point x="402" y="491"/>
      <point x="326" y="501"/>
      <point x="239" y="501" type="curve"/>
      <point x="239" y="495" type="line"/>
      <point x="327" y="495"/>
      <point x="386" y="523"/>
      <point x="386" y="570" type="curve" smooth="yes"/>
      <point x="386" y="621"/>
      <point x="325" y="647"/>
      <point x="242" y="647" type="curve" smooth="yes"/>
      <point x="172" y="647"/>
      <point x="109" y="631"/>
      <point x="59" y="605" type="curve"/>
      <point x="69" y="586" type="line"/>
      <point x="114" y="609"/>
      <point x="172" y="626"/>
      <point x="242" y="626" type="curve" smooth="yes"/>
      <point x="315" y="626"/>
      <point x="365" y="605"/>
      <point x="365" y="570" type="curve" smooth="yes"/>
      <point x="365" y="535"/>
      <point x="319" y="507"/>
      <point x="226" y="507" type="curve" smooth="yes"/>
      <point x="130" y="507" type="line"/>
      <point x="130" y="489" type="line"/>
      <point x="226" y="489" type="line" smooth="yes"/>
      <point x="333" y="489"/>
      <point x="381" y="472"/>
      <point x="381" y="432" type="curve" smooth="yes"/>
      <point x="381" y="397"/>
      <point x="318" y="377"/>
      <point x="236" y="377" type="curve" smooth="yes"/>
      <point x="144" y="377"/>
      <point x="86" y="407"/>
      <point x="62" y="426" type="curve"/>
      <point x="50" y="409" type="line"/>
      <point x="78" y="389"/>
      <point x="140" y="357"/>
      <point x="236" y="357" type="curve" smooth="yes"/>
    </contour>
    <contour>
      <point x="357" y="110" type="line"/>
      <point x="382" y="95" type="line"/>
      <point x="563" y="405" type="line"/>
      <point x="753" y="710" type="line"/>
      <point x="728" y="725" type="line"/>
      <point x="546" y="415" type="line"/>
    </contour>
    <contour>
      <point x="894" y="444" type="line"/>
      <point x="863" y="444" type="line"/>
      <point x="619" y="254" type="line"/>
      <point x="644" y="248" type="line"/>
    </contour>
    <contour>
      <point x="986" y="232" type="line"/>
      <point x="986" y="254" type="line"/>
      <point x="619" y="254" type="line"/>
      <point x="619" y="232" type="line"/>
    </contour>
    <contour>
      <point x="870" y="155" type="line"/>
      <point x="894" y="155" type="line"/>
      <point x="894" y="444" type="line"/>
      <point x="870" y="444" type="line"/>
    </contour>
  </outline>
</glyph>
<glyph name="questiondown" format="1">
  <advance width="475"/>
  <unicode hex="00BF"/>
  <outline>
    <contour>
      <point x="258" y="695"/>
      <point x="241" y="681"/>
      <point x="241" y="663" type="curve"/>
      <point x="241" y="644"/>
      <point x="258" y="631"/>
      <point x="290" y="631" type="curve"/>
      <point x="321" y="631"/>
      <point x="340" y="644"/>
      <point x="340" y="663" type="curve"/>
      <point x="340" y="681"/>
      <point x="321" y="695"/>
      <point x="290" y="695" type="curve"/>
    </contour>
    <contour>
      <point x="418" y="213" type="line"/>
      <point x="368" y="192"/>
      <point x="318" y="178"/>
      <point x="249" y="178" type="curve" smooth="yes"/>
      <point x="160" y="178"/>
      <point x="90" y="216"/>
      <point x="90" y="275" type="curve" smooth="yes"/>
      <point x="90" y="327"/>
      <point x="142" y="354"/>
      <point x="201" y="375" type="curve" smooth="yes"/>
      <point x="274" y="403"/>
      <point x="350" y="420"/>
      <point x="350" y="469" type="curve" smooth="yes"/>
      <point x="350" y="496"/>
      <point x="335" y="523"/>
      <point x="313" y="555" type="curve"/>
      <point x="300" y="551" type="line"/>
      <point x="315" y="523"/>
      <point x="328" y="503"/>
      <point x="328" y="475" type="curve" smooth="yes"/>
      <point x="328" y="436"/>
      <point x="263" y="420"/>
      <point x="194" y="396" type="curve" smooth="yes"/>
      <point x="129" y="374"/>
      <point x="65" y="342"/>
      <point x="65" y="276" type="curve" smooth="yes"/>
      <point x="65" y="195"/>
      <point x="153" y="154"/>
      <point x="249" y="154" type="curve" smooth="yes"/>
      <point x="318" y="154"/>
      <point x="370" y="168"/>
      <point x="425" y="190" type="curve"/>
    </contour>
  </outline>
</glyph>
<glyph name="Atilde" format="1">
  <advance width="1028"/>
  <unicode hex="00C3"/>
  <outline>
    <contour>
      <point x="180" y="178" type="line"/>
      <point x="516" y="668" type="line"/>
      <point x="512" y="668" type="line"/>
      <point x="849" y="178" type="line"/>
      <point x="878" y="178" type="line"/>
      <point x="533" y="676" type="line" smooth="yes"/>
      <point x="495" y="676" type="line"/>
      <point x="150" y="178" type="line"/>
    </contour>
    <contour>
      <point x="335" y="165" type="line"/>
      <point x="335" y="188" type="line"/>
      <point x="-5" y="188" type="line"/>
      <point x="-5" y="165" type="line"/>
    </contour>
    <contour>
      <point x="733" y="365" type="line"/>
      <point x="717" y="387" type="line"/>
      <point x="309" y="387" type="line"/>
      <point x="291" y="365" type="line"/>
    </contour>
    <contour>
      <point x="1033" y="165" type="line"/>
      <point x="1033" y="188" type="line"/>
      <point x="693" y="188" type="line"/>
      <point x="693" y="165" type="line"/>
    </contour>
    <contour>
      <point x="702" y="663" type="line"/>
      <point x="702" y="686" type="line"/>
      <point x="325" y="686" type="line"/>
      <point x="325" y="663" type="line"/>
    </contour>
    <contour>
      <point x="667" y="792"/>
      <point x="705" y="838"/>
      <point x="716" y="906" type="curve"/>
      <point x="695" y="909" type="line"/>
      <point x="683" y="842"/>
      <point x="648" y="815"/>
      <point x="611" y="815" type="curve" smooth="yes"/>
      <point x="577" y="815"/>
      <point x="546" y="836"/>
      <point x="513" y="859" type="curve" smooth="yes"/>
      <point x="478" y="883"/>
      <point x="445" y="909"/>
      <point x="400" y="909" type="curve" smooth="yes"/>
      <point x="340" y="909"/>
      <point x="302" y="863"/>
      <point x="291" y="795" type="curve"/>
      <point x="312" y="791" type="line"/>
      <point x="323" y="859"/>
      <point x="358" y="887"/>
      <point x="397" y="887" type="curve" smooth="yes"/>
      <point x="432" y="887"/>
      <point x="462" y="866"/>
      <point x="494" y="843" type="curve" smooth="yes"/>
      <point x="529" y="818"/>
      <point x="564" y="792"/>
      <point x="608" y="792" type="curve" smooth="yes"/>
    </contour>
    <contour>
      <point x="605" y="751" type="move" name="hook"/>
    </contour>
    <contour>
      <point x="1033" y="165" type="move" name="ogonek"/>
    </contour>
    <contour>
      <point x="513" y="686" type="move" name="top"/>
    </contour>
    <contour>
      <point x="515" y="165" type="move" name="bottom"/>
    </contour>
  </outline>
</glyph>
<glyph name="AE" format="1">
  <advance width="1424"/>
  <unicode hex="00C6"/>
  <outline>
    <contour>
      <point x="185" y="178" type="line"/>
      <point x="625" y="668" type="line"/>
      <point x="616" y="668" type="line"/>
      <point x="856" y="178" type="line"/>
      <point x="884" y="178" type="line"/>
      <point x="638" y="676" type="line" smooth="yes"/>
      <point x="599" y="676" type="line"/>
      <point x="152" y="178" type="line"/>
    </contour>
    <contour>
      <point x="350" y="165" type="line"/>
      <point x="350" y="188" type="line"/>
      <point x="0" y="188" type="line"/>
      <point x="0" y="165" type="line"/>
    </contour>
    <contour>
      <point x="771" y="359" type="line"/>
      <point x="771" y="382" type="line"/>
      <point x="360" y="382" type="line"/>
      <point x="336" y="359" type="line"/>
    </contour>
    <contour>
      <point x="1294" y="165" type="line"/>
      <point x="1294" y="349" type="line"/>
      <point x="1269" y="349" type="line"/>
      <point x="1269" y="188" type="line"/>
      <point x="676" y="188" type="line"/>
      <point x="676" y="165" type="line"/>
    </contour>
    <contour>
      <point x="1027" y="323" type="line"/>
      <point x="1027" y="563" type="line"/>
      <point x="1002" y="563" type="line"/>
      <point x="1002" y="455" type="line"/>
      <point x="739" y="455" type="line"/>
      <point x="739" y="431" type="line"/>
      <point x="1002" y="431" type="line"/>
      <point x="1002" y="323" type="line"/>
    </contour>
    <contour>
      <point x="1294" y="502" type="line"/>
      <point x="1294" y="686" type="line"/>
      <point x="415" y="686" type="line"/>
      <point x="415" y="663" type="line"/>
      <point x="1268" y="663" type="line"/>
      <point x="1268" y="502" type="line"/>
    </contour>
    <contour>
      <point x="1294" y="165" type="move" name="ogonek"/>
    </contour>
    <contour>
      <point x="784" y="165" type="move" name="bottom"/>
    </contour>
    <contour>
      <point x="786" y="686" type="move" name="top"/>
    </contour>
  </outline>
</glyph>
<glyph name="Ccedilla" format="1">
  <advance width="892"/>
  <unicode hex="00C7"/>
  <outline>
    <contour>
      <point x="647" y="154"/>
      <point x="754" y="250"/>
      <point x="802" y="333" type="curve"/>
      <point x="781" y="346" type="line"/>
      <point x="741" y="272"/>
      <point x="632" y="178"/>
      <point x="432" y="178" type="curve"/>
      <point x="250" y="178"/>
      <point x="100" y="271"/>
      <point x="100" y="425" type="curve"/>
      <point x="100" y="580"/>
      <point x="255" y="673"/>
      <point x="441" y="673" type="curve" smooth="yes"/>
      <point x="578" y="673"/>
      <point x="696" y="627"/>
      <point x="787" y="496" type="curve"/>
      <point x="799" y="498" type="line"/>
      <point x="799" y="686" type="line"/>
      <point x="775" y="686" type="line"/>
      <point x="775" y="526" type="line"/>
      <point x="787" y="526" type="line"/>
      <point x="717" y="627"/>
      <point x="602" y="697"/>
      <point x="441" y="697" type="curve" smooth="yes"/>
      <point x="247" y="697"/>
      <point x="75" y="598"/>
      <point x="75" y="425" type="curve"/>
      <point x="75" y="254"/>
      <point x="240" y="154"/>
      <point x="432" y="154" type="curve"/>
    </contour>
    <contour>
      <point x="518" y="-21"/>
      <point x="556" y="1"/>
      <point x="556" y="39" type="curve" smooth="yes"/>
      <point x="556" y="76"/>
      <point x="519" y="98"/>
      <point x="464" y="98" type="curve" smooth="yes"/>
      <point x="442" y="98"/>
      <point x="426" y="96"/>
      <point x="410" y="95" type="curve"/>
      <point x="436" y="170" type="line"/>
      <point x="416" y="170" type="line"/>
      <point x="383" y="79" type="line"/>
      <point x="388" y="73" type="line"/>
      <point x="410" y="75"/>
      <point x="431" y="77"/>
      <point x="464" y="77" type="curve" smooth="yes"/>
      <point x="509" y="77"/>
      <point x="533" y="64"/>
      <point x="533" y="39" type="curve" smooth="yes"/>
      <point x="533" y="13"/>
      <point x="502" y="1"/>
      <point x="446" y="1" type="curve" smooth="yes"/>
      <point x="385" y="1"/>
      <point x="341" y="18"/>
      <point x="316" y="30" type="curve"/>
      <point x="307" y="10" type="line"/>
      <point x="335" y="-3"/>
      <point x="380" y="-21"/>
      <point x="446" y="-21" type="curve" smooth="yes"/>
    </contour>
    <contour>
      <point x="440" y="697" type="move" name="top"/>
    </contour>
    <contour>
      <point x="432" y="155" type="move" name="bottom"/>
    </contour>
  </outline>
</glyph>
<glyph name="Egrave" format="1">
  <advance width="995"/>
  <unicode hex="00C8"/>
  <outline>
    <contour>
      <point x="864" y="165" type="line"/>
      <point x="864" y="349" type="line"/>
      <point x="840" y="349" type="line"/>
      <point x="840" y="188" type="line"/>
      <point x="56" y="188" type="line"/>
      <point x="56" y="165" type="line"/>
    </contour>
    <contour>
      <point x="264" y="178" type="line"/>
      <point x="264" y="673" type="line"/>
      <point x="239" y="673" type="line"/>
      <point x="239" y="178" type="line"/>
    </contour>
    <contour>
      <point x="585" y="426" type="line"/>
      <point x="585" y="450" type="line"/>
      <point x="261" y="450" type="line"/>
      <point x="261" y="426" type="line"/>
    </contour>
    <contour>
      <point x="598" y="318" type="line"/>
      <point x="598" y="558" type="line"/>
      <point x="573" y="558" type="line"/>
      <point x="573" y="318" type="line"/>
    </contour>
    <contour>
      <point x="864" y="502" type="line"/>
      <point x="864" y="686" type="line"/>
      <point x="56" y="686" type="line"/>
      <point x="56" y="662" type="line"/>
      <point x="839" y="662" type="line"/>
      <point x="839" y="502" type="line"/>
    </contour>
    <contour>
      <point x="591" y="751" type="line"/>
      <point x="349" y="881" type="line"/>
      <point x="364" y="908" type="line"/>
      <point x="600" y="767" type="line"/>
    </contour>
    <contour>
      <point x="864" y="165" type="move" name="ogonek"/>
    </contour>
    <contour>
      <point x="502" y="165" type="move" name="bottom"/>
    </contour>
    <contour>
      <point x="531" y="686" type="move" name="top"/>
    </contour>
  </outline>
</glyph>
<glyph name="Iacute" format="1">
  <advance width="502"/>
  <unicode hex="00CD"/>
  <outline>
    <contour>
      <point x="264" y="178" type="line" smooth="yes"/>
      <point x="264" y="673" type="line" smooth="yes"/>
      <point x="239" y="673" type="line" smooth="yes"/>
      <point x="239" y="178" type="line" smooth="yes"/>
    </contour>
    <contour>
      <point x="446" y="165" type="line" smooth="yes"/>
      <point x="446" y="188" type="line" smooth="yes"/>
      <point x="56" y="188" type="line" smooth="yes"/>
      <point x="56" y="165" type="line" smooth="yes"/>
    </contour>
    <contour>
      <point x="446" y="662" type="line" smooth="yes"/>
      <point x="446" y="686" type="line" smooth="yes"/>
      <point x="56" y="686" type="line" smooth="yes"/>
      <point x="56" y="662" type="line" smooth="yes"/>
    </contour>
    <contour>
      <point x="419" y="908" type="line"/>
      <point x="434" y="881" type="line"/>
      <point x="192" y="751" type="line"/>
      <point x="183" y="767" type="line"/>
    </contour>
    <contour>
      <point x="446" y="165" type="move" name="ogonek"/>
    </contour>
    <contour>
      <point x="252" y="165" type="move" name="bottom"/>
    </contour>
    <contour>
      <point x="252" y="686" type="move" name="top"/>
    </contour>
  </outline>
</glyph>
<glyph name="Icircumflex" format="1">
  <advance width="502"/>
  <unicode hex="00CE"/>
  <outline>
    <contour>
      <point x="264" y="178" type="line" smooth="yes"/>
      <point x="264" y="673" type="line" smooth="yes"/>
      <point x="239" y="673" type="line" smooth="yes"/>
      <point x="239" y="178" type="line" smooth="yes"/>
    </contour>
    <contour>
      <point x="446" y="165" type="line" smooth="yes"/>
      <point x="446" y="188" type="line" smooth="yes"/>
      <point x="56" y="188" type="line" smooth="yes"/>
      <point x="56" y="165" type="line" smooth="yes"/>
    </contour>
    <contour>
      <point x="446" y="662" type="line" smooth="yes"/>
      <point x="446" y="686" type="line" smooth="yes"/>
      <point x="56" y="686" type="line" smooth="yes"/>
      <point x="56" y="662" type="line" smooth="yes"/>
    </contour>
    <contour>
      <point x="252" y="866" type="line"/>
      <point x="419" y="738" type="line"/>
      <point x="429" y="751" type="line"/>
      <point x="261" y="893" type="line"/>
      <point x="242" y="893" type="line"/>
      <point x="74" y="751" type="line"/>
      <point x="85" y="738" type="line"/>
    </contour>
    <contour>
      <point x="446" y="165" type="move" name="ogonek"/>
    </contour>
    <contour>
      <point x="252" y="165" type="move" name="bottom"/>
    </contour>
    <contour>
      <point x="252" y="686" type="move" name="top"/>
    </contour>
  </outline>
</glyph>
<glyph name="Idieresis" format="1">
  <advance width="502"/>
  <unicode hex="00CF"/>
  <outline>
    <contour>
      <point x="264" y="178" type="line" smooth="yes"/>
      <point x="264" y="673" type="line" smooth="yes"/>
      <point x="239" y="673" type="line" smooth="yes"/>
      <point x="239" y="178" type="line" smooth="yes"/>
    </contour>
    <contour>
      <point x="446" y="165" type="line" smooth="yes"/>
      <point x="446" y="188" type="line" smooth="yes"/>
      <point x="56" y="188" type="line" smooth="yes"/>
      <point x="56" y="165" type="line" smooth="yes"/>
    </contour>
    <contour>
      <point x="446" y="662" type="line" smooth="yes"/>
      <point x="446" y="686" type="line" smooth="yes"/>
      <point x="56" y="686" type="line" smooth="yes"/>
      <point x="56" y="662" type="line" smooth="yes"/>
    </contour>
    <contour>
      <point x="388" y="801"/>
      <point x="404" y="814"/>
      <point x="404" y="830" type="curve"/>
      <point x="404" y="847"/>
      <point x="388" y="859"/>
      <point x="359" y="859" type="curve"/>
      <point x="331" y="859"/>
      <point x="314" y="847"/>
      <point x="314" y="830" type="curve"/>
      <point x="314" y="814"/>
      <point x="331" y="801"/>
      <point x="359" y="801" type="curve"/>
    </contour>
    <contour>
      <point x="166" y="801"/>
      <point x="182" y="814"/>
      <point x="182" y="830" type="curve"/>
      <point x="182" y="847"/>
      <point x="166" y="859"/>
      <point x="137" y="859" type="curve"/>
      <point x="108" y="859"/>
      <point x="92" y="847"/>
      <point x="92" y="830" type="curve"/>
      <point x="92" y="814"/>
      <point x="108" y="801"/>
      <point x="137" y="801" type="curve"/>
    </contour>
    <contour>
      <point x="446" y="165" type="move" name="ogonek"/>
    </contour>
    <contour>
      <point x="252" y="165" type="move" name="bottom"/>
    </contour>
    <contour>
      <point x="252" y="686" type="move" name="top"/>
    </contour>
  </outline>
</glyph>
<glyph name="Ntilde" format="1">
  <advance width="1110"/>
  <unicode hex="00D1"/>
  <outline>
    <contour>
      <point x="913" y="159" type="line"/>
      <point x="913" y="673" type="line"/>
      <point x="888" y="673" type="line"/>
      <point x="888" y="208" type="line"/>
      <point x="264" y="686" type="line"/>
      <point x="220" y="686" type="line"/>
      <point x="908" y="159" type="line"/>
    </contour>
    <contour>
      <point x="446" y="165" type="line"/>
      <point x="446" y="188" type="line"/>
      <point x="56" y="188" type="line"/>
      <point x="56" y="165" type="line"/>
    </contour>
    <contour>
      <point x="264" y="176" type="line"/>
      <point x="264" y="686" type="line"/>
      <point x="239" y="686" type="line"/>
      <point x="239" y="176" type="line"/>
    </contour>
    <contour>
      <point x="264" y="662" type="line"/>
      <point x="264" y="686" type="line"/>
      <point x="56" y="686" type="line"/>
      <point x="56" y="662" type="line"/>
    </contour>
    <contour>
      <point x="1095" y="662" type="line"/>
      <point x="1095" y="686" type="line"/>
      <point x="705" y="686" type="line"/>
      <point x="705" y="662" type="line"/>
    </contour>
    <contour>
      <point x="677" y="783"/>
      <point x="714" y="828"/>
      <point x="726" y="896" type="curve"/>
      <point x="705" y="899" type="line"/>
      <point x="693" y="832"/>
      <point x="658" y="805"/>
      <point x="621" y="805" type="curve" smooth="yes"/>
      <point x="587" y="805"/>
      <point x="556" y="826"/>
      <point x="523" y="849" type="curve" smooth="yes"/>
      <point x="488" y="873"/>
      <point x="455" y="899"/>
      <point x="410" y="899" type="curve" smooth="yes"/>
      <point x="350" y="899"/>
      <point x="312" y="853"/>
      <point x="301" y="785" type="curve"/>
      <point x="322" y="781" type="line"/>
      <point x="333" y="849"/>
      <point x="368" y="877"/>
      <point x="407" y="877" type="curve" smooth="yes"/>
      <point x="442" y="877"/>
      <point x="472" y="856"/>
      <point x="504" y="833" type="curve" smooth="yes"/>
      <point x="539" y="808"/>
      <point x="574" y="783"/>
      <point x="618" y="783" type="curve" smooth="yes"/>
    </contour>
    <contour>
      <point x="523" y="676" type="move" name="top"/>
    </contour>
    <contour>
      <point x="623" y="175" type="move" name="bottom"/>
    </contour>
  </outline>
</glyph>
<glyph name="Otilde" format="1">
  <advance width="919"/>
  <unicode hex="00D5"/>
  <outline>
    <contour>
      <point x="676" y="155"/>
      <point x="844" y="254"/>
      <point x="844" y="425" type="curve"/>
      <point x="844" y="597"/>
      <point x="676" y="697"/>
      <point x="460" y="697" type="curve"/>
      <point x="242" y="697"/>
      <point x="75" y="597"/>
      <point x="75" y="425" type="curve"/>
      <point x="75" y="254"/>
      <point x="242" y="155"/>
      <point x="460" y="155" type="curve"/>
    </contour>
    <contour>
      <point x="252" y="178"/>
      <point x="100" y="271"/>
      <point x="100" y="425" type="curve"/>
      <point x="100" y="580"/>
      <point x="252" y="673"/>
      <point x="460" y="673" type="curve"/>
      <point x="666" y="673"/>
      <point x="819" y="580"/>
      <point x="819" y="425" type="curve"/>
      <point x="819" y="271"/>
      <point x="666" y="178"/>
      <point x="460" y="178" type="curve"/>
    </contour>
    <contour>
      <point x="614" y="803"/>
      <point x="651" y="849"/>
      <point x="663" y="916" type="curve"/>
      <point x="641" y="919" type="line"/>
      <point x="630" y="852"/>
      <point x="595" y="826"/>
      <point x="558" y="826" type="curve" smooth="yes"/>
      <point x="524" y="826"/>
      <point x="492" y="846"/>
      <point x="460" y="869" type="curve" smooth="yes"/>
      <point x="425" y="893"/>
      <point x="392" y="919"/>
      <point x="347" y="919" type="curve" smooth="yes"/>
      <point x="287" y="919"/>
      <point x="249" y="874"/>
      <point x="238" y="805" type="curve"/>
      <point x="259" y="802" type="line"/>
      <point x="270" y="869"/>
      <point x="305" y="897"/>
      <point x="344" y="897" type="curve" smooth="yes"/>
      <point x="379" y="897"/>
      <point x="409" y="877"/>
      <point x="441" y="853" type="curve" smooth="yes"/>
      <point x="476" y="829"/>
      <point x="511" y="803"/>
      <point x="555" y="803" type="curve" smooth="yes"/>
    </contour>
    <contour>
      <point x="460" y="410" type="move" name="center"/>
    </contour>
    <contour>
      <point x="461" y="156" type="move" name="ogonek"/>
    </contour>
    <contour>
      <point x="460" y="697" type="move" name="top"/>
    </contour>
    <contour>
      <point x="894" y="656" type="move" name="topright"/>
    </contour>
    <contour>
      <point x="460" y="155" type="move" name="bottom"/>
    </contour>
  </outline>
</glyph>
<glyph name="Odieresis" format="1">
  <advance width="919"/>
  <unicode hex="00D6"/>
  <outline>
    <contour>
      <point x="676" y="155"/>
      <point x="844" y="254"/>
      <point x="844" y="425" type="curve"/>
      <point x="844" y="597"/>
      <point x="676" y="697"/>
      <point x="460" y="697" type="curve"/>
      <point x="242" y="697"/>
      <point x="75" y="597"/>
      <point x="75" y="425" type="curve"/>
      <point x="75" y="254"/>
      <point x="242" y="155"/>
      <point x="460" y="155" type="curve"/>
    </contour>
    <contour>
      <point x="252" y="178"/>
      <point x="100" y="271"/>
      <point x="100" y="425" type="curve"/>
      <point x="100" y="580"/>
      <point x="252" y="673"/>
      <point x="460" y="673" type="curve"/>
      <point x="666" y="673"/>
      <point x="819" y="580"/>
      <point x="819" y="425" type="curve"/>
      <point x="819" y="271"/>
      <point x="666" y="178"/>
      <point x="460" y="178" type="curve"/>
    </contour>
    <contour>
      <point x="597" y="811"/>
      <point x="612" y="824"/>
      <point x="612" y="841" type="curve"/>
      <point x="612" y="858"/>
      <point x="597" y="869"/>
      <point x="567" y="869" type="curve"/>
      <point x="540" y="869"/>
      <point x="522" y="858"/>
      <point x="522" y="841" type="curve"/>
      <point x="522" y="824"/>
      <point x="540" y="811"/>
      <point x="567" y="811" type="curve"/>
    </contour>
    <contour>
      <point x="374" y="811"/>
      <point x="390" y="824"/>
      <point x="390" y="841" type="curve"/>
      <point x="390" y="858"/>
      <point x="374" y="869"/>
      <point x="345" y="869" type="curve"/>
      <point x="316" y="869"/>
      <point x="300" y="858"/>
      <point x="300" y="841" type="curve"/>
      <point x="300" y="824"/>
      <point x="316" y="811"/>
      <point x="345" y="811" type="curve"/>
    </contour>
    <contour>
      <point x="460" y="410" type="move" name="center"/>
    </contour>
    <contour>
      <point x="461" y="156" type="move" name="ogonek"/>
    </contour>
    <contour>
      <point x="460" y="697" type="move" name="top"/>
    </contour>
    <contour>
      <point x="894" y="656" type="move" name="topright"/>
    </contour>
    <contour>
      <point x="460" y="155" type="move" name="bottom"/>
    </contour>
  </outline>
</glyph>
<glyph name="multiply" format="1">
  <advance width="840"/>
  <unicode hex="00D7"/>
  <outline>
    <contour>
      <point x="697" y="92" type="line"/>
      <point x="140" y="559" type="line"/>
      <point x="118" y="534" type="line"/>
      <point x="674" y="67" type="line"/>
    </contour>
    <contour>
      <point x="695" y="535" type="line"/>
      <point x="674" y="559" type="line"/>
      <point x="118" y="92" type="line"/>
      <point x="139" y="68" type="line"/>
    </contour>
  </outline>
</glyph>
<glyph name="Oslash" format="1">
  <advance width="909"/>
  <unicode hex="00D8"/>
  <outline>
    <contour>
      <point x="336" y="174" type="line"/>
      <point x="340" y="180" type="line"/>
      <point x="593" y="669" type="line"/>
      <point x="597" y="676" type="line"/>
      <point x="634" y="748" type="line"/>
      <point x="606" y="748" type="line"/>
      <point x="571" y="681" type="line"/>
      <point x="567" y="673" type="line"/>
      <point x="315" y="188" type="line"/>
      <point x="309" y="179" type="line"/>
      <point x="272" y="105" type="line"/>
      <point x="300" y="105" type="line"/>
    </contour>
    <contour>
      <point x="676" y="155"/>
      <point x="844" y="254"/>
      <point x="844" y="425" type="curve"/>
      <point x="844" y="597"/>
      <point x="676" y="697"/>
      <point x="460" y="697" type="curve"/>
      <point x="242" y="697"/>
      <point x="75" y="597"/>
      <point x="75" y="425" type="curve"/>
      <point x="75" y="254"/>
      <point x="242" y="155"/>
      <point x="460" y="155" type="curve"/>
    </contour>
    <contour>
      <point x="252" y="178"/>
      <point x="100" y="271"/>
      <point x="100" y="425" type="curve"/>
      <point x="100" y="580"/>
      <point x="252" y="673"/>
      <point x="460" y="673" type="curve"/>
      <point x="666" y="673"/>
      <point x="819" y="580"/>
      <point x="819" y="425" type="curve"/>
      <point x="819" y="271"/>
      <point x="666" y="178"/>
      <point x="460" y="178" type="curve"/>
    </contour>
    <contour>
      <point x="460" y="410" type="move" name="center"/>
    </contour>
    <contour>
      <point x="461" y="156" type="move" name="ogonek"/>
    </contour>
    <contour>
      <point x="460" y="697" type="move" name="top"/>
    </contour>
    <contour>
      <point x="894" y="656" type="move" name="topright"/>
    </contour>
    <contour>
      <point x="460" y="155" type="move" name="bottom"/>
    </contour>
  </outline>
</glyph>
<glyph name="Ucircumflex" format="1">
  <advance width="1004"/>
  <unicode hex="00DB"/>
  <outline>
    <contour>
      <point x="696" y="155"/>
      <point x="822" y="244"/>
      <point x="822" y="420" type="curve" smooth="yes"/>
      <point x="822" y="673" type="line"/>
      <point x="800" y="673" type="line"/>
      <point x="796" y="407" type="line" smooth="yes"/>
      <point x="794" y="254"/>
      <point x="677" y="178"/>
      <point x="502" y="178" type="curve"/>
      <point x="327" y="178"/>
      <point x="210" y="254"/>
      <point x="207" y="409" type="curve" smooth="yes"/>
      <point x="205" y="673" type="line"/>
      <point x="182" y="673" type="line"/>
      <point x="182" y="420" type="line" smooth="yes"/>
      <point x="182" y="244"/>
      <point x="309" y="155"/>
      <point x="502" y="155" type="curve"/>
    </contour>
    <contour>
      <point x="387" y="662" type="line"/>
      <point x="387" y="686" type="line"/>
      <point x="0" y="686" type="line"/>
      <point x="0" y="662" type="line"/>
    </contour>
    <contour>
      <point x="1004" y="662" type="line"/>
      <point x="1004" y="686" type="line"/>
      <point x="617" y="686" type="line"/>
      <point x="617" y="662" type="line"/>
    </contour>
    <contour>
      <point x="502" y="856" type="line"/>
      <point x="670" y="729" type="line"/>
      <point x="680" y="741" type="line"/>
      <point x="512" y="884" type="line"/>
      <point x="492" y="884" type="line"/>
      <point x="325" y="741" type="line"/>
      <point x="336" y="729" type="line"/>
    </contour>
    <contour>
      <point x="502" y="155" type="move" name="ogonek"/>
    </contour>
    <contour>
      <point x="502" y="676" type="move" name="top"/>
    </contour>
    <contour>
      <point x="995" y="656" type="move" name="topright"/>
    </contour>
    <contour>
      <point x="502" y="155" type="move" name="bottom"/>
    </contour>
  </outline>
</glyph>
<glyph name="Thorn" format="1">
  <advance width="885"/>
  <unicode hex="00DE"/>
  <outline>
    <contour>
      <point x="674" y="308" type="line" smooth="yes"/>
      <point x="767" y="308"/>
      <point x="825" y="354"/>
      <point x="825" y="425" type="curve" smooth="yes"/>
      <point x="825" y="498"/>
      <point x="767" y="542"/>
      <point x="674" y="542" type="curve" smooth="yes"/>
      <point x="250" y="542" type="line"/>
      <point x="250" y="520" type="line"/>
      <point x="682" y="520" type="line" smooth="yes"/>
      <point x="747" y="520"/>
      <point x="800" y="489"/>
      <point x="800" y="425" type="curve" smooth="yes"/>
      <point x="800" y="362"/>
      <point x="747" y="331"/>
      <point x="682" y="331" type="curve" smooth="yes"/>
      <point x="250" y="331" type="line"/>
      <point x="250" y="308" type="line"/>
    </contour>
    <contour>
      <point x="446" y="165" type="line"/>
      <point x="446" y="188" type="line"/>
      <point x="255" y="188" type="line"/>
      <point x="247" y="188" type="line"/>
      <point x="56" y="188" type="line"/>
      <point x="56" y="165" type="line"/>
    </contour>
    <contour>
      <point x="264" y="178" type="line" smooth="yes"/>
      <point x="264" y="673" type="line" smooth="yes"/>
      <point x="239" y="673" type="line" smooth="yes"/>
      <point x="239" y="178" type="line" smooth="yes"/>
    </contour>
    <contour>
      <point x="245" y="663" type="line"/>
      <point x="252" y="663" type="line"/>
      <point x="446" y="663" type="line" smooth="yes"/>
      <point x="446" y="686" type="line" smooth="yes"/>
      <point x="56" y="686" type="line" smooth="yes"/>
      <point x="56" y="663" type="line" smooth="yes"/>
    </contour>
  </outline>
</glyph>
<glyph name="germandbls" format="1">
  <advance width="851"/>
  <unicode hex="00DF"/>
  <outline>
    <contour>
      <point x="744" y="155"/>
      <point x="806" y="190"/>
      <point x="806" y="247" type="curve" smooth="yes"/>
      <point x="806" y="320"/>
      <point x="717" y="335"/>
      <point x="601" y="346" type="curve" smooth="yes"/>
      <point x="477" y="358"/>
      <point x="420" y="372"/>
      <point x="420" y="417" type="curve" smooth="yes"/>
      <point x="420" y="467"/>
      <point x="492" y="482"/>
      <point x="562" y="495" type="curve" smooth="yes"/>
      <point x="669" y="513"/>
      <point x="732" y="532"/>
      <point x="732" y="608" type="curve" smooth="yes"/>
      <point x="732" y="688"/>
      <point x="609" y="751"/>
      <point x="436" y="751" type="curve" smooth="yes"/>
      <point x="271" y="751"/>
      <point x="211" y="671"/>
      <point x="211" y="572" type="curve" smooth="yes"/>
      <point x="211" y="165" type="line"/>
      <point x="236" y="165" type="line"/>
      <point x="236" y="574" type="line" smooth="yes"/>
      <point x="236" y="661"/>
      <point x="287" y="728"/>
      <point x="435" y="728" type="curve" smooth="yes"/>
      <point x="596" y="728"/>
      <point x="707" y="675"/>
      <point x="707" y="608" type="curve" smooth="yes"/>
      <point x="707" y="547"/>
      <point x="648" y="534"/>
      <point x="557" y="517" type="curve" smooth="yes"/>
      <point x="450" y="499"/>
      <point x="394" y="474"/>
      <point x="394" y="416" type="curve" smooth="yes"/>
      <point x="394" y="357"/>
      <point x="456" y="333"/>
      <point x="601" y="321" type="curve" smooth="yes"/>
      <point x="709" y="312"/>
      <point x="782" y="298"/>
      <point x="782" y="246" type="curve" smooth="yes"/>
      <point x="782" y="203"/>
      <point x="720" y="176"/>
      <point x="651" y="176" type="curve" smooth="yes"/>
      <point x="568" y="176"/>
      <point x="448" y="215"/>
      <point x="378" y="301" type="curve"/>
      <point x="378" y="301" type="line"/>
      <point x="378" y="165" type="line"/>
      <point x="401" y="165" type="line"/>
      <point x="401" y="264" type="line"/>
      <point x="385" y="271" type="line"/>
      <point x="432" y="208"/>
      <point x="546" y="155"/>
      <point x="651" y="155" type="curve" smooth="yes"/>
    </contour>
    <contour>
      <point x="220" y="165" type="line"/>
      <point x="220" y="188" type="line"/>
      <point x="50" y="188" type="line"/>
      <point x="50" y="165" type="line"/>
    </contour>
    <contour>
      <point x="220" y="500" type="line"/>
      <point x="220" y="523" type="line"/>
      <point x="50" y="523" type="line"/>
      <point x="50" y="500" type="line"/>
    </contour>
  </outline>
</glyph>
